<svg width="65" height="58" viewBox="0 0 65 58" fill="none" xmlns="http://www.w3.org/2000/svg">
<rect width="65" height="58" rx="11" fill="white"/>
<path d="M10.8128 46V40.5273H9.76394V39.6836H10.8128V38.9805C10.8128 37.7383 11.4241 37.1172 12.6467 37.1172C12.9007 37.1172 13.1272 37.1367 13.3264 37.1758V37.9961C13.2249 37.9766 13.0667 37.9668 12.8518 37.9668C12.4925 37.9668 12.2307 38.0527 12.0667 38.2246C11.9026 38.3965 11.8206 38.6582 11.8206 39.0098V39.6836H13.2678V40.5273H11.8206V46H10.8128ZM16.1001 45.2266C16.6196 45.2266 17.0493 45.0762 17.3891 44.7754C17.7329 44.4746 17.9048 44.0977 17.9048 43.6445V43.0645L16.2055 43.1758C15.729 43.207 15.3794 43.3066 15.1567 43.4746C14.9341 43.6426 14.8227 43.8867 14.8227 44.207C14.8227 44.5234 14.9419 44.7734 15.1802 44.957C15.4184 45.1367 15.7251 45.2266 16.1001 45.2266ZM15.9126 46.1113C15.2915 46.1113 14.7798 45.9414 14.3774 45.6016C13.979 45.2578 13.7798 44.8008 13.7798 44.2305C13.7798 43.668 13.979 43.2266 14.3774 42.9062C14.7759 42.5859 15.3442 42.4043 16.0825 42.3613L17.9048 42.25V41.6758C17.9048 41.2852 17.7837 40.9863 17.5415 40.7793C17.2993 40.5723 16.9438 40.4688 16.4751 40.4688C16.0962 40.4688 15.7817 40.5371 15.5317 40.6738C15.2817 40.8105 15.1216 41.0039 15.0512 41.2539H14.0317C14.0981 40.75 14.3579 40.3438 14.811 40.0352C15.268 39.7266 15.8345 39.5723 16.5102 39.5723C17.2759 39.5723 17.8677 39.7578 18.2856 40.1289C18.7036 40.5 18.9126 41.0156 18.9126 41.6758V46H17.9516V45.0684H17.8579C17.6548 45.4043 17.3852 45.6621 17.0493 45.8418C16.7134 46.0215 16.3345 46.1113 15.9126 46.1113ZM25.5944 41.6172H24.5749C24.489 41.2852 24.3034 41.0137 24.0182 40.8027C23.737 40.5879 23.3796 40.4805 22.946 40.4805C22.3796 40.4805 21.9284 40.6914 21.5925 41.1133C21.2604 41.5352 21.0944 42.1035 21.0944 42.8184C21.0944 43.5449 21.2624 44.125 21.5983 44.5586C21.9343 44.9883 22.3835 45.2031 22.946 45.2031C23.3718 45.2031 23.7253 45.1074 24.0065 44.916C24.2917 44.7246 24.4811 44.4512 24.5749 44.0957H25.5944C25.5007 44.6934 25.2214 45.1797 24.7565 45.5547C24.2917 45.9258 23.6901 46.1113 22.9518 46.1113C22.0651 46.1113 21.36 45.8145 20.8366 45.2207C20.3132 44.623 20.0515 43.8223 20.0515 42.8184C20.0515 41.834 20.3132 41.0469 20.8366 40.457C21.36 39.8672 22.0632 39.5723 22.946 39.5723C23.6843 39.5723 24.2858 39.7656 24.7507 40.1523C25.2194 40.5391 25.5007 41.0273 25.5944 41.6172ZM29.1942 40.4629C28.6903 40.4629 28.2763 40.6328 27.952 40.9727C27.6278 41.3125 27.4462 41.7617 27.4071 42.3203H30.8876C30.8759 41.7617 30.7157 41.3125 30.4071 40.9727C30.0985 40.6328 29.6942 40.4629 29.1942 40.4629ZM30.8583 44.3652H31.8661C31.7138 44.9121 31.4032 45.3398 30.9345 45.6484C30.4696 45.957 29.8935 46.1113 29.206 46.1113C28.331 46.1113 27.6376 45.8184 27.1259 45.2324C26.6142 44.6426 26.3583 43.8477 26.3583 42.8477C26.3583 41.8516 26.6161 41.0566 27.1317 40.4629C27.6474 39.8691 28.3388 39.5723 29.206 39.5723C30.0575 39.5723 30.7274 39.8555 31.2157 40.4219C31.704 40.9883 31.9481 41.7637 31.9481 42.748V43.1348H27.4071V43.1816C27.4345 43.8066 27.6103 44.3027 27.9345 44.6699C28.2626 45.0371 28.6942 45.2207 29.2294 45.2207C30.0458 45.2207 30.5888 44.9355 30.8583 44.3652ZM33.544 38.0488H34.5519V39.6836H35.9581V40.5273H34.5519V44.1016C34.5519 44.4727 34.6261 44.7422 34.7745 44.9102C34.923 45.0781 35.1612 45.1621 35.4894 45.1621C35.6339 45.1621 35.7901 45.1543 35.9581 45.1387V45.9883C35.7355 46.0273 35.5382 46.0469 35.3663 46.0469C34.714 46.0469 34.2472 45.916 33.9659 45.6543C33.6847 45.3926 33.544 44.9609 33.544 44.3594V40.5273H32.5245V39.6836H33.544V38.0488ZM37.097 46V39.6836H38.1048V46H37.097ZM38.0989 38.1953C37.9622 38.332 37.7962 38.4004 37.6009 38.4004C37.4056 38.4004 37.2396 38.332 37.1028 38.1953C36.9661 38.0547 36.8978 37.8887 36.8978 37.6973C36.8978 37.5059 36.9661 37.3418 37.1028 37.2051C37.2396 37.0645 37.4056 36.9941 37.6009 36.9941C37.7962 36.9941 37.9622 37.0645 38.0989 37.2051C38.2357 37.3418 38.304 37.5059 38.304 37.6973C38.304 37.8887 38.2357 38.0547 38.0989 38.1953ZM39.6187 46V39.6836H40.5796V40.6797H40.6734C40.8179 40.3281 41.0425 40.0566 41.3472 39.8652C41.6519 39.6699 42.0152 39.5723 42.437 39.5723C42.8511 39.5723 43.2066 39.6719 43.5034 39.8711C43.8042 40.0703 44.0308 40.3398 44.1831 40.6797H44.2769C44.4487 40.3398 44.7066 40.0703 45.0503 39.8711C45.3941 39.6719 45.7808 39.5723 46.2105 39.5723C46.855 39.5723 47.3511 39.752 47.6987 40.1113C48.0464 40.4668 48.2202 40.9746 48.2202 41.6348V46H47.2124V41.8691C47.2124 40.9434 46.7691 40.4805 45.8823 40.4805C45.4527 40.4805 45.1011 40.6211 44.8277 40.9023C44.5542 41.1836 44.4175 41.5293 44.4175 41.9395V46H43.4097V41.7109C43.4097 41.3359 43.2886 41.0371 43.0464 40.8145C42.8081 40.5918 42.4898 40.4805 42.0913 40.4805C41.6812 40.4805 41.3335 40.6367 41.0484 40.9492C40.7671 41.2617 40.6265 41.6406 40.6265 42.0859V46H39.6187ZM52.1716 40.4629C51.6677 40.4629 51.2536 40.6328 50.9294 40.9727C50.6052 41.3125 50.4236 41.7617 50.3845 42.3203H53.865C53.8532 41.7617 53.6931 41.3125 53.3845 40.9727C53.0759 40.6328 52.6716 40.4629 52.1716 40.4629ZM53.8357 44.3652H54.8435C54.6911 44.9121 54.3806 45.3398 53.9118 45.6484C53.447 45.957 52.8708 46.1113 52.1833 46.1113C51.3083 46.1113 50.615 45.8184 50.1032 45.2324C49.5915 44.6426 49.3357 43.8477 49.3357 42.8477C49.3357 41.8516 49.5935 41.0566 50.1091 40.4629C50.6247 39.8691 51.3161 39.5723 52.1833 39.5723C53.0349 39.5723 53.7048 39.8555 54.1931 40.4219C54.6814 40.9883 54.9255 41.7637 54.9255 42.748V43.1348H50.3845V43.1816C50.4118 43.8066 50.5876 44.3027 50.9118 44.6699C51.24 45.0371 51.6716 45.2207 52.2068 45.2207C53.0232 45.2207 53.5661 44.9355 53.8357 44.3652Z" fill="#007AFF"/>
<path d="M44.4558 11.7701C44.3349 11.7233 44.2186 11.6998 44.1069 11.6998C43.8558 11.6998 43.6467 11.7891 43.4792 11.9671L37.8569 17.6204V15.3001C37.8569 14.1843 37.464 13.2305 36.6781 12.4383C35.8921 11.6461 34.946 11.25 33.839 11.25H24.0178C22.9111 11.25 21.9647 11.6461 21.1787 12.4383C20.393 13.2305 20 14.1843 20 15.3001V25.2001C20 26.3157 20.393 27.2695 21.1787 28.0617C21.9648 28.8539 22.9111 29.25 24.0178 29.25H33.8391C34.946 29.25 35.8922 28.8539 36.6782 28.0617C37.4641 27.2695 37.857 26.3158 37.857 25.2001V22.8656L43.4793 28.5329C43.6468 28.7108 43.8559 28.8 44.107 28.8C44.2187 28.8 44.335 28.7766 44.4559 28.7299C44.8188 28.5704 45 28.294 45 27.9002V12.6C44.9999 12.2061 44.8186 11.9296 44.4558 11.7701Z" fill="#007AFF"/>
</svg>
