<?xml version="1.0" encoding="utf-8"?>
<!-- Generator: Adobe Illustrator 28.0.0, SVG Export Plug-In . SVG Version: 6.00 Build 0)  -->
<svg version="1.1" id="Layer_2_00000074416284328336747720000013750510529822076564_"
	 xmlns="http://www.w3.org/2000/svg" xmlns:xlink="http://www.w3.org/1999/xlink" x="0px" y="0px" viewBox="0 0 470.4 470.4"
	 style="enable-background:new 0 0 470.4 470.4;" xml:space="preserve">
<script  xmlns=""></script>
<g id="Layer_1-2">
	<path d="M235.2,0C172.8,0,113,24.8,68.9,68.9S0,172.8,0,235.2s24.8,122.2,68.9,166.3s103.9,68.9,166.3,68.9s122.2-24.8,166.3-68.9
		s68.9-103.9,68.9-166.3c-0.1-62.3-24.9-122.1-69-166.2C357.3,24.9,297.5,0.1,235.2,0L235.2,0L235.2,0z M213.8,309.7L169.4,277
		h-43.1c-6.2,0-11.2-5-11.2-11.2v-61.3c0-6.2,5-11.2,11.2-11.2h43.1l44.3-32.7l0,0c3.4-2.6,7.6-3.8,11.8-3.4c4.2,0.4,8.1,2.3,11,5.5
		c2.8,3.1,4.4,7.2,4.3,11.4v122.1c0,4.2-1.5,8.3-4.3,11.5c-2.8,3.1-6.8,5.1-11,5.5S217.1,312.3,213.8,309.7L213.8,309.7L213.8,309.7
		z M261.6,269.5c-0.9,0.5-1.9,0.7-3,0.7c-3.1,0-5.9-2.1-6.6-5.1c-0.7-3,0.8-6.2,3.6-7.5c5.5-2.8,9.8-7.6,12-13.4
		c2.2-5.8,2.2-12.2,0-18s-6.5-10.6-12.1-13.4c-1.7-0.7-3-2.1-3.7-3.8c-0.6-1.7-0.5-3.6,0.3-5.3c0.8-1.6,2.3-2.9,4.1-3.4
		c1.8-0.5,3.7-0.3,5.3,0.7c8.5,4.3,15.1,11.6,18.5,20.5c3.4,8.9,3.4,18.8,0,27.6C276.7,258,270.1,265.3,261.6,269.5L261.6,269.5
		L261.6,269.5z M288,283.7c-0.9,0.5-1.9,0.7-3,0.7c-3.1,0-5.8-2.1-6.5-5.1c-0.7-3,0.7-6.1,3.5-7.5c9.1-4.6,16.1-12.4,19.8-21.9
		c3.7-9.5,3.7-20,0-29.5c-3.7-9.5-10.7-17.3-19.8-21.9c-3.3-1.7-4.6-5.7-2.9-9c0.8-1.6,2.2-2.8,3.9-3.3c1.7-0.6,3.5-0.4,5.1,0.4
		c12,6.1,21.4,16.4,26.2,29c4.9,12.6,4.9,26.5,0,39.1S300,277.7,288,283.7L288,283.7z M312.3,305.1c-1,0.4-2,0.7-3,0.7
		c-3.1,0-5.8-2.1-6.5-5.1c-0.7-3,0.8-6.1,3.5-7.5c14.4-7.3,25.5-19.6,31.3-34.7c5.8-15,5.8-31.7,0-46.7s-17-27.4-31.3-34.7
		c-3-1.8-4.1-5.6-2.6-8.7s5.3-4.5,8.5-3.1c17.4,8.8,30.9,23.7,37.9,41.8c7,18.1,7,38.2,0,56.4c-7,18.1-20.5,33-37.9,41.8V305.1
		L312.3,305.1z"/>
</g>
</svg>
