<svg width="375" height="42" viewBox="0 0 375 42" fill="none" xmlns="http://www.w3.org/2000/svg">
<path d="M24.6094 30.3906C24.8672 30.6484 25.1953 30.7891 25.582 30.7891C26.3555 30.7891 26.9766 30.1797 26.9766 29.4062C26.9766 29.0195 26.8125 28.668 26.543 28.3984L18.3398 20.3828L26.543 12.3906C26.8125 12.1211 26.9766 11.7578 26.9766 11.3828C26.9766 10.6094 26.3555 10 25.582 10C25.1953 10 24.8672 10.1406 24.6094 10.3984L15.4922 19.3047C15.1641 19.6094 15.0117 19.9844 15 20.3945C15 20.8047 15.1641 21.1562 15.4922 21.4727L24.6094 30.3906Z" fill="#0A84FF"/>
<path d="M32.875 24.0547H34.2969C34.3854 24.6432 34.6901 25.112 35.2109 25.4609C35.7318 25.8099 36.3932 25.9844 37.1953 25.9844C37.9557 25.9844 38.5833 25.8021 39.0781 25.4375C39.5781 25.0677 39.8281 24.6042 39.8281 24.0469C39.8281 23.5677 39.6458 23.1719 39.2812 22.8594C38.9167 22.5417 38.3464 22.2839 37.5703 22.0859L36.125 21.7109C35.1042 21.4557 34.362 21.0859 33.8984 20.6016C33.4349 20.1172 33.2031 19.474 33.2031 18.6719C33.2031 17.7135 33.5677 16.9401 34.2969 16.3516C35.0312 15.7578 35.9948 15.4609 37.1875 15.4609C38.276 15.4609 39.1875 15.7526 39.9219 16.3359C40.6562 16.9193 41.0521 17.6667 41.1094 18.5781H39.6953C39.5964 18 39.3203 17.5495 38.8672 17.2266C38.4193 16.8984 37.8438 16.7344 37.1406 16.7344C36.3906 16.7344 35.7865 16.9089 35.3281 17.2578C34.875 17.6016 34.6484 18.0573 34.6484 18.625C34.6484 19.0677 34.8151 19.4271 35.1484 19.7031C35.487 19.9792 36.0443 20.2161 36.8203 20.4141L38 20.7266C39.1667 21.0182 40.0026 21.4089 40.5078 21.8984C41.0182 22.388 41.2734 23.0469 41.2734 23.875C41.2734 24.9115 40.8932 25.737 40.1328 26.3516C39.3724 26.9609 38.349 27.2656 37.0625 27.2656C35.8698 27.2656 34.8906 26.974 34.125 26.3906C33.3646 25.8073 32.9479 25.0286 32.875 24.0547ZM46.3967 19.6172C45.7248 19.6172 45.1727 19.8438 44.7404 20.2969C44.3081 20.75 44.066 21.349 44.0139 22.0938H48.6545C48.6389 21.349 48.4253 20.75 48.0139 20.2969C47.6024 19.8438 47.0634 19.6172 46.3967 19.6172ZM48.6154 24.8203H49.9592C49.7561 25.5495 49.342 26.1198 48.717 26.5312C48.0972 26.9427 47.329 27.1484 46.4123 27.1484C45.2456 27.1484 44.3212 26.7578 43.6389 25.9766C42.9566 25.1901 42.6154 24.1302 42.6154 22.7969C42.6154 21.4688 42.9592 20.4089 43.6467 19.6172C44.3342 18.8255 45.2561 18.4297 46.4123 18.4297C47.5477 18.4297 48.441 18.8073 49.092 19.5625C49.743 20.3177 50.0686 21.3516 50.0686 22.6641V23.1797H44.0139V23.2422C44.0503 24.0755 44.2847 24.737 44.717 25.2266C45.1545 25.7161 45.73 25.9609 46.4436 25.9609C47.5321 25.9609 48.2561 25.5807 48.6154 24.8203ZM54.3637 25.9688C55.0564 25.9688 55.6293 25.7682 56.0824 25.3672C56.5408 24.9661 56.7699 24.4635 56.7699 23.8594V23.0859L54.5043 23.2344C53.8689 23.276 53.4028 23.4089 53.1059 23.6328C52.809 23.8568 52.6606 24.1823 52.6606 24.6094C52.6606 25.0312 52.8194 25.3646 53.1371 25.6094C53.4548 25.849 53.8637 25.9688 54.3637 25.9688ZM54.1137 27.1484C53.2856 27.1484 52.6033 26.9219 52.0668 26.4688C51.5356 26.0104 51.2699 25.401 51.2699 24.6406C51.2699 23.8906 51.5356 23.3021 52.0668 22.875C52.5981 22.4479 53.3559 22.2057 54.3403 22.1484L56.7699 22V21.2344C56.7699 20.7135 56.6085 20.3151 56.2856 20.0391C55.9626 19.763 55.4887 19.625 54.8637 19.625C54.3585 19.625 53.9392 19.7161 53.6059 19.8984C53.2725 20.0807 53.059 20.3385 52.9653 20.6719H51.6059C51.6944 20 52.0408 19.4583 52.6449 19.0469C53.2543 18.6354 54.0095 18.4297 54.9106 18.4297C55.9314 18.4297 56.7205 18.6771 57.2778 19.1719C57.835 19.6667 58.1137 20.3542 58.1137 21.2344V27H56.8324V25.7578H56.7074C56.4366 26.2057 56.0772 26.5495 55.6293 26.7891C55.1814 27.0286 54.6762 27.1484 54.1137 27.1484ZM60.1901 27V18.5781H61.4713V19.8281H61.5963C61.7213 19.4167 62.0026 19.0807 62.4401 18.8203C62.8776 18.5599 63.375 18.4297 63.9323 18.4297C64.1875 18.4297 64.4114 18.4427 64.6041 18.4688V19.8125C64.4218 19.7604 64.1354 19.7344 63.7448 19.7344C63.1041 19.7344 62.5755 19.9271 62.1588 20.3125C61.7421 20.6979 61.5338 21.1875 61.5338 21.7812V27H60.1901ZM72.6102 21.1562H71.2508C71.1362 20.7135 70.8888 20.3516 70.5086 20.0703C70.1336 19.7839 69.6571 19.6406 69.0789 19.6406C68.3237 19.6406 67.7222 19.9219 67.2743 20.4844C66.8315 21.0469 66.6102 21.8047 66.6102 22.7578C66.6102 23.7266 66.8341 24.5 67.2821 25.0781C67.73 25.651 68.3289 25.9375 69.0789 25.9375C69.6466 25.9375 70.118 25.8099 70.493 25.5547C70.8732 25.2995 71.1258 24.9349 71.2508 24.4609H72.6102C72.4852 25.2578 72.1128 25.9062 71.493 26.4062C70.8732 26.901 70.0711 27.1484 69.0868 27.1484C67.9045 27.1484 66.9644 26.7526 66.2664 25.9609C65.5685 25.1641 65.2196 24.0964 65.2196 22.7578C65.2196 21.4453 65.5685 20.3958 66.2664 19.6094C66.9644 18.8229 67.9019 18.4297 69.0789 18.4297C70.0633 18.4297 70.8654 18.6875 71.4852 19.2031C72.1102 19.7188 72.4852 20.3698 72.6102 21.1562ZM74.2647 27V15.2344H75.6084V19.9062H75.7334C75.947 19.4323 76.2725 19.0677 76.71 18.8125C77.1527 18.5573 77.6918 18.4297 78.3272 18.4297C79.223 18.4297 79.9314 18.7057 80.4522 19.2578C80.973 19.8047 81.2334 20.5677 81.2334 21.5469V27H79.8897V21.875C79.8897 20.3854 79.2412 19.6406 77.9444 19.6406C77.2048 19.6406 76.6293 19.8568 76.2178 20.2891C75.8116 20.7161 75.6084 21.2917 75.6084 22.0156V27H74.2647Z" fill="#007AFF"/>
</svg>
