<svg width="361" height="62" viewBox="0 0 361 62" fill="none" xmlns="http://www.w3.org/2000/svg">
<path d="M0 11C0 4.92487 4.92487 0 11 0H350C356.075 0 361 4.92487 361 11V51C361 57.0751 356.075 62 350 62H11C4.92487 62 0 57.0751 0 51V11Z" fill="white"/>
<path d="M19.5273 25.1113C17.7227 25.1113 16.6328 23.8457 16.6328 21.8652V21.8594C16.6328 19.9082 17.7461 18.5723 19.4629 18.5723C21.1797 18.5723 22.2227 19.8496 22.2227 21.7363V22.1348H17.6758C17.7051 23.4414 18.4258 24.2031 19.5508 24.2031C20.4062 24.2031 20.9336 23.7988 21.1035 23.418L21.127 23.3652H22.1465L22.1348 23.4121C21.918 24.2676 21.0156 25.1113 19.5273 25.1113ZM19.457 19.4805C18.5195 19.4805 17.8047 20.1191 17.6934 21.3203H21.1855C21.0801 20.0723 20.3887 19.4805 19.457 19.4805Z" fill="black"/>
<path d="M23.3967 25V18.6836H24.4162V19.6445H24.51C24.7912 18.9648 25.3889 18.5723 26.215 18.5723C27.0705 18.5723 27.6682 19.0234 27.9611 19.6797H28.0549C28.3947 19.0117 29.1154 18.5723 29.9885 18.5723C31.2775 18.5723 31.9982 19.3105 31.9982 20.6348V25H30.9787V20.8691C30.9787 19.9375 30.551 19.4746 29.6604 19.4746C28.7815 19.4746 28.2014 20.1367 28.2014 20.9395V25H27.1818V20.7109C27.1818 19.9609 26.6662 19.4746 25.8693 19.4746C25.0432 19.4746 24.4162 20.1953 24.4162 21.0859V25H23.3967Z" fill="black"/>
<path d="M35.1645 25.1113C33.9633 25.1113 33.0551 24.3848 33.0551 23.2363V23.2246C33.0551 22.0996 33.8871 21.4492 35.3578 21.3613L37.1684 21.25V20.6758C37.1684 19.8965 36.6938 19.4746 35.7504 19.4746C34.9945 19.4746 34.4965 19.7559 34.3324 20.248L34.3266 20.2656H33.307L33.3129 20.2305C33.477 19.2402 34.4379 18.5723 35.7856 18.5723C37.3266 18.5723 38.1879 19.3633 38.1879 20.6758V25H37.1684V24.0684H37.0746C36.6762 24.7422 36.0141 25.1113 35.1645 25.1113ZM34.0981 23.2129C34.0981 23.8516 34.643 24.2266 35.3754 24.2266C36.4125 24.2266 37.1684 23.5469 37.1684 22.6445V22.0703L35.4809 22.1758C34.5199 22.2344 34.0981 22.5742 34.0981 23.2012V23.2129Z" fill="black"/>
<path d="M40.1823 17.4648C39.7955 17.4648 39.4791 17.1484 39.4791 16.7617C39.4791 16.375 39.7955 16.0586 40.1823 16.0586C40.569 16.0586 40.8854 16.375 40.8854 16.7617C40.8854 17.1484 40.569 17.4648 40.1823 17.4648ZM39.6666 25V18.6836H40.6862V25H39.6666Z" fill="black"/>
<path d="M42.2586 25V16.1758H43.2782V25H42.2586Z" fill="black"/>
<path d="M17.1074 46V38.6309H18.2969V39.752H18.4062C18.7344 38.959 19.4316 38.501 20.3955 38.501C21.3936 38.501 22.0908 39.0273 22.4326 39.793H22.542C22.9385 39.0137 23.7793 38.501 24.7979 38.501C26.3018 38.501 27.1426 39.3623 27.1426 40.9072V46H25.9531V41.1807C25.9531 40.0938 25.4541 39.5537 24.415 39.5537C23.3896 39.5537 22.7129 40.3262 22.7129 41.2627V46H21.5234V40.9961C21.5234 40.1211 20.9219 39.5537 19.9922 39.5537C19.0283 39.5537 18.2969 40.3945 18.2969 41.4336V46H17.1074Z" fill="#007AFF"/>
<path d="M30.9045 46.1299C29.5031 46.1299 28.4436 45.2822 28.4436 43.9424V43.9287C28.4436 42.6162 29.4143 41.8574 31.1301 41.7549L33.2424 41.625V40.9551C33.2424 40.0459 32.6887 39.5537 31.5881 39.5537C30.7063 39.5537 30.1252 39.8818 29.9338 40.4561L29.927 40.4766H28.7375L28.7443 40.4355C28.9357 39.2803 30.0568 38.501 31.6291 38.501C33.427 38.501 34.4318 39.4238 34.4318 40.9551V46H33.2424V44.9131H33.133C32.6682 45.6992 31.8957 46.1299 30.9045 46.1299ZM29.6604 43.915C29.6604 44.6602 30.2961 45.0977 31.1506 45.0977C32.3606 45.0977 33.2424 44.3047 33.2424 43.252V42.582L31.2736 42.7051C30.1525 42.7734 29.6604 43.1699 29.6604 43.9014V43.915Z" fill="#007AFF"/>
<path d="M36.8266 37.209C36.3754 37.209 36.0063 36.8398 36.0063 36.3887C36.0063 35.9375 36.3754 35.5684 36.8266 35.5684C37.2777 35.5684 37.6469 35.9375 37.6469 36.3887C37.6469 36.8398 37.2777 37.209 36.8266 37.209ZM36.225 46V38.6309H37.4145V46H36.225Z" fill="#007AFF"/>
<path d="M39.317 46V35.7051H40.5065V46H39.317Z" fill="#007AFF"/>
<path d="M48.0145 47.5996C44.4871 47.5996 42.2518 45.3848 42.2518 41.8984V41.8848C42.2518 38.5078 44.5487 36.1904 47.8983 36.1904C51.1317 36.1904 53.3807 38.2549 53.3807 41.2148V41.2285C53.3807 43.4502 52.3826 44.8652 50.8104 44.8652C50.0243 44.8652 49.4227 44.4209 49.3133 43.7578L49.3065 43.7168H49.1971C48.9032 44.4141 48.2879 44.8037 47.4881 44.8037C46.0662 44.8037 45.1092 43.6348 45.1092 41.9053V41.8916C45.1092 40.2373 46.0868 39.0752 47.4881 39.0752C48.2059 39.0752 48.8211 39.4443 49.0877 40.0391H49.1971V39.2051H50.2293V43.2178C50.2293 43.6963 50.5096 43.9766 51.0018 43.9766C51.8631 43.9766 52.4168 42.8896 52.4168 41.2148V41.2012C52.4168 38.7402 50.5438 37.0518 47.8094 37.0518C45.1366 37.0518 43.2157 39.0889 43.2157 41.9258V41.9395C43.2157 44.8516 45.1024 46.7314 48.0282 46.7314C48.9647 46.7314 49.8875 46.6016 50.3182 46.4033V47.2646C49.703 47.4766 48.8758 47.5996 48.0145 47.5996ZM47.6453 43.8398C48.5819 43.8398 49.1834 43.0947 49.1834 41.9326V41.9189C49.1834 40.7568 48.5887 40.0186 47.659 40.0186C46.743 40.0186 46.203 40.7295 46.203 41.9189V41.9326C46.203 43.1152 46.7498 43.8398 47.6453 43.8398Z" fill="#007AFF"/>
<path d="M54.8252 46V38.6309H56.0147V39.752H56.1241C56.4522 38.959 57.1495 38.501 58.1133 38.501C59.1114 38.501 59.8086 39.0273 60.1504 39.793H60.2598C60.6563 39.0137 61.4971 38.501 62.5157 38.501C64.0196 38.501 64.8604 39.3623 64.8604 40.9072V46H63.6709V41.1807C63.6709 40.0938 63.1719 39.5537 62.1329 39.5537C61.1075 39.5537 60.4307 40.3262 60.4307 41.2627V46H59.2412V40.9961C59.2412 40.1211 58.6397 39.5537 57.71 39.5537C56.7461 39.5537 56.0147 40.3945 56.0147 41.4336V46H54.8252Z" fill="#007AFF"/>
<path d="M67.2278 37.209C66.7766 37.209 66.4075 36.8398 66.4075 36.3887C66.4075 35.9375 66.7766 35.5684 67.2278 35.5684C67.679 35.5684 68.0481 35.9375 68.0481 36.3887C68.0481 36.8398 67.679 37.209 67.2278 37.209ZM66.6262 46V38.6309H67.8157V46H66.6262Z" fill="#007AFF"/>
<path d="M72.6645 46.1299C70.6001 46.1299 69.2807 44.6328 69.2807 42.2949V42.2812C69.2807 39.9912 70.5932 38.501 72.6577 38.501C74.4487 38.501 75.5219 39.5332 75.7407 40.8457L75.7475 40.8867H74.5649L74.5581 40.8662C74.3735 40.1416 73.7172 39.5537 72.6577 39.5537C71.3315 39.5537 70.4975 40.6201 70.4975 42.2812V42.2949C70.4975 43.9902 71.3452 45.0771 72.6577 45.0771C73.6489 45.0771 74.2778 44.6396 74.5512 43.8193L74.5649 43.7783L75.7407 43.7715L75.727 43.8467C75.4262 45.1797 74.435 46.1299 72.6645 46.1299Z" fill="#007AFF"/>
<path d="M77.1442 46V35.7051H78.3337V39.7383H78.443C78.8122 38.959 79.5026 38.501 80.5895 38.501C82.2438 38.501 83.1667 39.4785 83.1667 41.2285V46H81.9772V41.5156C81.9772 40.1895 81.4303 39.5537 80.2546 39.5537C79.0788 39.5537 78.3337 40.3467 78.3337 41.6387V46H77.1442Z" fill="#007AFF"/>
<path d="M86.9354 46.1299C85.5341 46.1299 84.4745 45.2822 84.4745 43.9424V43.9287C84.4745 42.6162 85.4452 41.8574 87.161 41.7549L89.2733 41.625V40.9551C89.2733 40.0459 88.7196 39.5537 87.619 39.5537C86.7372 39.5537 86.1561 39.8818 85.9647 40.4561L85.9579 40.4766H84.7684L84.7753 40.4355C84.9667 39.2803 86.0878 38.501 87.66 38.501C89.4579 38.501 90.4628 39.4238 90.4628 40.9551V46H89.2733V44.9131H89.1639C88.6991 45.6992 87.9266 46.1299 86.9354 46.1299ZM85.6913 43.915C85.6913 44.6602 86.327 45.0977 87.1815 45.0977C88.3915 45.0977 89.2733 44.3047 89.2733 43.252V42.582L87.3046 42.7051C86.1835 42.7734 85.6913 43.1699 85.6913 43.9014V43.915Z" fill="#007AFF"/>
<path d="M95.2364 46.1299C93.1309 46.1299 91.8595 44.6533 91.8595 42.3428V42.3359C91.8595 40.0596 93.1583 38.501 95.1612 38.501C97.1641 38.501 98.3809 39.9912 98.3809 42.1924V42.6572H93.0762C93.1104 44.1816 93.9512 45.0703 95.2637 45.0703C96.2618 45.0703 96.877 44.5986 97.0753 44.1543L97.1026 44.0928H98.2921L98.2784 44.1475C98.0255 45.1455 96.9727 46.1299 95.2364 46.1299ZM95.1544 39.5605C94.0606 39.5605 93.2266 40.3057 93.0968 41.707H97.171C97.0479 40.251 96.2413 39.5605 95.1544 39.5605Z" fill="#007AFF"/>
<path d="M99.887 46V35.7051H101.076V46H99.887Z" fill="#007AFF"/>
<path d="M105.481 46.1299C103.84 46.1299 102.712 45.3369 102.576 44.1201H103.792C103.991 44.7354 104.579 45.1387 105.522 45.1387C106.513 45.1387 107.217 44.667 107.217 43.9971V43.9834C107.217 43.4844 106.841 43.1357 105.932 42.917L104.791 42.6436C103.41 42.3154 102.788 41.7139 102.788 40.6543V40.6475C102.788 39.4238 103.963 38.501 105.529 38.501C107.074 38.501 108.147 39.2734 108.311 40.4766H107.142C106.985 39.8955 106.411 39.4922 105.522 39.4922C104.647 39.4922 104.004 39.9434 104.004 40.5928V40.6064C104.004 41.1055 104.374 41.4199 105.242 41.6318L106.376 41.9053C107.764 42.2402 108.434 42.8418 108.434 43.8945V43.9082C108.434 45.2207 107.156 46.1299 105.481 46.1299Z" fill="#007AFF"/>
<path d="M112.88 46.1299C110.774 46.1299 109.503 44.6533 109.503 42.3428V42.3359C109.503 40.0596 110.801 38.501 112.804 38.501C114.807 38.501 116.024 39.9912 116.024 42.1924V42.6572H110.719C110.754 44.1816 111.594 45.0703 112.907 45.0703C113.905 45.0703 114.52 44.5986 114.718 44.1543L114.746 44.0928H115.935L115.922 44.1475C115.669 45.1455 114.616 46.1299 112.88 46.1299ZM112.798 39.5605C111.704 39.5605 110.87 40.3057 110.74 41.707H114.814C114.691 40.251 113.884 39.5605 112.798 39.5605Z" fill="#007AFF"/>
<path d="M117.53 46V35.7051H118.72V39.7383H118.829C119.198 38.959 119.889 38.501 120.976 38.501C122.63 38.501 123.553 39.4785 123.553 41.2285V46H122.363V41.5156C122.363 40.1895 121.816 39.5537 120.641 39.5537C119.465 39.5537 118.72 40.3467 118.72 41.6387V46H117.53Z" fill="#007AFF"/>
<path d="M126.269 46.0684C125.783 46.0684 125.38 45.665 125.38 45.1797C125.38 44.6875 125.783 44.291 126.269 44.291C126.761 44.291 127.157 44.6875 127.157 45.1797C127.157 45.665 126.761 46.0684 126.269 46.0684Z" fill="#007AFF"/>
<path d="M131.787 46.1299C129.723 46.1299 128.404 44.6328 128.404 42.2949V42.2812C128.404 39.9912 129.716 38.501 131.781 38.501C133.572 38.501 134.645 39.5332 134.864 40.8457L134.87 40.8867H133.688L133.681 40.8662C133.496 40.1416 132.84 39.5537 131.781 39.5537C130.454 39.5537 129.62 40.6201 129.62 42.2812V42.2949C129.62 43.9902 130.468 45.0771 131.781 45.0771C132.772 45.0771 133.401 44.6396 133.674 43.8193L133.688 43.7783L134.864 43.7715L134.85 43.8467C134.549 45.1797 133.558 46.1299 131.787 46.1299Z" fill="#007AFF"/>
<path d="M139.227 46.1299C137.128 46.1299 135.83 44.6807 135.83 42.3223V42.3086C135.83 39.9434 137.128 38.501 139.227 38.501C141.326 38.501 142.625 39.9434 142.625 42.3086V42.3223C142.625 44.6807 141.326 46.1299 139.227 46.1299ZM139.227 45.0771C140.622 45.0771 141.408 44.0586 141.408 42.3223V42.3086C141.408 40.5654 140.622 39.5537 139.227 39.5537C137.833 39.5537 137.046 40.5654 137.046 42.3086V42.3223C137.046 44.0586 137.833 45.0771 139.227 45.0771Z" fill="#007AFF"/>
<path d="M144.062 46V38.6309H145.252V39.752H145.361C145.689 38.959 146.386 38.501 147.35 38.501C148.348 38.501 149.046 39.0273 149.387 39.793H149.497C149.893 39.0137 150.734 38.501 151.753 38.501C153.257 38.501 154.097 39.3623 154.097 40.9072V46H152.908V41.1807C152.908 40.0938 152.409 39.5537 151.37 39.5537C150.344 39.5537 149.668 40.3262 149.668 41.2627V46H148.478V40.9961C148.478 40.1211 147.877 39.5537 146.947 39.5537C145.983 39.5537 145.252 40.3945 145.252 41.4336V46H144.062Z" fill="#007AFF"/>
</svg>
