<?xml version="1.0" encoding="utf-8"?>
<!-- Generator: Adobe Illustrator 28.0.0, SVG Export Plug-In . SVG Version: 6.00 Build 0)  -->
<svg version="1.1"
	 id="Layer_1" xmlns:dc="http://purl.org/dc/elements/1.1/" xmlns:svg="http://www.w3.org/2000/svg" xmlns:sodipodi="http://sodipodi.sourceforge.net/DTD/sodipodi-0.dtd" xmlns:cc="http://creativecommons.org/ns#" xmlns:inkscape="http://www.inkscape.org/namespaces/inkscape" xmlns:rdf="http://www.w3.org/1999/02/22-rdf-syntax-ns#"
	 xmlns="http://www.w3.org/2000/svg" xmlns:xlink="http://www.w3.org/1999/xlink" x="0px" y="0px" viewBox="0 0 640 640"
	 style="enable-background:new 0 0 640 640;" xml:space="preserve">
<style type="text/css">
	.st0{fill:#FFFFFF;}
</style>
<sodipodi:namedview  bordercolor="#666666" borderopacity="1" gridtolerance="10" guidetolerance="10" id="namedview15" inkscape:current-layer="Layer_1" inkscape:cx="410" inkscape:cy="476" inkscape:pageopacity="0" inkscape:pageshadow="2" inkscape:window-height="480" inkscape:window-maximized="0" inkscape:window-width="640" inkscape:window-x="0" inkscape:window-y="0" inkscape:zoom="0.24789916" objecttolerance="10" pagecolor="#ffffff" showgrid="false">
	</sodipodi:namedview>
<g>
	<path class="st0" d="M320,136.4v367.2 M136.4,320h367.2"/>
	<path class="st0" d="M503.6,607.8H447V503.6h-98.9v104.1h-56.5V503.6h-98.8v104.1h-56.5V503.6H32.2v-56.5h104.1v-98.9H32.2v-56.5
		h104.1v-98.8H32.2v-56.5h104.1V32.2h56.5v104.1h98.9V32.2h56.5v104.1h98.9V32.2h56.5v104.1h104.1v56.5H503.6v98.9h104.1v56.5H503.6
		v98.9h104.1v56.5H503.6V607.8z M348.2,447.1H447v-98.9h-98.9v98.9H348.2z M192.9,447.1h98.9v-98.9h-98.9V447.1z M348.2,291.8H447
		v-98.9h-98.9v98.9H348.2z M192.9,291.8h98.9v-98.9h-98.9V291.8z"/>
</g>
</svg>
