<svg xmlns="http://www.w3.org/2000/svg" shape-rendering="geometricPrecision" text-rendering="geometricPrecision" image-rendering="optimizeQuality" fill-rule="evenodd" clip-rule="evenodd" viewBox="0 0 308 511.97"><path fill-rule="nonzero" d="M130.14 401.43a6.549 6.549 0 01-6.58 6.53c-3.61-.01-6.54-2.96-6.52-6.58l.06-12.08c-.38-.2-.75-.44-1.1-.72l-12.68-10.26-17.07-14.03c-3.18-2.62-6.79-4.42-10.18-5.1l-.19-.04c-2.08-.38-4-.32-5.51.29-1.27.52-2.35 1.55-3.08 3.17-.97 2.13-1.42 5.17-1.15 9.23.23 3.62 1.5 7.59 3.17 11.4 2.48 5.62 5.86 10.78 8.33 14.1l50.38 76.22c.59.89.93 1.87 1.04 2.86 1.01 8.22 2.75 14.39 5.33 18.25 1.87 2.81 4.3 4.23 7.32 4.16 25.52 0 53.29-1.08 78.53-.01 4.84-.07 9.27-1.51 13.28-4.27 4.49-3.09 8.58-7.89 12.28-14.36l.96-1.62c9.7-16.75 19.13-33 20.12-52.28l-.5-22.34-.08-1.01.07-5.25c.18-16.37.47-41.45-13.15-43.9h-8.63l-.19-.01c.27 7-.14 14.24-.51 20.8-.22 3.86-.42 7.44-.42 10.8 0 3.64-2.95 6.59-6.58 6.59a6.59 6.59 0 01-6.59-6.59c0-3.06.24-7.13.48-11.52.92-16.31 2.15-38.13-9.24-40.29h-10.28c.51 7.79.04 16.04-.37 23.42-.22 3.86-.42 7.44-.42 10.81a6.585 6.585 0 01-13.17 0c0-3.06.24-7.14.48-11.53.92-16.31 2.15-38.13-9.24-40.29h-8.64c-.48 0-.95-.06-1.4-.15l-.34 33.94a6.556 6.556 0 01-6.61 6.5c-3.62-.03-6.53-2.99-6.5-6.6l.67-72.24c0-11.45-4.68-18.67-10.63-21.69-2.19-1.1-4.55-1.66-6.87-1.66-2.31 0-4.66.55-6.83 1.65-5.91 3-10.52 10.25-10.52 21.98l-.73 123.72zM148.08 92.7c0-2.55.45-4.91 1.35-7.08.89-2.15 2.24-4.12 4.03-5.89 1.79-1.75 3.74-3.09 5.85-3.98 2.12-.89 4.41-1.35 6.85-1.35 2.44 0 4.72.46 6.82 1.35 2.1.89 4.03 2.23 5.79 4 1.75 1.76 3.07 3.72 3.95 5.88.88 2.16 1.32 4.52 1.32 7.07 0 2.48-.44 4.79-1.32 6.94-.87 2.14-2.19 4.13-3.95 5.93-1.75 1.79-3.67 3.15-5.77 4.06-2.11.9-4.38 1.36-6.84 1.36-2.51 0-4.85-.46-6.98-1.35-2.13-.9-4.08-2.24-5.84-4.03-1.75-1.8-3.07-3.77-3.94-5.92-.88-2.15-1.32-4.48-1.32-6.99zm7.97 105.83c-.67 2.36-2 6.99 1.95 6.99.86 0 1.94-.48 3.25-1.43 1.4-1.01 3.02-2.55 4.83-4.6 1.84-2.08 3.75-4.54 5.74-7.37 1.98-2.83 4.06-6.08 6.23-9.7.23-.38.74-.51 1.13-.28l7.34 5.45c.35.26.43.74.2 1.11-3.38 5.87-6.79 11-10.24 15.37-3.48 4.41-7.01 8.06-10.59 10.95l-.05.04c-3.58 2.9-7.24 5.07-10.99 6.53-10.45 4.05-26.96 3.39-31.68-8.8-2.99-7.7-.53-16.46 1.82-23.99l11.85-35.9c.76-2.72 1.72-5.71 2.07-8.52.57-4.67-1.49-7.69-6.58-7.69h-10.36a.83.83 0 01-.82-.82l.04-.29 2.72-9.91c.1-.37.44-.61.8-.6l52.96-1.66c.44-.02.83.33.84.78l-.03.27-22.43 74.07zM154 0c42.52 0 81.02 17.24 108.89 45.11C290.76 72.98 308 111.48 308 154c0 42.52-17.24 81.02-45.11 108.89-17.56 17.56-39.34 30.9-63.69 38.37v-21.12c18.82-6.74 35.68-17.56 49.53-31.41 24.24-24.24 39.24-57.74 39.24-94.73 0-37-15-70.49-39.24-94.73-24.24-24.24-57.74-39.24-94.73-39.24-37 0-70.49 15-94.73 39.24C35.03 83.51 20.03 117 20.03 154c0 36.99 15 70.49 39.24 94.73 11.4 11.4 24.85 20.75 39.74 27.47v21.69c-20.41-7.81-38.73-19.83-53.9-35C17.24 235.02 0 196.52 0 154c0-42.52 17.24-81.02 45.11-108.89C72.98 17.24 111.48 0 154 0zm42.85 411.03c0-2.97 2.41-5.38 5.37-5.38 2.97 0 5.38 2.41 5.38 5.38v35.43c0 2.97-2.41 5.38-5.38 5.38-2.96 0-5.37-2.41-5.37-5.38v-35.43zm31.77 10.85c0-2.96 2.41-5.37 5.37-5.37 2.97 0 5.38 2.41 5.38 5.37v24.58c0 2.97-2.41 5.38-5.38 5.38-2.96 0-5.37-2.41-5.37-5.38v-24.58zM117.2 372.64l.54-94.93c-.03-17.41 7.73-28.64 17.68-33.7 4-2.04 8.39-3.05 12.8-3.04 4.39 0 8.77 1.03 12.78 3.05 10.03 5.08 17.88 16.31 17.88 33.41l-.25 25.5c.41-.08.84-.12 1.27-.12h9.08c.52 0 1.02.06 1.5.17 10.51 1.69 15.93 8.49 18.61 17.42h12.89c.51 0 1.02.06 1.5.17 11.6 1.86 17.01 9.97 19.36 20.29.56-.16 1.14-.24 1.75-.24h9.07c.52 0 1.03.06 1.51.18 24.91 3.98 24.55 36.07 24.31 57-.03 9.67.4 19.31.51 28.98-1.11 22.57-11.33 40.2-21.87 58.37l-.91 1.57c-4.66 8.16-10.08 14.39-16.23 18.63-6.23 4.28-13.13 6.5-20.68 6.58l-78.44.03c-7.83.13-13.9-3.3-18.36-9.98-3.6-5.4-6-12.95-7.28-22.46l-49.13-74.34c-2.9-3.88-6.85-9.95-9.81-16.65-2.22-5.03-3.9-10.49-4.25-15.86-.41-6.34.47-11.47 2.27-15.46 2.24-4.96 5.82-8.2 10.14-9.96 3.96-1.6 8.43-1.87 12.94-1.01l.26.05c5.48 1.08 11.15 3.87 15.98 7.87l22.58 18.48z"/></svg>