<?xml version="1.0" encoding="utf-8"?>
<!-- Generator: Adobe Illustrator 28.0.0, SVG Export Plug-In . SVG Version: 6.00 Build 0)  -->
<svg version="1.1" id="Koons_x5F__x26__x5F_Asterix_x5F_Fine_x5F_Art_x5F_Studio_x5F_SehMichael"
	 xmlns="http://www.w3.org/2000/svg" xmlns:xlink="http://www.w3.org/1999/xlink" x="0px" y="0px" viewBox="0 0 300 300"
	 style="enable-background:new 0 0 300 300;" xml:space="preserve">
<style type="text/css">
	.st0{fill-rule:evenodd;clip-rule:evenodd;}
	.st1{fill:#FFFFFF;}
</style>
<path class="st0" d="M184.5,50c-0.4,5.4,0,9.4,1.5,13.8c0.7,2.1,1.6,4.2,2,4.7s0.7,1.1,0.7,1.4c0,0.7,3.5,4.2,4.2,4.2
	c0.8,0,1.1,1.2,0.6,2.4c-0.3,0.9-0.5,1-1.6,0.8c-0.7-0.1-2.1-0.3-3.3-0.5c-1.9-0.2-2.2-0.3-2.5-1.2c-0.9-2.3-2.3-4.9-3.3-6
	c-0.6-0.6-1.3-2-1.6-3c-1-3-2.8-5.4-5-6.9c-2.9-1.9-3.8-2.2-7.4-2.2c-2.8,0-3.6,0.1-5,0.9c-1,0.5-1.7,0.9-1.6,1
	c0.1,0.1,1.5-0.2,3.1-0.6c3.4-0.9,4.6-0.8,7.7,0.6c2.9,1.3,7.8,6.4,7,7.3c-0.1,0.1-1.2-0.4-2.5-1c-3.3-1.6-5.3-1.7-8.4-0.5
	c-1.4,0.5-2.9,1.4-3.3,1.9c-1,1-0.7,1.7,0.3,0.8c2.6-2.2,7.9-2.9,10.8-1.3c2.3,1.2,3.8,2.4,4.7,3.9c0.4,0.7,0.9,1.4,1,1.5
	c0.6,0.4,2.2,4.5,2.1,5.2c-0.1,0.5-0.8,1.1-2.1,1.8c-2.4,1.2-2.6,1.2-3.2,0.3c-0.6-1-1.6-0.9-2.7,0.3c-2.1,2.3-2.7,4.7-2.1,9
	c0.4,2.8,0.4,2.9-0.8,5.1c-1.8,3.5-4.5,7.3-6.1,8.4l-1.5,1.1l-1.8-1.1c-2.8-1.8-5.9-2.6-9.5-2.6c-2.9,0-3.4,0.1-5.8,1.3
	c-2.9,1.4-5.6,3.5-7.5,5.6c-1,1.1-1.2,1.6-1.2,3.2c0,1.7-0.1,1.9-0.8,1.7c-0.4-0.1-0.9-0.5-1-0.9s-0.4-0.7-0.7-0.7
	c-0.4,0-0.4,0.2-0.1,0.8c0.2,0.5,0.4,1.8,0.3,3.1c-0.1,1.3-0.1,2.3,0.1,2.3c0.1,0,0.2-0.4,0.3-1c0.1-1.4,0.4-1.6,0.4-0.3
	c0,0.6-0.2,1.4-0.5,1.8c-0.4,0.5-0.5,1.6-0.6,3.5c0,2-0.1,2.6-0.4,2.2c-0.3-0.4-0.3-0.3-0.1,0.4c0.1,0.5,0.2,2.1,0.2,3.6
	s0.1,3.3,0.4,3.9c0.3,0.9,0.3,1.5,0,2.6c-0.4,1.2-0.3,1.5,0.5,3c0.5,0.9,1.1,1.6,1.4,1.6c0.6,0,2.8,1.8,2.8,2.2c0,0.2-0.9-0.3-2.1-1
	s-2.5-1.5-2.9-1.8c-0.5-0.2-0.8-0.7-0.8-1.3c0-0.5-0.1-0.8-0.3-0.6c-0.1,0.1-0.2,0.9-0.2,1.7c0.1,1.6-1.4,4-4.3,7.1l-1.7,1.7
	l0.6,1.2c0.7,1.3,1.1,2,2.3,4c0.5,0.7,0.8,1.6,0.8,2c0,0.9-1.7,3.6-3.3,5.2c-1.1,1.1-4.4,7-4.4,7.8c0,0.2,0.4,1.3,0.9,2.4
	c0.5,1.1,0.9,2.2,0.9,2.3c0,0.3,2.3,2.2,2.7,2.2c0.5,0,0.2-0.7-0.6-1.5c-1-1-2.1-4.8-1.8-6.2c0.3-1.1,1.8-3,2.1-2.7
	c0.1,0.1,0.2,0,0.2-0.2s-0.2-0.4-0.4-0.4c-0.7,0-0.3-0.7,1.5-2.9c2.1-2.5,1.8-2.5,4.8,0.5l1.5,1.5l-0.8-1.4
	c-0.4-0.8-1.3-1.6-1.8-1.9c-1.5-0.8-1.6-1.1-0.7-2.5c1.1-1.8,0.8-3.5-1.1-6.5l-1.5-2.5l2.3-2.8c1.2-1.5,2.4-2.8,2.6-2.8
	c0.2,0,0.2-0.5,0.1-1.1c-0.5-2.3,2.4-0.8,7,3.8c5,5,5.9,6.7,5.8,11.6c0,1.5-0.1,1.9-0.4,1.5c-0.3-0.4-0.3,0-0.1,1.3
	c0.9,5.4,0.1,10-2.1,12.1l-1.1,1l-1.1-1.6c-0.6-0.9-1.6-2.1-2.3-2.7c-1-0.9-0.8-0.6,0.6,1.2c1,1.3,1.9,2.4,2.1,2.5
	c0.6,0.4,0.3,1.6-0.8,3.6c-1.2,2.1-1.3,3.8-0.3,4.2c0.3,0.2,1.7,0.8,3,1.5c1.4,0.7,2.9,1.5,3.4,2c0.5,0.4,1.2,1,1.6,1.2
	c0.6,0.4,0.6,0.4-0.1,0.2c-0.5-0.2-0.6-0.1-0.2,0.2c0.3,0.2,0.4,0.6,0.2,0.9c-0.3,0.4-0.2,0.4,0.3,0c0.8-0.6,1.9-0.3,1.6,0.5
	c-0.1,0.3-0.1,0.5,0.1,0.3c0.2-0.1,0.7,0,1.1,0.2c0.7,0.4,0.7,0.5,0.2,0.9s-0.5,0.4,0.2,0.5c0.5,0,1.1,0.1,1.4,0.2
	c0.8,0.1,3.3,2.8,3.1,3.2c-0.1,0.2,0.1,0.3,0.4,0.3c0.6,0,0.6,0.1-0.1,0.8c-0.4,0.5-0.5,0.6-0.2,0.4c0.3-0.3,0.8-0.5,1.2-0.5
	c0.7,0,2.3,1.9,3.5,4c0.4,0.7,0.8,1.4,0.9,1.5c0.1,0.1,0.6,0.8,1.1,1.6s1.1,1.4,1.3,1.4s0.1,0.2-0.2,0.4c-0.4,0.2-0.4,0.4-0.1,0.4
	c0.3,0,0.5,0.5,0.5,1c0,0.6,0.1,0.8,0.2,0.5c0.2-0.6,1.9,2,1.9,2.9c0,0.3-0.4,1-1,1.5c-0.5,0.5-0.8,0.7-0.7,0.4
	c0.2-0.4,0.2-0.4-0.1-0.2c-0.2,0.2-0.4,0.4-0.2,0.5c0.1,0.1-0.1,0.6-0.5,1l-0.8,0.8l-1.1-1.1c-0.6-0.6-1.3-1.1-1.5-1.1
	c-0.3,0-1.5,1.1-2.8,2.5c-1.7,1.8-2.3,2.7-2.3,3.5c0,1-0.1,1-1.3,0.9s-1.3,0-1.8,1.3c-0.3,0.8-0.8,1.7-1.2,1.9
	c-0.6,0.4-0.7,0.4-0.8-0.9c-0.2-1.2-0.2-1.3-0.5-0.6c-0.2,0.5-0.2,1,0,1.2c0.1,0.2,0,1.1-0.2,2c-0.3,1.2-0.4,1.9-0.1,2.5
	c0.4,0.8,0.2,1-3,3.6c-5,4-5.8,4.8-8.2,9.1c-1.9,3.3-2.2,4.2-2.3,6.1c-0.1,1.3,0,2.9,0.1,3.6c0.4,2.1,2.9,5.4,5.5,7.3l2.4,1.8
	l-0.7,1c-1,1.3-0.9,1.5,0.3,1.5c1,0,1.3-0.4,2-2.6c0.1-0.3,0.7-0.7,1.2-0.9c0.6-0.1,1.6-0.7,2.2-1.2c1.8-1.3,5.6-3.3,7.1-3.6
	c0.7-0.1,1.7-0.5,2.1-0.8c0.9-0.6,1.5-0.4,1.5,0.4c0,1.9,4.6,4.6,10.5,6.2c4,1,4.9,1.1,12,1.3c5.8,0.1,7.9,0.3,8.4,0.7
	c0.4,0.3,1.6,0.5,2.9,0.5c1.9,0,2.4-0.2,3.9-1.3c1.6-1.2,1.8-1.2,2.3-0.7s0.9,0.6,3.2,0.2c2.1-0.3,2.8-0.3,3.9,0.1
	c2.3,1,6.4-0.2,8-2.3c0.9-1.2,1.1-1.2,2.5-1c1.3,0.2,2,0,4.5-1.3c1.6-0.8,3.4-2,4-2.6s1.4-1.1,1.7-1.1c0.3,0,1.1-0.3,1.8-0.6
	c1-0.5,1.4-0.5,2.6-0.2c0.8,0.2,2,0.4,2.7,0.4c1.5,0,5.5,1.5,7.6,2.8c1.4,0.9,2.5,2.2,2.5,2.9c0,0.8-3.3,2-6.9,2.5
	c-2.6,0.4-3.7,0.7-4.3,1.3c-0.9,0.9-1.1,0.9,4,0.2c5.7-0.7,9-2,9-3.6c0-3.3-5.3-6.8-11.7-7.6c-2.7-0.4-3.2-0.8-3.5-3.3
	c-0.2-1.7-2.4-9-3.2-10.5c-0.3-0.6-0.2-1.1,0.9-2.4c0.7-0.9,2.3-3.6,3.6-6.1l2.3-4.5h1.4c1.7,0,5.4-1.2,7.2-2.3
	c2.3-1.4,4.5-5.5,4.5-8.3c0-3.1-2.3-6.8-5.6-9c-2.6-1.7-4.8-2.2-7.5-1.5c-2.7,0.6-3.4,1-4.8,2.6c-2.2,2.5-2.7,4-2.8,8.2
	c-0.1,3.5-0.2,3.9-1.1,5.3c-0.6,0.8-1.5,2.2-2,3.1c-1.5,2.5-3,4.2-3.7,4.2c-0.4,0-1.1-0.7-1.6-1.5c-0.9-1.4-1-1.6-1-7.4
	c0-8-1.5-17.2-3.7-23c-0.4-1.1-1-2.6-1.3-3.4c-0.9-2.5-3.3-5.6-5.5-7c-1.1-0.7-2-1.5-2-1.7s0.3-1.5,0.7-3c0.4-1.5,0.7-3.4,0.7-4.3
	c0-2.8,0.6-3.9,2.7-5.1c1.1-0.6,2.2-1.4,2.6-1.8c0.9-0.9,1.4-0.9,2.6,0.1c1.5,1.2,5,2.5,6.9,2.5c0.9,0,2.5-0.3,3.5-0.7
	c1.1-0.4,2.2-0.7,2.6-0.7c1,0-0.8,2.1-3.7,4.3c-1.3,1-2.3,1.9-2.3,2.1c0,0.4,4.9-2.6,5.3-3.3c1.2-2,2.9-3.2,6.1-4.6
	c6.1-2.6,8.8-4.5,9.4-6.7c0.3-1.1,0.7-1.2,1-0.2c0.4,1.6,2.7,0.5,4.6-2.3c2.3-3.4,2.8-5.2,2.8-9.6c0-3.4-0.1-4.3-0.8-5.9
	c-1.3-2.9-3.1-4.8-5-5.3s-2.5-1.1-3.4-3.1c-1-2.3-3.6-5.4-5.8-6.7c-2.6-1.6-6-2.6-8.5-2.6h-2l0.5-1.2c0.3-0.7,0.7-2.3,0.9-3.7
	l0.4-2.5l1,1.4c1.7,2.3,4.2,3.7,6.7,3.7c0.9,0,1.2,0.2,2,2.1c2.5,5.4,5,7.3,10.5,7.7c1.6,0.1,2.9,0.4,3,0.6c0.4,1.8,1.7,5,3.1,7.9
	c1.3,2.7,2.2,4,4.1,5.9c2.1,2.1,2.7,2.5,4.2,2.8l1.8,0.3l0.9,2.8c3.3,9.8,5.5,12.6,11,14c2.3,0.5,2.8,1,3.3,3.1
	c0.4,1.6,1.6,4.7,2.9,7.7c1.9,4.3,6,9.3,7.6,9.3c2,0,4-1.9,4.7-4.6c0.6-2.2,0.7-8.5,0.1-11.3c-0.4-2.2-1.6-6.9-2.4-9.8
	c-0.3-1.1-1-3.5-1.4-5.3c-0.8-3.1-1.5-5.6-2.4-8.1c-0.2-0.6-0.5-1.6-0.7-2.2c-0.8-3-4.6-13-5.2-13.6c-0.2-0.2-0.3-0.6-0.3-0.9
	c0-0.8-7.8-16.3-10-19.9c-1.1-1.7-2.4-3.9-3-4.9s-1.3-2-1.5-2.2c-0.2-0.2-0.8-1.2-1.4-2.1c-1.2-1.9-6-8.1-6.6-8.6
	c-0.2-0.2-1.1-1.2-1.8-2.1c-1.9-2.4-6.5-6-9.2-7.3c-3.7-1.7-7.1-1.4-12.2,1.3c-1.1,0.5-2.1,1-2.3,1c-0.2,0-0.9-1.1-1.5-2.5
	c-2.6-5.7-5.5-8.5-8.9-8.5c-2.2,0-4.2,1-5.8,3c-0.9,1.2-1.1,1.7-1.1,3.7c0,1.3,0.1,2.8,0.2,3.3l0.3,1l-2.1-1.3
	c-2.3-1.4-6.6-3.1-9.4-3.9c-1-0.2-1.7-0.6-1.7-0.7c0-0.1,0.4-0.8,0.9-1.5c1.9-2.6,2.7-4.6,2.7-7c0-1.7-0.2-2.5-0.7-3.2
	c-1.1-1.4-0.9-2.3,1.1-4.3c1.7-1.7,2.9-3.6,4.2-6.9c0.8-2,0.7-2.8-0.2-2.8c-0.4,0-0.7,0.2-0.7,0.6c0,0.8-1.9,4.5-3.2,6.5
	c-1.4,2.1-3.4,3.9-4.5,4.1c-1.5,0.4-2.7,2-3.6,4.6c-0.5,1.6-1.2,2.8-2,3.6c-2.1,2-1.3,3.1,0.9,1.4c1.6-1.2,2.9-3.4,3.2-5.3
	c0.2-1.3,0.4-1.7,1.2-2c1.4-0.5,2-0.2,2.3,1.1c0.6,2.9-1.2,7.4-3.9,9.8c-3.4,3-9.6,4.3-11.2,2.4c-0.3-0.4-1.1-1-1.7-1.3
	c-1.9-0.9-3.1-2.9-5.3-8.3c-0.7-1.7-0.8-2.8-0.9-6.8c0-2.6,0.1-6.1,0.2-7.6l0.3-2.8h-1.4h-1.4L184.5,50 M206.1,49
	c-0.9,3.3-2.1,5.5-3.9,7.5c-0.8,0.9-1.5,1.9-1.5,2.1c0,0.9,1.6,0.3,2.9-1.1c3.1-3.3,5.7-11,3.8-11C206.9,46.5,206.6,47.1,206.1,49
	 M108,69c-4.5,1.3-7,2.2-8.3,2.8c-2.7,1.4-5.2,3.1-6.6,4.5c-0.8,0.8-1.5,1.4-1.7,1.4c-0.5,0-4.3,5.4-5.4,7.5c-1,1.9-1.4,3.5-2.2,8.7
	c-0.1,0.8,0,2,0.4,2.9c0.3,0.9,0.7,3.1,0.8,4.8c0.2,3,0.2,3.3-0.6,4.1c-0.6,0.7-0.8,1.3-0.8,3.6c0,2.4,0.1,3.2,1.3,5.9
	c0.7,1.7,1.3,3.3,1.3,3.5c0,0.6,1.6,3.7,2.5,4.8c0.4,0.5,0.9,0.8,1.1,0.7c0.2-0.1-0.2-1.1-1.1-2.3c-0.8-1.2-1.4-2.2-1.3-2.4
	c0.1-0.1,0.4,0,0.7,0.3c0.8,1,1.7,1.5,3,1.8c1.8,0.4,1.4-0.6-0.4-1.1c-2.9-0.8-4.7-4.4-4.4-8.8c0.2-3.4,0.6-3.8,2.4-2.2
	c1.3,1.2,1.3,1.2,1.1,0.3c-0.3-1.2-3.3-4-4.2-4c-0.7,0-0.7,0-0.1-0.7c0.9-1,1.2-0.9,2.8,0.6c0.8,0.7,1.6,1.3,1.9,1.3
	c0.3,0,0.6,0.2,0.7,0.5c0.1,0.3,0.2,0.1,0.2-0.4s-0.1-0.7-0.4-0.6c-0.3,0.1-0.6-0.2-0.9-0.7c-0.3-0.7-0.3-0.9,0.2-1.2
	c0.8-0.5,0.8-1.5,0.1-1.4c-0.3,0-0.7,0.5-1,0.9c-0.5,0.9-1.1,0.5-0.7-0.5c0.1-0.3,0-0.6-0.2-0.6c-0.7,0-0.4-1.7,0.7-4.8
	c1.6-4.4,3.8-8,5.1-8.4c0.2-0.1,0.5-0.6,0.5-1.3c0-0.6,0.2-1.4,0.5-1.6c0.5-0.6,0.9-2.2,0.6-2.2c-0.8,0-4.1,2.8-4.1,3.6
	c0,0.3,0.6-0.2,1.4-1s1.6-1.5,1.9-1.5c0.3,0-0.1,0.5-0.8,1.2c-0.7,0.7-1.6,1.9-2,2.7s-0.8,1.5-1,1.5s-0.2,0.2-0.1,0.5
	c0.1,0.3,0,0.6-0.3,0.7c-0.3,0.1-0.5,0.6-0.5,1.2c0,0.5-0.2,0.9-0.4,0.7c-0.2-0.1-0.5,0.2-0.6,0.8s-0.4,1.4-0.6,1.8
	c-0.2,0.5-0.3,0.5-0.2,0.1c0.1-0.4,0-0.6-0.1-0.6c-0.2,0-0.4,1.3-0.6,2.8c-0.3,3.4-0.7,4.4-1.2,2.8c-0.3-1.3-0.3-3.7,0-6
	c0.2-1.6,0.2-1.6-0.2-0.4c-0.3,0.8-0.5,1.1-0.6,0.7c-0.1-0.3,0.3-1.8,0.9-3.3c0.6-1.5,1.2-3.2,1.3-3.8c0.2-1.4,2.4-5,2.9-4.7
	c0.2,0.1,0.6-0.4,0.9-1.2c0.3-0.8,1.3-2.1,2.1-3c0.8-0.9,1.1-1.3,0.6-0.9c-0.5,0.4-1.2,0.9-1.5,1c-0.3,0.1-1,0.9-1.4,1.7
	S90,84,89.3,84.5c-1.9,1.2-2.2,1.7-2.5,3.8c-0.2,1.3-0.1,1.7,0.2,1.2c0.7-1,0.4,0.2-0.6,2.4c-0.5,1.2-1.1,2.6-1.2,3.3l-0.3,1.1V95
	c0-0.7,0.3-1.8,0.7-2.3c0.6-0.9,0.6-1.2,0.3-2.1c-0.6-1.6,0.5-4.7,2.2-6.4c0.8-0.8,1.4-1.2,1.6-0.9c0.2,0.4,1.5-2.3,1.5-3.2
	c0-0.2,0.2-0.7,0.5-1.1c0.5-0.7,0.5-0.7,0.3,0.2c-0.2,0.9-0.1,0.8,1.5-0.5c1-0.8,2.1-1.4,2.6-1.4c0.7,0,0.9-0.1,0.7-0.7
	c-0.1-0.4,0.1-1,0.7-1.6c2.4-2.4,2,0.6-0.5,3.4c-4.2,5-4.2,4.9-2.2,3.9c1.9-1,2-0.4,0.1,0.7c-1.7,1-2.7,1.9-2.7,2.5
	c0,0.1,0.6-0.1,1.3-0.6s1.9-1.1,2.7-1.3c0.7-0.2,1.7-0.9,2.2-1.5c0.9-1.1,0.9-1.1,0.1-0.7c-1.5,0.8-0.8-0.3,1.2-1.9
	c1.2-1,2.7-1.8,3.7-2c0.9-0.2,1.7-0.6,1.7-0.7c0-0.5,3.2-0.8,4.5-0.5c0.6,0.2,2.5,0.4,4.1,0.5s5,0.5,7.5,0.8c2.5,0.3,5,0.5,5.6,0.4
	c2.1-0.4,6.5,3.6,8.2,7.5c2,4.6,2.9,8.6,4,18c0.3,2.6,0.6,3.7,0.9,3.7c0.4,0,0.4-12.2,0.1-16.3c-0.2-2.7-0.5-3.8-1.8-6.4
	c-0.8-1.7-1.9-3.6-2.4-4.3c-0.5-0.6-1.3-1.9-1.7-2.8c-0.4-0.9-1.2-2-1.9-2.5s-1.3-1-1.3-1.1c-0.1-0.2-0.3-0.3-0.5-0.3
	s-1.1-0.5-1.9-1.1C124.7,69.7,112.2,67.7,108,69 M116.3,69.9c1.6,0.2,1.9,0.3,1.5,0.7c-0.2,0.3-0.6,0.5-0.9,0.5
	c-1.1,0-6.4,1.9-7,2.6c-0.7,0.8-1.3,0.9-1.2,0.2c0-0.7,1.7-1.8,4.1-2.5c1.8-0.5,2-0.7,1.1-0.7c-2.3-0.1-9.4,2.9-12.2,5.1
	c-0.5,0.4-1,0.6-1.2,0.5c-0.2-0.1-0.5,0-0.8,0.2c-0.3,0.3-0.4,0.1-0.4-0.7c0-0.6,0.1-1,0.1-0.9c0.1,0.1,0.4-0.2,0.8-0.7
	c0.8-1,1.2-0.7,0.7,0.7c-0.2,0.6-0.3,1.1-0.2,1.2s0.3-0.1,0.5-0.5c0.4-1,2.2-3,2.7-3c0.2,0,0.9-0.4,1.5-0.8
	C107.6,70.1,112.1,69.4,116.3,69.9 M230.4,70.3c2.4,1.2,4.1,3.4,5.6,7.5l0.8,2l-1.4,2.3c-3.3,5.5-4.2,5.6-8.5,1.3
	c-3.4-3.4-4.5-5.4-4.5-8.2c0-2.4,1-4,3-5C227.4,69.5,228.7,69.4,230.4,70.3 M121.9,71.5c-0.9,0.1-2,0.4-2.4,0.7
	c-0.7,0.4-0.7,0.5,0.2,0.2c0.5-0.1,2-0.3,3.3-0.4c2.2-0.2,2.3-0.1,1.5,0.4l-0.9,0.5l1,0.3c0.6,0.1,1.4,0.2,1.8,0.1
	c0.7-0.2,5.4,1.8,5,2.1c-0.3,0.2-4.6-0.6-7.1-1.3c-2.4-0.7-2.8-0.7-5.5-0.3c-1.6,0.2-3.6,0.7-4.3,0.9c-1.4,0.5-3.2,0.4-3.2-0.2
	c0-0.5,3.6-2.2,5.5-2.5c0.9-0.2,2.4-0.5,3.2-0.6c0.8-0.2,2-0.2,2.6-0.1C123.4,71.2,123.4,71.3,121.9,71.5 M211.8,75.7
	c7,2.8,13.2,8.2,15.9,13.9l1.6,3.3l-1.5,0.3c-1,0.2-1.9,0.8-2.8,1.7c-1.7,1.7-2.1,2.6-2.9,5.7c-0.6,2.3-0.6,2.7,0,5.5
	c0.8,3.9,1.4,4.8,3.6,4.9c1.3,0.1,2.1-0.1,3.4-0.9l1.7-1l-0.3,0.9c-0.4,1.3-1.6,3.6-2.7,5.3c-1.2,1.7-4.1,4-4.5,3.6
	c-0.2-0.2-0.5-2.2-0.9-4.6c-0.3-2.3-1-5.9-1.5-7.9s-1.1-4.3-1.3-5.1c-0.5-2.1-3-7.1-4.8-9.6s-3.3-3.9-6-5.6
	c-1.9-1.2-2.7-2.1-3.2-3.7c-0.7-2.4-4.9-7-6.2-7c-1.2,0-0.4-0.3,1.6-0.7C204.4,74.2,209.2,74.6,211.8,75.7 M200.6,78.2
	c2,2.1,4.4,6,4,6.4c-0.1,0.1-1-0.4-2.1-1.1c-1.7-1.1-2.9-1.6-6.5-2.2c-1-0.2-1.2-0.4-1.4-1.6c-0.1-0.8,0-1.9,0.2-2.5
	c0.4-1,0.5-1.1,2-1.1C198.3,75.9,198.6,76,200.6,78.2 M253.5,78.7c1.4,0.9,3.3,2.4,4.8,4.1c1.3,1.5,3.6,4,5,5.5
	c3.1,3.3,4.6,5.4,10.4,14.5c4.6,7.1,11.8,20.6,14.6,27.5c0.4,1,1.3,3.7,1.9,6.1c1.4,5.3,3.3,12.5,4.4,16.3c2.3,8.3,2.6,9.9,2.6,15.8
	c0,4.7-0.1,5.9-0.6,6.7c-1.1,1.9-2.1,1.7-4.2-0.7c-1.5-1.7-2.8-4.3-4.1-7.9c-1.6-4.4-3.7-11-4.7-14.7c-0.3-1.2-0.9-3.5-1.3-5.1
	c-0.4-1.6-1-3.9-1.3-5.1c-2.2-8.7-5.7-19.1-6.8-20.8l-0.6-0.9v0.8c0,0.4,0.2,1.5,0.5,2.4s1,3.1,1.5,5.1c0.6,1.9,1.3,4.5,1.7,5.7
	c0.4,1.2,0.9,3.4,1.3,4.8c0.3,1.4,0.9,3.7,1.3,5.1s0.9,4,1.3,5.7c0.3,1.7,0.8,3.8,1,4.7c0.4,1.9,0.1,2.4-1.4,2.1
	c-2.6-0.6-5.3-4-7.7-9.7c-1.9-4.5-2.9-8-3.2-11.1l-0.2-2.5h2c1.6,0,2.1-0.1,2.4-0.7c0.7-1.2,0.4-1.5-1.2-1.5c-2.2,0-4.6-2.1-7.7-6.8
	c-3.6-5.5-4.7-7.9-6.2-13l-0.7-2.4v2.4c0,2.6,1,6.1,2.8,9.6c0.6,1.1,1.3,2.7,1.7,3.6c0.6,1.4,1.8,3.1,4.8,6.8
	c0.6,0.8,0.7,1.5,0.7,4.1c0,3.2,0,3.2-1,3.3c-0.8,0.1-1.4-0.3-3.1-2c-2.6-2.6-2.7-2.7-3.9-5c-1.7-3.4-2.2-4.5-4.7-11.7
	c-0.6-1.8-1.3-3.4-1.4-3.5s-0.1,1,0,2.5c0.2,2.6,0.2,2.7-0.7,3c-2.4,0.9-5,0.1-7.3-2.1c-2.7-2.6-3.6-4.3-4.1-7l-0.4-2.4l-0.5,1.1
	c-0.4,0.9-0.8,1.1-2.1,1.2c-0.8,0.1-2-0.1-2.6-0.4c-1.4-0.7-3.4-2.7-3.4-3.3c0-0.3-0.4-1-0.9-1.7c-0.8-1-0.9-1.1-0.9-0.5
	c0,0.9-0.9,1.8-2.7,2.5c-1.9,0.8-2.3,0.7-3.6-0.5c-1.2-1.1-1.2-1.1-1.2-4.7c0-3.8,0.3-4.8,2.2-7.4c1.3-1.7,3-1.7,4.4,0.1
	c0.7,0.9,1.1,1.2,1.2,0.8c0.8-2.5,4.6-10.1,6.5-13c1.8-2.7,5.1-6,5.9-6c0.2,0,0.6-0.2,0.8-0.6c0.3-0.4,1.2-0.6,3.4-0.6
	C251,77.3,251.3,77.4,253.5,78.7 M193.2,81.6c0.1,0.6,0.5,0.8,2.1,1c2.8,0.3,5.9,1.6,7.5,3.1c2.2,2,3.8,6,4.1,10
	c0.2,2.9,0.3,3.1,0.7,2.1c0.6-1.4,0.5-5.9-0.1-8.3c-0.6-2.4-0.7-2.9-0.2-2.9c0.7,0,6.1,6,7.5,8.2c1.3,2.2,1.9,4.7,1,4.7
	s-3.6,3.5-4.3,5.6c-1.2,3.6-1.8,10-1.2,14.1c0.3,1.9,0.6,3.4,0.7,3.4c0.3,0,1.1-1.7,1.1-2.5c0-1.1,1-4.2,1.7-5
	c0.6-0.7,0.6-0.7,0.4,0c-0.1,0.4-0.5,2.4-0.8,4.4c-0.6,4.1-0.4,7,1,11.6c1.2,4,1.3,4.1,1.6,1.7c0.6-5.1,5.4-11.7,9.4-12.7
	c5.8-1.5,9.9-1.5,13.3,0c2.8,1.2,3.9,2.4,5.7,6.2c1.5,3.2,1.7,3.8,1.8,6.6c0.2,4.7,0,5.2-3,8.2c-4.3,4.3-9.5,6.5-16.1,6.8
	c-3.5,0.2-4.1,0.1-5.4-0.6c-2.3-1.2-2.7-1.1-2.4,0.8c0.3,2-0.2,3.5-2.1,6.8c-1.5,2.6-4.1,5.3-4.8,5c-0.4-0.1-0.9-1.6-2.4-8.1
	c-1.1-4.7-2.9-8.4-5.2-11c-2.7-3-2.7-3.1-1.3-3.4c0.7-0.1,1.8-0.6,2.5-0.9c0.7-0.4,1.6-0.7,1.9-0.7c0.6,0,0.6,0.2,0.4,1.5
	c-0.4,2.3,0.6,1.7,1.5-0.9c0.7-2.1,0.7-2.2,0-3.4c-0.7-1.3-2.2-2.3-3.4-2.3c-1.1,0-1.2,1-0.2,1.6c1.5,1,1.2,1.9-0.8,2.5
	c-1,0.3-2.2,0.7-2.8,0.8c-0.6,0.1-1.5,0.6-2,1c-0.8,0.6-1.4,0.7-3,0.6c-1.7-0.1-2,0-2.1,0.6c-0.1,0.7-0.1,0.7,0.6,0.1
	c0.4-0.4,0.9-0.6,1-0.6c0.6,0-9.2,9.3-10.6,10c-2,1-2.7,1.7-2.8,2.6c0,0.7-2.5,5.5-2.6,4.8c0-0.4-1.1,0.5-1.5,1.3
	c-0.3,0.5,0.1,0.3,1.3-0.5c3.4-2.5,4.5-3.3,6.7-4.7c1.2-0.8,2.6-1.5,3.1-1.7c0.5-0.1,2.8-1.2,5.1-2.2c4.5-2.1,5.9-2.5,6.1-1.7
	c0.1,0.3,0,0.4-0.3,0.2c-0.3-0.2-0.4-0.1-0.3,0.3c0.3,0.8-0.6,1.4-1.7,1.2c-0.8-0.2-1-0.1-1.2,0.7c-0.3,1.2-1.5,2.1-5.6,4.4
	c-2.7,1.5-3.2,1.7-3.8,1.3c-0.6-0.4-0.9-0.3-1.8,0.7c-0.6,0.6-1,1.2-0.9,1.3c0.3,0.3,1.8-0.6,1.6-1c-0.1-0.2-0.1-0.5,0-0.7
	c0.3-0.6,1.3,0.3,1.3,1.2c0,0.4,0.1,0.7,0.2,0.7c0.3,0,2.4-1.1,3.5-1.8c0.5-0.3,1.6-1,2.4-1.5c7.3-4.6,7.5-4.8,7.5-6.6
	c0-2.3-1.7-2.3-6.8,0.3c-2.2,1.1-4.3,2-4.6,2c-0.8,0-3.4,1.3-4,2c-0.6,0.7-2.6,0.8-2.6,0.1c0-0.3,0.9-1,1.9-1.5
	c1.1-0.6,3.8-2.9,6.1-5.1c4.9-4.7,6.1-5.7,7-5.7c0.7,0,2.8,2.8,4.3,6c0.4,0.8,0.9,1.8,1.1,2.1c1.4,2.3,2.4,6,3.1,11.2
	c0.9,6.6,0.6,11.6-1.1,17.2c-0.6,2-3.3,7.5-3.8,7.9c-0.1,0.1-0.4,0.5-0.6,0.9c-0.3,0.6-0.3,0.5-0.4-0.7c-0.2-3.3-1.7-7.9-4.2-12.9
	c-1-2.1-2-4-2.3-4.2c-0.2-0.3-0.8-1.1-1.3-1.9c-1.2-2-5.5-6.4-6.2-6.4c-0.3,0-0.9,0.2-1.2,0.5c-0.6,0.4-0.5,0.6,0.7,1.7
	c1.6,1.5,6,6.8,6,7.1c0,0.1,0.5,0.9,1.1,1.8c1.5,2.2,4.1,7.8,4.2,9.2c0.1,1-0.1,1.3-1.7,2.4c-5.3,3.5-11.2,4.7-15.3,3.1
	c-3.7-1.5-7.2-3.4-9-5s-2.7-1.8-2.7-0.5c0,0.7,1.8,2.3,4.5,4.1l1.4,0.9l-0.8,0.5c-0.5,0.3-1.3,0.7-1.9,1c-0.6,0.3-1.4,1-1.7,1.7
	c-0.3,0.6-1.4,2.4-2.5,3.9c-1,1.5-2,3.2-2.1,3.8l-0.2,1l-1.3-1.6c-5-6-12.4-12-18.1-14.7c-2.8-1.3-2.8-1.3-0.7-4.8
	c1.8-2.9,2.5-3.2,6-2.1c5.1,1.6,14.2,6.8,16,9.2c0.6,0.8,1.6,1.7,2.2,2c1,0.5,1.1,0.5,0.6,0c-0.3-0.3-0.9-0.7-1.3-0.9
	c-0.6-0.2-1-0.9-1.3-2.1c-0.3-1-0.7-1.8-1-1.8s-1.3-0.5-2.3-1.1c-5.3-3.2-11.2-6.1-12.4-6.1c-0.5,0-1-0.2-1.1-0.4s-0.7-0.3-1.4-0.1
	c-1,0.2-1.1,0.2-0.9-0.5c0.7-1.7,0.9-3.6,1.1-11.4c0.2-8,0.3-8.4,1.1-9.5c1-1.3,0.9-1.5-1.9-3.1c-3.6-2.1-9-8.2-10.8-12.4
	c-0.9-2.1-1-6.7-0.2-10.7c0.3-1.4,0.7-4.2,0.8-6.1c0.2-2.2,0.5-4.2,0.9-5.1c1-2.2,5.2-6.6,7.4-7.8c1.7-0.9,2.3-1,5.4-1
	c3.4,0,3.6,0.1,7,1.7c7.7,3.8,11.9,6.2,15.2,8.9c2.6,2.1,6.1,2.1,8.3,0c1.9-1.9,2.5-2.7,3.1-4.4c1.1-3.2,0.4-10.3-1.5-13.5l-1-1.7
	l-1.3,0.7c-2.1,1.2-4,3.7-4.9,6.4c-1,3-1,4.7-0.1,8.3c0.4,1.5,0.7,3,0.7,3.2c0,0.6-3.3-1.2-5.9-3.1c-1.9-1.4-2.2-2.3-1.3-3.6
	c0.7-1.1,1-2.2,1.3-5.7c0.3-3.2,1.5-6,2.5-5.7c0.3,0.1,0.5-0.5,0.5-2.2c0-3.4,1.1-5.3,3.2-5.3c0.4,0,1-0.2,1.3-0.5
	c0.6-0.4,0.6-0.6,0.1-1.5c-0.7-1.4-0.7-1.8,0.3-2.7c1.3-1.2,3.9-2,7.8-2.2l3.7-0.2l0.1,1.1C193,80.3,193.1,81.2,193.2,81.6
	 M193.8,92c-2.6,2.7-3.7,6.2-3.7,12c0,3.3,0.2,4.8,0.7,6.5c0.4,1.2,1,3.2,1.3,4.4c0.5,1.7,1,2.5,2.2,3.8l1.6,1.6l-0.9,1.1
	c-0.5,0.6-0.9,1.5-0.9,1.9s-0.6,1.9-1.3,3.3l-1.2,2.5l0.5,2.2c0.4,1.9,0.4,2.4,0,3.2c-0.6,1.2-2.4,2.9-4.6,4.4c-0.9,0.6-2.5,2-3.5,3
	c-1.9,1.9-3.5,2.6-4.4,1.9c-0.3-0.2-0.5-0.6-0.5-0.8c0-0.2,1.6-2.1,3.6-4.3c4.5-5,7.9-9.4,7.7-10c-0.2-0.5-0.7,0-4.1,4.2
	c-2.3,2.9-2.6,3.1-3.1,2.6c-0.6-0.5-0.6-0.5-0.5,0.5c0.1,0.8-0.1,1.2-0.7,1.6c-1.2,0.8-1.6,0.8-3.1-0.6c-0.8-0.7-1.2-0.9-1.1-0.6
	c0.6,1.1,1.5,1.9,2.3,2.2l0.8,0.3l-1.3,1.6c-0.7,0.9-1.5,2.2-1.6,2.8c-0.2,0.7-0.4,1.5-0.6,1.9l-0.3,0.7l0.8-0.7l0.8-0.7l-0.8,1.4
	c-0.4,0.8-0.7,1.4-0.5,1.4s1.9-1,3.9-2.3c2.1-1.4,3.6-2.2,3.7-1.9c0.1,0.2,0.2,0.1,0.1-0.3c-0.1-1,0.7-2.1,2.7-3.3
	c0.9-0.6,2-1.4,2.5-1.9s1.7-1.4,2.7-2.2c1.9-1.4,2.1-1.9,1.3-2.7c-0.8-0.7-1.3-3.5-0.9-5.2c0.8-3.7,4-8,6.5-8.7
	c0.8-0.2,2.3-0.4,3.3-0.4s1.9-0.1,1.9-0.2c0-0.6-1.4-1.2-2.7-1.2c-1.8,0-1.6-0.5,0.9-2.3c1.1-0.8,2-1.5,2.1-1.7
	c0.2-0.5,0-0.5-1.5,0.2l-1.3,0.5l0.2-7.5c0.1-6.8,0.1-7.7-0.6-10.1c-0.9-3-2-5-3-5.5c-0.4-0.2-1.3-0.4-2.2-0.4
	C195.7,90.2,195.3,90.4,193.8,92 M242.3,91.2c-4.4,2.4-6.5,4.9-6.9,8l-0.2,1.8l1.3-2.1c1.5-2.6,3.9-5.1,6.1-6.4c1.3-0.8,2.1-1,4.2-1
	c3,0,4.6,0.8,7.3,3.7c0.9,1,1.8,1.6,2,1.4c1.3-0.8-0.6-3-4.1-5c-2.4-1.3-2.9-1.5-5.2-1.5C244.6,90.2,243.9,90.4,242.3,91.2
	 M199.2,92.5c0.7,0.8,2.3,6.5,2.3,8.4c0,1.3-0.6,1.8-1.7,1.3c-1.4-0.6-2-0.1-3.3,2.7c-1.3,2.9-1.9,6.4-1.5,9.3
	c0.3,2.2,0.9,3.1,2.5,3.4l1.2,0.3l-1,0.5c-0.9,0.4-1.1,0.4-2-0.2c-0.5-0.4-1.5-1.8-2.1-3c-1.1-2.1-1.2-2.7-1.6-8.9
	c-0.5-7.1-0.4-8.6,1.2-11.5c1.2-2.3,2.1-3,3.8-3.1C198,91.6,198.6,91.8,199.2,92.5 M185.4,96.4c0.3,0.7,0.8,2.9,1,4.9
	c0.3,3.1,0.3,3.7-0.2,4.7c-0.7,1.3-1.4,1.7-2.2,1.1c-0.7-0.6-0.7-1.6,0-2.9c0.7-1.4,0.2-1.4-1.1,0c-1,1-1.1,1.3-1.1,4.1
	c0,1.7-0.2,3.2-0.3,3.5c-0.5,0.8-1,0.5-1-0.6c0-0.6-0.2-1.8-0.6-2.8c-1.1-3.5-0.4-8.8,1.3-11.2C183.4,94.5,184.4,94.3,185.4,96.4
	 M259.4,96.2c0,0.1,0.6,0.8,1.4,1.6c1.5,1.5,2.4,3,4,6.3c0.5,1.1,1.2,2.5,1.5,3.1s1.2,3.1,2.1,5.5c1.7,4.7,2.5,5.6,2.7,3
	c0.2-2.7-2.5-9.3-5.7-13.7c-0.5-0.6-0.8-1.3-0.8-1.5c0-0.5-3-3.6-3.9-4.1C259.8,96,259.4,95.9,259.4,96.2 M239.5,99.2
	c-1.4,2.2-1.5,3.4-0.6,6.4c0.9,2.8,1.4,3.3,3.6,3.6c1,0.2,1.4,0.5,1.9,1.4c1.2,2.4,2.5,4.1,4.1,5.1c2.3,1.5,2.9,1.6,4.3,0.8l1.3-0.8
	l-1.7-0.4c-0.9-0.2-2.2-0.8-2.8-1.3c-1.5-1.1-3.4-3.7-3.4-4.4c0-0.3-0.1-0.8-0.3-1c-0.7-0.8-1.2-3.4-1.2-6.3c0-3,0-3.1-0.6-2.5
	c-0.5,0.5-0.7,1.4-0.8,4c-0.1,1.9-0.3,3.5-0.4,3.7c-0.7,0.7-2.2-0.9-2.8-2.9c-0.5-1.8-0.5-2.2,0-4.3c0.3-1.2,0.5-2.3,0.4-2.4
	C240.5,97.9,240,98.4,239.5,99.2 M106.3,99.1c-0.5,0.5-0.9,1.2-0.9,1.7c0,1.2-0.7,2.2-1.3,2c-0.3-0.1-0.6,0.1-0.8,0.5
	c-0.1,0.4-0.5,1.2-0.8,1.9c-0.5,1.2-0.5,1.3,0.4,2.2c0.5,0.5,0.9,1.2,0.9,1.4c0,0.7,0.7,0.9,1.4,0.5c0.4-0.2,1.3-1.2,1.9-2.1
	c1-1.5,1.2-1.6,1.5-1c0.5,0.9,1,1.2,2.2,1.2c1.1,0,2.1-0.8,2.1-1.7c0-0.3-0.3-0.9-0.7-1.3l-0.7-0.7h0.8c0.5,0,1.4,0.5,2.2,1.1
	c0.8,0.7,1.6,1,2,0.9s1.1,0.2,1.7,0.6c0.9,0.7,1,1,0.8,1.8c-0.1,0.5-0.5,1-0.9,1.1c-0.5,0.1-0.5,0.2,0.1,0.2c1,0.1,1.6-0.6,1.6-1.6
	s-2-4.2-2.7-4.2c-0.3,0-0.3,0.1,0.1,0.3c0.3,0.2,0.4,0.5,0.3,0.6c-0.1,0.1-0.9-0.2-1.8-0.8c-1.4-0.9-1.7-1-3.8-0.8
	c-2.7,0.3-4.3,1.2-5.5,3.1c-1.6,2.5-1.9,2.7-2.7,1.3c-0.6-1.1-0.2-3.5,0.5-3.5c0.3,0,0.7-0.3,1-0.6s1.1-0.9,1.9-1.3
	c1.3-0.7,1.9-0.7,4.8-0.5c2.5,0.2,3.2,0.2,2.9-0.2c-0.2-0.2-1.1-0.5-1.9-0.6s-1.5-0.4-1.5-0.6s0.5-0.3,1.1-0.2c0.6,0.1,1,0,0.9-0.1
	c-0.1-0.2,0.1-0.3,0.4-0.3c0.3,0,0.7,0.2,0.8,0.4c0.1,0.2,0.5,0.4,0.9,0.4s0.7,0.1,0.7,0.3c0,0.2,0.3,0.5,0.7,0.7
	c0.6,0.4,0.7,0.3,0.5-0.4l-0.2-0.8l0.7,0.8c0.8,0.9,1.2,1,1.2,0.4c0-0.2-0.7-1-1.6-1.8c-1.2-1.1-1.8-1.4-2.8-1.4
	c-1.2,0.1-1.2,0.1-0.2,0.2c0.6,0.1,1.3,0.3,1.4,0.5c0.5,0.5-0.3,0.4-2.9-0.2C109.8,97.9,107.4,98.1,106.3,99.1 M133.4,98.9
	c-1.2,0.3-2.4,0.7-2.5,0.9c-0.1,0.2-0.6,0.3-1.1,0.3c-1,0-1.7,0.7-1.7,1.5c0,0.4-0.4,0.9-0.9,1.2c-0.5,0.3-1,0.9-1.1,1.3
	c-0.2,0.8,2.1,10.1,2.9,11.7c0.5,1,0.5,1.2,0,2c-0.4,0.6-0.5,0.9-0.2,0.9c0.2,0,0.5-0.3,0.6-0.7c0.3-1,1-0.4,1.9,1.6
	c0.8,1.8,1.9,2.9,1.9,1.9c0-0.7-1.2-3.2-2.6-5.2c-1.2-1.7-1.9-3.9-1.8-5c0.1-0.5,0-1-0.1-1.2c-0.9-1.6-1.8-3.2-1.8-3.6
	c0-0.2,0.3-0.7,0.6-1.1c0.6-0.7,0.6-0.7-0.2-0.5c-0.6,0.2-0.8,0-0.8-0.4c0-0.8,2.8-2.2,5.7-2.8c1.2-0.3,2.6-0.6,3-0.7
	c0.6-0.2,1.1,0,1.8,0.8c0.7,0.7,0.9,0.8,0.7,0.3c-0.1-0.4-0.4-1.2-0.5-1.8c-0.2-1-1-2.1-1.6-2C135.7,98.3,134.6,98.6,133.4,98.9
	 M92.9,100.7c-0.4,1-0.4,1.4-0.1,1.5c0.7,0.2,0.5,1.8-0.3,2.6c-0.8,0.8-1.5,3.1-1.2,4c0.1,0.3,0.5,0.8,0.8,1.1
	c0.3,0.2,1,1.7,1.4,3.2c0.8,2.7,1.7,3.9,2.6,3.3c0.2-0.1,0.4-1.2,0.4-2.5c0-2.5-0.7-2.3-0.8,0.3v1.5l-0.4-1.6
	c-0.3-1.2-0.3-1.8,0.2-2.9c0.3-0.8,0.7-2.4,0.8-3.6c0.2-2,0.2-2.1-0.3-1.7c-0.4,0.3-0.6,1.1-0.6,2.1c0,1.1-0.2,1.6-0.5,1.6
	s-0.5,0.2-0.5,0.5c0.1,1.7-0.2,1.5-0.5-0.3c-0.3-2.4-0.2-2.9,0.4-1.6c0.3,0.7,0.3,0.6,0.2-0.8c-0.3-2.2-0.8-2.6-1.1-0.9
	c-0.4,2.1-0.6,2.7-1,2.7c-0.7,0-0.1-3.1,0.8-4.4c0.6-0.9,0.7-1.4,0.5-2.1c-0.1-0.5-0.2-1.5-0.2-2.2C93.7,99,93.5,99,92.9,100.7
	 M226.3,100.3c-1.8,3.5-0.4,7.9,1.9,6.1c0.6-0.5,0.8-1,0.7-2.3l-0.1-1.6l-0.5,1.6c-0.3,0.9-0.7,1.5-0.9,1.4
	c-0.6-0.2-0.7-2.4-0.2-3.6s0.7-1.3,1.4-0.6c0.4,0.4,0.4,0.2,0.3-0.6c-0.1-0.9-0.3-1.1-1.1-1.2C227,99.3,226.7,99.5,226.3,100.3
	 M219,105.1c0.8,2.6,1.7,7.3,2.3,11.8l0.4,2.7l-2.1,2.5c-3,3.6-2.9,3.5-3.8,5.5l-0.8,1.8l-0.3-2.6c-0.5-3.6-0.1-8.8,0.7-11.2
	c0.4-1.1,0.8-2.6,0.9-3.2c0.2-1,0.1-1.2-0.5-1.2c-1.2,0-3.5,3.3-4.1,5.8c-0.8,3.6-0.8,0.6,0-5.5c0.8-6,2-9.4,3.3-9.4
	c0.4,0,0.9-0.3,1.2-0.6c0.4-0.5,0.6-0.5,1.3,0.3C217.9,102.2,218.6,103.7,219,105.1 M131.6,103c-1.7,0.4-2.1,0.7-1.9,1.9
	c0.2,1.1,0,1.3-0.7,0.7c-0.3-0.3-0.6-0.1-1,0.6l-0.6,1l1-0.3c0.6-0.2,2-0.4,3.1-0.5l2-0.2v-1.4c0-2.2,0.9-1.7,2.9,1.4
	c1,1.5,1.8,2.8,1.9,2.8c0.3,0-0.3-2.4-1.1-3.9C136.3,102.9,134.6,102.3,131.6,103 M200.2,103.8c0.2,0.2,0.3,1.3,0.2,2.3
	c0,1.5-0.2,1.9-0.9,2.5c-1.1,0.8-1.8,0.9-2.4,0c-0.7-0.9-0.6-1.8,0.2-3.7c0.6-1.2,0.9-1.6,1.6-1.6
	C199.6,103.4,200.1,103.6,200.2,103.8 M201.1,111.7c-0.1,1.3-0.4,2.7-0.9,3.6c-0.4,0.8-0.8,1.5-0.8,1.6s-0.6-0.1-1.2-0.4
	c-1.2-0.6-1.9-2.2-1.9-4.3c0-1.4,0-1.4,1.4-1.4c0.8,0,1.8-0.2,2.3-0.5s1-0.5,1-0.5C201.1,109.6,201.1,110.5,201.1,111.7 M90.1,111.9
	c-0.2,0.3-0.5,1.1-0.6,1.8c-0.1,0.8-0.5,1.5-0.8,1.7c-1.4,0.8,1.3,4.1,3.5,4.1c0.6,0,0.8,0.2,0.8,0.8c0,0.4,0.3,1.1,0.6,1.4
	c0.9,1,1.1,3.1,0.4,4.2c-0.5,0.8-0.5,0.9,0,0.9c0.4,0,0.6,0.3,0.6,0.9c0,0.5,0.2,0.9,0.5,0.9c0.6,0,1.3,1.6,1.3,3
	c0,0.6,0.3,1.6,0.6,2.3c0.8,1.5,4.5,5.4,5,5.2c0.2-0.1,0.3-0.1,0.2,0.1c-0.1,0.2,0.8,1.7,2,3.4c2,3.1,4.3,5.5,5.2,5.5
	c0.2,0,0-0.3-0.5-0.6c-1.1-0.7-2.2-2.3-2.2-3.3c0-0.6-0.1-0.6-0.4-0.1c-0.3,0.5-0.4,0.4-0.4-0.2c0-0.4-0.3-1.1-0.6-1.4
	c-0.9-1.2-0.6-1.4,0.7-0.4c0.7,0.5,1.8,1.1,2.4,1.3l1.2,0.3l-1.4-1.3c-0.8-0.7-1.6-1.3-1.8-1.3c-0.6,0-1.2-0.9-1.4-1.8
	c-0.3-1.4-1.2-2.1-1.2-1c0,0.3,0.1,0.5,0.2,0.4c0.1-0.1,0.2,0.3,0.3,0.7c0,0.5-0.1,0.8-0.3,0.7s-0.3-0.4-0.3-0.7
	c0-0.3-0.7-1.3-1.7-2.3c-0.9-1-1.7-1.9-1.7-2.1s-0.6-0.8-1.4-1.6c-1.9-2-3.8-5.7-3.8-7.6c0-0.9-0.3-2.5-0.7-3.5
	c-0.4-1.1-0.7-2.4-0.7-3.1c0-0.6-0.2-1.4-0.5-1.8c-0.4-0.6-0.5-0.6-0.3,0.5c0.2,1.5-0.3,1.5-2-0.1l-1.3-1.2l0.7-1.7
	c0.7-1.9,1.1-2.1,0.6-0.3c-0.3,1.2,0,2.7,0.7,3.1c0.2,0.2,0.2-0.2,0-0.9c-0.2-0.6-0.3-1.6-0.2-2.2C91.5,113.3,90.6,111.2,90.1,111.9
	 M165.9,112.5c0,0.2,1,1.1,2.2,2s3,2.6,3.9,3.7c1.9,2.3,2.4,2.2,1.2-0.2c-0.4-0.8-0.7-1.6-0.6-1.7c0.3-0.3,2.5,2,3.2,3.3
	c0.4,0.8,0.7,1.5,0.6,1.5c-2.5,1.6-6.7,6.4-8.9,10.1c-2,3.4-4.1,6.5-5.1,7.2c-0.8,0.6-0.8,1.1,0,1.1c1.1,0,3.8-3.2,5.5-6.4
	c2.5-4.9,3.6-6.4,4.7-7.3c1.2-0.9,1.3-0.9,2.5-0.4c1.7,0.7,1.9,0.7,1.3,0c-0.3-0.3-0.7-0.6-1.1-0.6c-1.1,0-1.1-0.5,0-1.7l1.2-1.2
	l1.7,1c0.9,0.5,1.8,1,1.8,1.1c0.1,0.1-0.7,1-1.7,2c-1,1.1-2.3,2.7-2.9,3.7c-1.6,2.9-1.6,2.9-2.7,1.9c-0.9-0.8-0.9-0.8-0.5,0
	c0.3,0.5,0.3,0.9,0,1c-0.6,0.3-0.4,0.9,0.2,0.9c0.4,0,0.1,0.6-0.9,1.9c-0.8,1.1-1.6,2.6-1.7,3.4c-0.3,1.6-2.8,4.4-3.6,4
	c-0.3-0.2-0.3-0.1,0,0.2c0.4,0.4,0.7,0.3,2-0.4c0.9-0.5,2.5-1.3,3.7-1.9s2.4-1.4,2.8-2c0.4-0.5,1-1.4,1.5-2c0.4-0.6,1.1-1.7,1.4-2.6
	c0.4-1.1,1.1-2.1,2.5-3.3c1-0.9,3.1-2.8,4.6-4.1c1.5-1.4,2.9-2.5,3.2-2.5c0.3,0,0.9,0.5,1.3,1.1s1,1.1,1.2,1.1s0-0.6-0.6-1.2
	c-0.5-0.7-0.9-1.5-0.9-1.8c0-0.7,1.3-1.8,1.6-1.5c0.2,0.2,0.2,0.1,0-0.2c-0.2-0.3,0.1-0.5,1.1-0.5c1.2,0,1.3-0.1,0.6-0.3
	c-1.6-0.6-3.1,0.2-7.1,4.1c-2.1,2.1-4.6,4.4-5.5,5.1c-1.1,0.9-2.3,2.5-3.6,4.9c-2.2,3.9-3.3,5-4.2,4.2c-0.3-0.3-0.5-0.7-0.5-1.1
	c0-0.9,4.1-6.6,7.9-11.3c2.9-3.5,4-5.8,3.6-7c-0.2-0.5-0.5-1-0.8-1.1c-0.4-0.1-0.4,0-0.1,0.6c0.5,0.9,0.5,1.3,0.1,1
	c-0.2-0.1-0.5,0.4-0.6,1.1s-0.4,1.4-0.6,1.5c-0.4,0.2-3-1-3.5-1.7c-0.5-0.6-1.2-3.3-1-3.6c0.1-0.1,1.5-0.2,3.2-0.2
	c1.9,0,2.7-0.1,2.1-0.2c-1.4-0.4-6-1.5-6.6-1.5c-0.3,0-2-0.7-3.9-1.6C166.9,112.5,165.9,112.1,165.9,112.5 M119,115.9
	c-0.5,0.6-1.8,2.1-2.9,3.3c-1,1.2-2.2,2.6-2.5,3.2c-0.9,1.7-2.6,4.2-3.5,5c-0.7,0.7-1.8,2.4-1.8,2.9c0,0.1,0.4-0.3,0.9-0.9
	c0.5-0.6,1.2-1.2,1.6-1.3c0.3-0.1,0.9-0.7,1.1-1.4c0.5-1,0.6-1.1,0.8-0.5s0.3,0.6,0.3,0.1c0-1,1.3-3.2,2.9-5l1.4-1.6l1.2,1
	c0.9,0.8,1.5,1,2.6,0.9c0.8,0,2-0.1,2.7-0.1c1,0,1.3-0.2,1.3-0.8c0-0.6-0.2-0.7-2.8-0.5c-2.4,0.2-2.8,0.1-3.3-0.5
	c-0.6-0.9-0.1-2.7,0.9-3.3c0.7-0.5,1-1.7,0.3-1.7C120.2,114.7,119.6,115.3,119,115.9 M89.8,125.1c-0.4,0.2-2.4,1.7-4.4,3.4
	c-2,1.6-4.8,3.9-6.2,5s-3.4,2.5-4.4,3.1c-1,0.6-2.7,1.6-3.7,2.2c-1,0.6-3,1.9-4.4,2.8c-1.4,0.9-2.6,1.7-2.8,1.8
	c-0.1,0.1-0.9,0.7-1.8,1.2c-3.9,2.5-8.8,6.4-11.1,8.7c-2,2.1-6.5,8-6.5,8.6c0,0.1-0.3,0.6-0.6,1.1c-0.7,1-0.9,1.6-2.4,6
	c-2.1,6.3-2.2,7.2-2.1,21.1c0.1,10,0.2,13.1,0.6,14c0.3,0.7,0.4,1.4,0.2,1.8c-0.2,0.4-0.5,2.5-0.8,4.7c-0.2,2.2-0.7,5.8-1,7.9
	c-0.4,2.4-0.6,7-0.7,12.4l-0.1,8.5l-1.1,1c-1,1-1,1.1-0.8,3.3c0.2,2.3,0.1,2.9-1.1,5.7c-0.3,0.6-0.6,1.6-0.7,2.2
	c-0.1,0.6-0.5,1.4-0.8,1.7c-0.5,0.6-0.5,0.6,1.1,0.6c0.9,0,2.1-0.2,2.7-0.3c1.1-0.3,1.1-0.3-0.3-0.3c-1.1,0-1.4-0.2-1.4-0.7
	c0-1,1-2.2,2.3-2.6c1-0.3,1.1-0.4,0.2-0.2c-1,0.1-1.3-0.4-0.6-1.1c0.5-0.5,0.5-3.1,0.2-5.2c-0.3-1.6-0.3-1.6,0.7-1.4
	c0.9,0.2,3.5-0.7,3.5-1.2c0-0.1-0.7-0.2-1.6-0.2h-1.6l0.8-1.1c0.4-0.6,1-1.3,1.3-1.5c0.4-0.3,0.4-0.4-0.2-0.6
	c-0.7-0.2-0.7-0.5-0.7-7.3c0.1-7.5,0.8-16.5,1.4-16.5c0.2,0,0.1-0.3-0.1-0.6c-0.7-0.8-0.3-0.9,1.3-0.4c0.8,0.3,2.4,0.5,3.5,0.5h2
	l-2.6-0.4c-2.6-0.4-4.2-1.1-4.2-1.6c0-0.6,0.5-0.7,1.3-0.2c0.9,0.6,4.4,1.2,7.8,1.4c1.3,0.1,2.3,0.4,3.1,0.9
	c1.9,1.4,1.5,0.5-0.5-1.3c-1.1-0.9-2.7-2.1-3.6-2.5c-5.4-2.5-5.2-2.4-3.9-1.2c0.6,0.5,1.9,1.2,3,1.5c1.8,0.5,3.8,1.8,3.4,2.1
	c-0.2,0.2-5.1-0.4-7.7-1c-2-0.4-2-0.5-2.3-1.9c-0.3-2.1,0-2.3,1.2-0.9c0.6,0.7,1.3,1.1,1.6,1.1c0.5-0.1,0.3-0.4-0.7-1.6
	c-0.7-0.8-1.3-1.8-1.3-2.2s-0.3-1.4-0.7-2.2c-0.5-1.1-0.7-2.3-0.7-4.5c0-2.9,0-3,0.8-2.8c0.7,0.2,0.8,0.2,0.2-0.7
	c-0.8-1.3-1.3-4.3-1-6l0.3-1.5v1.9c0,1.1,0.3,2.2,0.6,2.6c0.6,0.7,0.6,0.7,0.2-0.1c-0.2-0.4-0.3-1.3-0.2-2c0.1-0.7-0.1-2.8-0.5-4.7
	c-0.8-3.6-0.9-8.8-0.4-10.1c0.2-0.5,0.3,0.4,0.4,2.6c0,2.9,1,8.2,1.5,8.8c0.3,0.3,0.1-3.2-0.4-6.1c-0.2-1.6-0.2-2.8,0-3.4
	c0.2-0.6,0.2-0.9,0-0.9c-0.6,0-0.4-0.7,0.4-1.7c0.5-0.6,0.7-1.5,0.7-2.4c0-2.1,1.1-4.3,2.9-5.7c0.8-0.7,1.5-1.3,1.4-1.3
	c-0.3-0.3-3,1.4-3.8,2.3c-1.2,1.5-1,0.5,0.2-1.5c0.6-1,1.1-1.9,1.1-2.1c0-0.7,1.9-3.2,3.6-4.5c1.2-1,1.5-1.3,0.9-1.2
	c-1,0.3-0.9,0.1,1-2.4c1.5-1.9,1.9-2.2,2.4-1.9c0.2,0.1,0.2,0,0.1-0.2c-0.3-0.4,2.4-2.5,4.7-3.7c0.8-0.4,2.3-1.5,3.3-2.4
	c1-0.9,2.2-1.8,2.7-1.9s2.3-0.1,4,0c2.9,0.2,3.1,0.1,1.9-0.3c-0.7-0.3-1.7-0.5-2.2-0.5l-0.9-0.1l0.8-0.4c0.5-0.2,0.8-0.5,0.8-0.7
	s-0.5-0.1-1.1,0.2c-1.4,0.7-1.5,0.7-1.2,0c0.5-1.2,9.6-5,11.4-4.8c0.5,0.1,0.7,0,0.4-0.1c-0.3-0.1-0.7-0.4-1-0.8
	c-0.4-0.5-0.3-0.7,0.1-1.2c0.3-0.4,0.7-0.6,1-0.6s1.6-1,5.7-4.6c0.8-0.6,0.8-0.7,0.7-0.1c-0.1,0.4-0.1,0.6,0.1,0.6
	c0.2,0,0.4-0.2,0.4-0.5c0-0.5,1.5-2.1,1.9-2.1c0.1,0,0.3,0.3,0.3,0.8c0,2.9,5.6,13.3,10.4,19.5c2,2.5,5.4,7.4,5.4,7.8
	c0,0.1,0.7,1.2,1.6,2.5c0.9,1.2,1.9,2.9,2.3,3.7c0.4,0.8,1.2,2,1.7,2.6s1.2,1.6,1.6,2.2c0.3,0.6,1.2,2,1.9,3.1c2.1,3.1,4.4,7,5,8.4
	c0.4,1,0.4,1.4,0.1,1.8c-0.4,0.5-0.4,0.5,0.1,0.1s0.7-0.2,1.6,1.8c0.5,1.3,1,2.5,1.1,2.8s0.2,0.6,0.3,0.7c0.4,0.4,1.5,3,1.5,3.5
	c0,0.3,0.3,1.1,0.7,1.9s0.6,1.5,0.5,1.6c-0.1,0.2,0,0.3,0.1,0.3c0.2,0,0.8,1,1.3,2.2c0.9,2.1,0.9,2.3,0.6,6.2
	c-0.4,4.2-0.1,7.6,1,9.6c1,2,3.6,11.9,4.3,16.6c0.5,3.6,0.8,11.3,0.4,11c-0.2-0.1-0.4,0.9-0.6,2.3c-0.2,2.6-1.8,7.3-2.6,7.9
	c-0.7,0.6-1.4,2.3-1,2.6c0.2,0.1,0.6-0.4,0.9-1.1c0.3-0.7,0.7-1.4,1-1.5c0.2-0.1,0.9-1.3,1.5-2.6c1.3-3,2.3-8.9,2-12.2
	c-0.8-7.9-2.5-16.1-4.4-21.5c-1.7-4.6-2-6-1.8-9.9c0.1-2,0.1-3.8,0.2-3.9c0-0.1,0.5-0.2,1.1-0.1c0.9,0.2,1.3-0.1,3-2.1
	c2.3-2.6,6.4-8.9,8.9-13.4c1.8-3.4-1.3,0.2-4.8,5.4c-0.6,0.9-1.5,2.2-2,3s-1.8,2.5-2.9,3.8l-2,2.4l-1.4-3.4
	c-0.8-1.9-1.6-3.9-1.9-4.5c-0.3-0.6-0.9-2-1.3-3.1c-0.8-2-1.5-3.6-2.4-5.7c-1-2.3-3.6-7.7-4-8c-0.4-0.4-7.7-11.7-9.6-14.7
	c-4.1-6.5-6.3-9.8-8.1-11.9c-2.5-2.9-6.4-9.4-8.6-14.3c-1.2-2.7-1.3-6-0.2-7.5C91,124.5,91,124.4,89.8,125.1 M90.5,127
	c-0.3,1.7,0.9,5.1,2.8,7.8c2.9,4.2,6.8,8.6,10.1,11.4c1.8,1.6,3.9,3.3,4.6,4c0.7,0.6,2.5,2.2,4,3.4c1.5,1.2,4,3.5,5.6,5l2.8,2.7v2
	c0,1.1-0.3,2.6-0.6,3.4c-0.5,1.1-0.5,2.1-0.4,4.4c0.1,1.6,0.4,3.4,0.6,3.9c0.2,0.5,0.4,0.8,0.4,0.7s0.3-2.1,0.6-4.4
	c0.3-2.3,0.6-6.1,0.7-8.5c0.1-3.8,0.2-4.4,0.9-5.1c0.4-0.4,0.9-1.6,1.2-2.5c0.3-0.9,0.8-2.9,1.4-4.5c0.9-2.9,1.6-3.4,2-1.7
	c0.1,0.6,0.3,0.7,0.5,0.4c0.1-0.2,0.2-0.9,0-1.4c-0.2-0.8,0-1.1,0.8-1.9l1.1-0.9l-1.3,0.2c-0.7,0.1-1.6,0.6-2,1
	c-0.4,0.4-0.5,0.7-0.3,0.5c0.7-0.4,0.5,0-0.4,1c-0.5,0.5-1.3,2.4-1.9,4.1c-1.2,3.7-2.8,7.4-3.3,7.4c-0.2,0-1.5-1.2-2.9-2.6
	c-1.4-1.5-4-3.6-5.7-4.9c-2.8-2-12.9-11.3-14.9-13.7c-1.5-1.8-4.4-8.3-5.2-11.5C91.3,125.4,90.8,125.5,90.5,127 M135,129.1
	c-1,1.4-1.1,1.4-3.1,1.5c-1.2,0-3,0-4.1-0.1s-4-0.1-6.3-0.1c-5.4,0-5.7-0.4-1-1.1c1-0.1,2-0.1,2.5,0.2c0.4,0.2,0.8,0.3,1,0.1
	c0.4-0.6-1.8-1-3.6-0.8c-6.4,1-7.9,1.2-7.9,1.5c0,0.7,0.3,0.7,12.8,1.2c2.1,0.1,4.9,0,6.2-0.1c1.3-0.2,2.5-0.2,2.6-0.1
	c0.1,0.1,0.1,1,0.1,2c-0.2,1.7-0.2,1.8-0.9,1.1c-0.7-0.6-0.7-0.6-0.3,0.1c0.4,0.6,0.4,1,0.1,2c-0.2,0.7-0.3,1.3-0.2,1.4
	s0.3,0,0.4-0.2c0.1-0.3,0.3-0.4,0.6-0.2c0.2,0.1,0.3,0.1,0.1-0.2c-0.1-0.2,0-0.9,0.3-1.4c0.3-0.6,0.5-1.8,0.5-2.7c0-1,0.3-2.2,0.8-3
	C136.6,128.1,136.2,127.3,135,129.1 M230.3,127.9c-0.8,0.2-2,0.6-2.6,0.9s-1.3,0.6-1.6,0.6c-0.9,0-5.1,4.6-5.4,5.9
	c-0.1,0.6-0.2,1.3,0,1.4c0.1,0.1,1.2-0.7,2.3-1.9c1.2-1.2,2.7-2.5,3.5-3c1.2-0.8,1.5-0.9,2-0.4c1,1,1.1,3.4,0.2,4.8
	c-1,1.7-3.6,3.9-4.6,3.9c-1.3,0-4.1,1.3-4.1,1.8c0,0.4,0.5,0.6,1.8,0.7c1.4,0.1,2.1-0.1,3.5-0.9c2.2-1.3,4.5-3.1,7-5.6
	c1.9-1.9,2-2.1,2.2-4.2l0.2-2.3l1.4-0.1c1.1-0.1,1.6,0.1,2.5,0.9c1.1,1,1.1,1.1,0.9,3.5c-0.2,2.3-0.1,2.5,0.5,2.5
	c1,0,1.5-1.1,1.5-3.6c0-2-0.1-2.3-1.1-3.3c-0.6-0.6-1.7-1.3-2.5-1.5C236.3,127.5,232.4,127.5,230.3,127.9 M250.5,130.6
	c1.4,1.2,3.4,6.6,3.4,9.3c0,1.7-1.2,5.9-2.1,7.5c-1,1.7-2.3,3-3,2.8c-0.3-0.1-0.8-0.6-1.2-1.2c-0.7-1.3-1.2-1.3-1.6,0
	c-0.2,0.6-0.5,1.3-0.8,1.6c-0.3,0.3-0.5,0.8-0.5,1c0,0.9-3.4,4.1-5.5,5.2L237,158l-0.2-1.1c-0.1-0.6-0.3-1.1-0.4-1.1
	c-0.4,0-1.5,1.2-1.5,1.7c0,0.3-0.3,0.8-0.7,1.2c-0.6,0.6-0.9,0.7-1.6,0.4c-0.6-0.2-1.4-0.2-2.5,0.3c-0.9,0.3-2.8,0.6-4.2,0.6
	c-3.2,0-5.7-1.1-6.7-2.8c-0.5-1-0.5-1.3,0.1-3c0.4-1,0.8-2,1-2.2s0.4-1,0.6-1.8l0.3-1.4l1.6,0.2c3.8,0.4,10.4,0.1,12.5-0.5
	c4.2-1.3,5.9-2.4,9-5.5c3.4-3.4,3.5-3.7,3.5-8.7c0-4,0.2-4.5,1.4-4.2C249.6,130.1,250.3,130.4,250.5,130.6 M154.9,132.9
	c-0.5,0.6-0.4,1.6,0.4,5c0.4,1.8,0.4,2.2-0.1,3.4c-0.3,0.7-0.6,1.5-0.6,1.7s-0.2,0.9-0.5,1.5c-0.8,1.5,0,1.8,0.9,0.3
	c0.4-0.7,0.9-1.7,1-2.2c0.1-0.6,0.4-1.1,0.7-1.2c0.6-0.2,0.7-2.2,0.1-2.5c-0.2-0.1-0.3-0.8-0.2-1.4c0.1-0.6-0.1-1.7-0.4-2.4
	c-0.7-1.5-0.4-1.9,0.9-1.1c1.3,0.8,3.8,5.3,3.5,6.3c-0.1,0.4-0.3,1-0.4,1.3c-0.1,0.3,0.2,0.2,0.6-0.3c1-1.1,1-1.6-0.3-4.3
	c-0.7-1.6-1.5-2.6-2.6-3.4C156.1,132.2,155.6,132.1,154.9,132.9 M160.1,143.5c-0.5,0.9-1.3,2.2-1.9,2.8c-0.6,0.7-1.1,1.3-1.1,1.4
	c0,0.1-0.7,1.1-1.5,2.2c-0.8,1.1-1.5,2.1-1.5,2.3c0,0.6,0.7,0.3,1.8-0.8l1.1-1.1v0.9c0,0.5-0.3,1.9-0.8,3.1c-0.4,1.2-0.7,2.6-0.6,3
	l0.1,0.8l0.5-0.8c0.3-0.5,0.6-1.5,0.8-2.4c0.2-0.9,0.5-2.1,0.7-2.8c0.2-0.7,0.6-2.4,1-3.8c0.3-1.4,0.7-2.5,0.9-2.5
	c1,0,0.5,5.8-1.1,12.1c-0.2,0.7-0.4,2-0.6,2.9c-0.1,0.9-0.6,2.6-1,3.8c-0.5,1.5-0.6,2.3-0.3,2.5c0.7,0.7,1.8-2.8,2.6-8.2
	c0.4-2.3,0.8-4.9,1.1-5.7c0.8-2.9,0.9-6.3,0.3-7.4c-0.5-1-0.5-1.2,0-1.6c0.3-0.3,0.5-1,0.4-1.5C161,141.9,160.9,141.9,160.1,143.5
	 M110,142.9c0.2,0.1,0.5,0.7,0.7,1.2c0.4,1.3,1.7,2.9,2.4,3.1c0.9,0.3,1.3,1.6,0.6,2c-0.4,0.2-0.4,0.4-0.1,0.7
	c0.3,0.3,0.5,0.2,0.9-0.4c0.3-0.5,0.6-1,0.9-1.1c0.3-0.2,0.2-0.3-0.1-0.3c-0.7,0-2.7-1.8-2.4-2.1c0.2-0.2,0.5,0,2.7,1.5
	c0.6,0.5,1.1,0.5,2.7,0.2c1.6-0.3,2-0.3,2.5,0.1s0.8,0.5,1.5,0.2c0.8-0.3,0.8-0.4,0.2-0.5c-0.4-0.1-0.8,0-0.9,0.3
	c-0.2,0.3-0.4,0.3-0.7-0.1c-0.4-0.4-0.3-0.6,0.6-0.7c0.6-0.1,1.6-0.1,2.3,0c1,0.2,1.2,0.1,1-0.3c-0.2-0.3-1.1-0.4-3.3-0.3
	c-1.6,0.1-2.8,0.1-2.5,0c0.3-0.1,0.5-0.4,0.5-0.7c0-0.3,0.2-0.4,0.4-0.3c0.8,0.5,0.3-0.1-0.5-0.7c-0.8-0.5-0.9-0.5-0.7,0
	c0.1,0.3-0.2,1-0.6,1.5c-0.7,0.8-0.8,0.8-2.1,0.4c-1.7-0.5-4.2-2.2-4.4-2.9c-0.2-0.5-0.1-0.5,0.5,0s0.6,0.5,0.2-0.3
	c-0.3-0.5-0.9-0.8-1.4-0.8C110,142.6,109.8,142.7,110,142.9 M174,150.4c-1,1.7-2.1,2.5-2.9,2.2c-0.9-0.2-2.3,0.5-2.3,1.2
	c0,0.3-0.2,0.6-0.5,0.7c-0.5,0.2-2.4,4.4-2.4,5.3c0,0.2,0.3,0.4,0.8,0.6c0.6,0.2,0.7,0.4,0.4,0.6c-0.5,0.5-0.5,1.4,0,1.4
	c0.2,0,0.4-0.2,0.4-0.5s0.2-0.7,0.6-1c0.7-0.5,0.7-1.9,0.1-2.9c-0.4-0.6-0.3-1.1,0.5-2.8c0.9-2.1,1.2-2.1,1.9-0.6
	c0.1,0.3,0.2,0.1,0.1-0.5c-0.1-0.9,0-1,0.7-1s0.9,0.2,0.9,0.9c0,0.5-0.2,1.1-0.5,1.3c-0.3,0.2-0.6,0.9-0.7,1.6l-0.2,1.2l1-1.2
	c1.1-1.3,1.2-1.7,0.7-3.1c-0.3-0.8-0.2-1,0.6-1.6c1.4-0.9,1.8-1.3,2.1-2.3C175.6,148.8,174.9,149,174,150.4 M182.8,159.6
	c-0.9,1-2.1,2.7-2.8,3.7c-0.7,1-1.8,2.2-2.5,2.7c-1,0.7-1.1,0.8-0.4,0.7c0.5-0.1,0.8-0.1,0.8,0s-1.5,1.7-3.3,3.5
	c-1.9,1.9-3.3,3.6-3.3,4.1c0,0.6,0.1,0.7,0.6,0.2c2.4-2,6.8-6.8,7.9-8.8c0.8-1.3,2.2-3.5,3.3-4.7c1-1.3,2-2.5,2.2-2.8
	c0.3-0.3,0.2-0.5-0.3-0.4C184.7,157.7,183.7,158.6,182.8,159.6 M89.5,162.3c-0.1,0.2-0.4,1-0.6,1.9c-0.5,1.8-0.2,2.5,1.6,4.5
	c0.7,0.7,2.6,3,4.3,5.2c1.7,2.1,4.5,5.7,6.3,7.9s4,5.1,4.9,6.6c6.5,9.9,12.1,18.7,13.1,20.3c1,1.8,1.8,2.4,1.8,1.5
	c0-0.7-1.6-3.2-9.1-14.6c-3.9-6-8-11.8-9-13s-3.5-4.3-5.5-6.8s-4.5-5.4-5.5-6.4c-2.6-2.6-2.8-3.1-2.1-5.1
	C90,162.5,90,161.5,89.5,162.3 M127,170.9c0,0.5,0.2,1.8,0.4,2.9c0.3,1.7,0.9,8.1,1.7,17.5c0.3,3.2,0.7,4.1,1.1,2.4
	c0.1-0.6,0.4-1.2,0.6-1.5c0.4-0.5,0.2-4.1-0.3-4.4c-0.4-0.3-1.3-3.4-1.1-3.6c0.1-0.1,0.6,0.1,1,0.6c1.1,1,3.3,1.9,3.9,1.6
	c0.3-0.2-0.1-0.6-1.4-1.4c-2.6-1.6-3.1-2.7-3.9-7.5c-0.6-4.3-1.2-6.4-1.7-7C127.2,170.1,127,170.3,127,170.9 M50,171.9
	c0,0.2,0.4,0.4,0.8,0.5c0.5,0.1,2.2,0.7,3.9,1.3c2.4,0.9,3.7,1.1,5.9,1.1c3.9,0,12.2,1.8,16.3,3.6c0.8,0.3,2.2,0.9,3.1,1.3
	c0.9,0.4,3.3,1.7,5.3,2.8c2,1.2,3.9,2.1,4.2,2c0.8-0.2-0.9-1.3-5.8-3.9c-6.6-3.5-13.9-5.7-22.2-6.7c-1.8-0.2-4.9-0.9-6.8-1.5
	C51.2,171.5,50,171.4,50,171.9 M57.6,175.8c-0.1,0.1-2.2,0.2-4.8,0.2c-4.3,0-8.4,0.7-7.2,1.2c0.3,0.1,1.1,0,1.8-0.2
	c0.7-0.2,3.4-0.4,6.4-0.4c2.8,0,6.2,0.1,7.4,0.1c1.3,0,2.9,0.2,3.6,0.4c0.7,0.2,1.8,0.3,2.5,0.2c1.1-0.3,1.1-0.3-1.2-0.8
	C63.7,176,57.9,175.5,57.6,175.8 M212.3,177.5c1.6,1.7,5.5,13.7,7,21.2c0.3,1.7,0.9,4.7,1.3,6.7c0.5,2.2,0.6,4.1,0.5,4.9
	c-0.3,1.5-0.7,1.7-1.1,0.4c-0.1-0.5-0.7-1.8-1.2-2.8c-0.9-1.9-2-4.8-2.8-7.2c-1.7-5.6-4.8-14.1-6.4-17.6c-2.1-4.3-2.2-5.2-1-6.5
	C209.5,175.7,210.9,176.1,212.3,177.5 M200.4,182.9c0,2.7,0,2.9-1.3,4.1c-0.7,0.7-1.2,1.3-1.1,1.4c0.1,0.1,0.9-0.3,1.7-0.8
	c1.6-0.9,3.2-2.5,5.4-5.3c0.7-0.9,1.4-1.6,1.5-1.6c0.6,0,0.3,2.7-0.5,4.3c-1.5,3.1-5.8,5.6-9.6,5.6c-1.3,0-2.5-0.3-3.9-1
	c-2.1-1.1-3.9-3.1-3.6-3.9c0.1-0.3,1-0.8,1.9-1.1c2-0.7,6.6-3.5,7.7-4.6C199.9,178.8,200.4,179.7,200.4,182.9 M179.8,184
	c1.6,1.8,3.1,5.4,3.3,8.4c0.2,3.7-1.1,8.7-3.8,14.7c-0.7,1.5-1.2,2.8-1.2,2.9c0,0.1-0.6,1.1-1.2,2.1c-2.1,3.2-3.9,6.1-3.9,6.3
	c0,0.1-0.5,0.9-1,1.7c-3.8,5.7-9.4,18.6-9.7,22.3c-0.1,1.1-0.3,1.3-1.2,1.6c-2.5,0.8-5.6,2.2-7.6,3.6c-1.2,0.8-2.4,1.4-2.8,1.4
	c-1.3,0-5.9-4.1-7.1-6.4c-1.2-2.3-0.8-6.2,0.9-9.8c1.5-3,2.8-4.4,6.9-7.5c2.9-2.2,21.6-20.3,21.6-21.1c0-0.7-2.9-5.9-4.4-8.1
	c-1.6-2.2-1.6-2.4,0.2-5.3c1.6-2.5,3.5-4.7,5.8-6.6C177.1,182.1,178,182.1,179.8,184 M186.7,184.6c0.7,0.1,0.8,0.4,0.8,1.4
	c0,1.8,1.6,3.5,4.9,5.2l2.7,1.4l2.9-0.6c1.6-0.3,3.7-1,4.6-1.5c1.9-0.9,4.8-3.9,5.1-5.3c0.1-0.5,0.3-0.9,0.5-0.9c0.4,0,2,4.2,5,13.2
	c3,9.1,5.3,14.3,6.4,14.6c0.5,0.1,0.7,0.5,0.7,1.3c0,1.6,1,3.5,2.7,5c0.8,0.7,1.7,1.8,2,2.4c0.7,1.3,4.2,6.2,4.6,6.5
	c0.2,0.1-0.2,0.3-0.7,0.4c-0.6,0.1-1.4,0.6-1.9,1s-1.2,0.7-1.5,0.6c-0.4-0.1-1.2,0-2,0.4c-1.2,0.5-1.4,0.5-2.7-0.2
	c-2.9-1.6-7.2-0.4-10.2,2.8c-1.7,1.8-2.1,2-4.4,2.5c-1.4,0.3-3.3,0.6-4.3,0.5c-2.1,0-4.4,0.6-5.3,1.5c-0.6,0.5-0.7,0.5-1.1,0.1
	c-0.3-0.4-1.6-0.5-4.8-0.5c-4.9,0-9.5-0.5-12.7-1.3c-2.7-0.7-6.9-2.7-8.6-4.1c-1.2-1-1.2-1-0.7-2.4c0.7-1.8,4.9-9.1,8-13.9
	c1.3-2.1,3.3-5.8,4.3-8.3c3.5-8.2,4.2-14.9,2.1-19.9c-0.5-1.2-0.9-2.3-0.9-2.4C182.4,184.1,185.4,184.4,186.7,184.6 M77.5,186.5
	c0.9,0.4,2.4,0.6,5.1,0.6c4.1,0,6.7,0.7,9.2,2.2c0.8,0.5,1.3,0.7,1.2,0.4c-0.3-0.7-6.3-3.5-8.2-3.7c-0.9-0.1-2.6-0.1-3.8,0.1
	c-1.2,0.2-2.2,0.2-2.3,0s-0.7-0.3-1.4-0.3h-1.2L77.5,186.5 M69.1,189.7c-0.9,0.3-3.9,0.5-6.8,0.5c-2.8,0-5.8,0.2-6.6,0.3
	c-1.2,0.2-0.7,0.3,2.7,0.5c4.7,0.3,17.6-0.1,17.9-0.6c0.1-0.2-0.7-0.3-1.8-0.3c-2.4,0-3.5-0.3-2.7-0.8
	C72.4,189,71.1,189.2,69.1,189.7 M245.8,197.5c3.9,2.1,5.2,3.7,5.2,6.6c0,1.1-0.3,1.6-1.3,2.6c-2.6,2.5-5.5,2.5-8.6,0
	c-1.7-1.3-2.5-2.7-3.4-5.6l-0.5-1.8v1.7c0,1.8,1,4.4,2.3,5.8c2.1,2.2,7,3.3,9.4,2.1c0.7-0.3,1.3-0.6,1.3-0.5c0.3,0.3-2.7,3.2-4,3.9
	c-3.2,1.6-9.5,0.5-11.6-2.2c-1.3-1.6-2-5.2-1.6-7.8c0.2-1.3,0.6-2.1,2-3.5c2.3-2.4,3.7-3,6.4-2.8
	C242.8,196.1,244.1,196.5,245.8,197.5 M88.3,198.2c-0.9,0.4-6.6,1.9-9.7,2.6c-2.3,0.5-7,1.9-6.6,2c1.1,0.3,1.7,0.3,2.3-0.1
	c0.5-0.3,0.6-0.3,0.5,0c-0.3,0.5,0,0.5,0.8,0.1c1.2-0.6,4.7-1.7,6.5-2c2.9-0.5,3.2-0.5,5-1.3c1.7-0.8,3.4-1.9,2.8-1.9
	C89.6,197.7,88.9,197.9,88.3,198.2 M235.7,214.1c1.7,1.2,1.9,1.6,1.1,2.4c-1.4,1.4-4.9-0.2-4.9-2.3c0-0.6,0.1-1.1,0.3-1.3
	C232.6,212.5,234.1,213,235.7,214.1 M233.6,218.4c1.7,0.4,1.9,0.9,0.9,2c-1.8,1.8-5.1-0.1-5.1-2.9c0-2.2,0.7-2.5,1.9-0.8
	C231.9,217.7,232.6,218.2,233.6,218.4 M109.9,217c-1.3,1.1-3.6,3.9-6.1,7.4c-4.5,6.4-6.5,14.9-4.5,19.2l0.5,1.1l-0.2-1.6
	c-0.1-0.9-0.3-2.3-0.4-3.1c-0.3-1.9,0.3-1.5,0.9,0.6c0.2,0.8,0.6,1.4,0.8,1.4s0-0.9-0.4-1.9c-0.9-2.3-0.7-5.3,0.5-8.9
	c1.3-3.5,4.9-9.2,5.5-8.6c0.1,0.1-0.2,1.3-0.7,2.7s-1,3.6-1.1,4.8s-0.3,2.6-0.4,3.1c-0.1,0.8-0.1,0.7,0.4-0.2c0.3-0.6,0.7-2.1,1-3.3
	c1.7-8.6,1.9-9,4-11.2C111.5,216.5,111.7,215.5,109.9,217 M228.6,220.5c0.7,0.9,1.6,1.7,2,1.9c0.4,0.1,1.2,0.5,1.6,0.8l0.8,0.5
	l-0.8,1.1c-0.9,1.2-1.4,1.3-2.2,0.4c-1.3-1.5-3.6-5.2-3.6-5.7C226.4,218.4,227.3,218.9,228.6,220.5 M60.6,219.6
	c0,0.2,1.1,1.3,2.4,2.5c1.3,1.2,3.4,3.2,4.7,4.5c1.9,2,4.2,4.2,10.3,10.1c0.8,0.8,1.5,1.3,1.6,1.3c0.2-0.2-17.4-17.8-18.2-18.2
	C60.9,219.4,60.6,219.4,60.6,219.6 M109.2,220.3c-0.6,0.9-2,7.5-2.3,10.6c-0.5,4.4-0.5,5.5,0,5.4c0.4-0.1,1.1,1.8,2.3,5.8
	c0.9,3.1,2,5.7,2.4,5.5c0.1-0.1,0.2,0.2,0.1,0.6c-0.1,0.4,0,1.2,0.2,1.7c0.3,0.8,0.4,0.7,0.4-0.7c0-1.5,0.1-1.6,0.5-1
	c0.3,0.4,0.6,1.4,0.7,2.3c0.1,0.9,0.6,2,0.9,2.5c0.7,0.8,0.7,0.8,0-1.5c-0.4-1.3-1.2-3.5-1.9-5c-0.7-1.4-2.1-4.6-3.2-7
	c-1.8-4.1-1.9-4.6-1.9-7.4c0-1.6,0.2-3.1,0.3-3.2c0.2-0.1,0.7,0.7,1.1,1.7c0.4,1.1,0.8,1.6,0.8,1.2c0-0.7,0-0.7,0.8,0l0.8,0.7
	l-0.5-0.9c-0.3-0.5-0.6-1-0.7-1.1c-1.1-1-1.9-2.7-1.8-4.5v-1.9l0.4,1.6c0.2,0.9,0.6,1.7,0.9,1.8c0.3,0.1,0.4-0.1,0.2-0.9
	c-0.1-0.6-0.3-2.3-0.3-3.9c0-1.6-0.1-2.9-0.1-2.9C109.5,220,109.4,220.1,109.2,220.3 M150.6,228.1c-1.2,1.3-2.4,4.3-2.3,6
	c0.1,2.7,0.1,4.4-0.1,6.8c-0.2,1.6-0.1,2.7,0.2,3.5c0.4,1,0.5,0.9,0.7-2.1c0.2-2.4,0.4-3.4,0.9-3.9c0.9-1,1.3-0.7,1.3,1.4
	c0,2,0.3,3.4,0.8,3.4c0.2,0,0.3-0.7,0.3-1.6c0-1.8,0.5-3.5,1.5-5.4c0.9-1.6,0.5-2-1.1-1c-1.7,1-2.1,0.4-1.1-1.4l0.8-1.4l-1.5,1.5
	c-0.8,0.8-1.6,1.4-1.7,1.2c-0.5-0.8,0.8-4.8,2-6.3C152,227.7,151.5,227.2,150.6,228.1 M231,231c0.5,0.7,0.9,1.5,0.9,1.7
	c0,0.3,0.2,1,0.5,1.7s0.9,2.4,1.3,3.8l0.8,2.6l-1.1,1c-0.6,0.6-1.5,1-2,1c-1.9,0-5-5.5-5-9c0-1.4,0.2-1.9,1.3-3.1
	C229.2,229,229.6,229,231,231 M220.7,231.3c2.3,2,2.8,7.2,1.1,11.4c-0.5,1.3-1.2,2.6-1.4,2.9c-0.2,0.3-0.9,1.3-1.5,2.3
	c-1.2,2-3.1,3.2-5.6,3.2c-4.8,0-6.5-8.7-3-15.5c0.8-1.6,3.4-4.3,4.1-4.3c0.3,0,1-0.2,1.5-0.5C217.7,229.9,219.3,230.1,220.7,231.3
	 M168.9,231.9c0.7,0.9,4.3,2.9,6.8,3.7c3.5,1.3,8.6,1.9,14.6,1.9h5.5l-1.2,1.3c-0.7,0.7-1.4,1.9-1.7,2.6c-0.6,1.4-0.7,6.3-0.1,8.3
	c0.3,1,0.3,1.5,0,1.8c-0.7,0.7-10.1,0.4-14.3-0.4c-7.4-1.5-9.6-2.4-12.2-4.8c-1.4-1.3-1.4-1.4-1.4-3.9c0-2.4,0.7-5.5,2.1-8.9
	c0.2-0.5,0.5-1.2,0.6-1.6C167.8,231.2,168.2,231.2,168.9,231.9 M225.3,238c0,1.3,1.4,3.8,2.9,5.2c0.7,0.6,1,1.3,0.9,1.6
	c-0.2,0.5-4.4,2.6-6.8,3.5c-0.8,0.3-0.8,0.3,0.6-3.4c0.5-1.3,1-3.4,1.2-4.6c0.4-3,0.6-3.9,1-3.6C225.2,236.8,225.3,237.4,225.3,238
	 M203.3,237.6c1.4,1,2.2,4.5,1.5,7.3c-0.9,4.2-3.4,7.3-6.2,7.7c-2,0.3-3.2-0.4-4.2-2.2c-1.1-2-1.1-6.1-0.1-8
	c1.7-3.3,4.5-5.5,6.9-5.5C201.8,236.9,202.7,237.2,203.3,237.6 M138.7,238.2c-0.5,0.6-2.3,2.9-4,5.2s-3.5,4.7-3.9,5.3
	c-1.4,1.9-3.1,5-2.9,5.2c0.4,0.4,1.7-1.1,2.4-2.6c0.4-0.8,1-1.9,1.5-2.4c0.6-0.8,0.6-0.6-0.2,0.9c-0.5,1-1,2.1-1.1,2.4
	c-0.1,0.3-0.2,0.9-0.4,1.2c-0.4,1,0.4,0.7,1.5-0.6l1-1.2l-0.2,1.2c-0.2,1-0.1,1.2,0.5,1.2s0.7-0.3,0.7-2c0-1.9,0.6-3.7,1.7-4.9
	c1-1.2,3.8-6.9,4.2-8.3c0.2-0.9,0.3-1.6,0.3-1.6S139.2,237.7,138.7,238.2"/>
<path d="M187.1,224.8c-1.2,0-1.9-1-3.3-1.8c2-0.1,3.5-0.1,5-0.3c0.8-0.1,1.9-0.3,2-1.4c0.1-0.9-0.5-1.5-1.1-2
	c-0.8-0.7-1.6-1.2-2.5-1.9c0.4-1.4,3.1-0.6,2.6-2.9c0.6-0.1,1.4,0.1,1.4,0.6c0,1.2-1.5,1.3-2,2.2c0.5,0.5,1.1,1.1,1.5,1.7
	c0.6,0.8,1.6,1.6,1,2.8c-0.6,1-1.7,1.5-2.9,1.4c-0.4,0-0.8,0-1.2,0C185.9,223.2,187,224.1,187.1,224.8"/>
<path class="st1" d="M226.7,231.1c0-6,3.6-11.8,10.2-11.8c5.9,0,10.1,4.1,10.1,10s-3.6,11.8-10.1,11.8
	C230.9,241.1,226.7,237,226.7,231.1 M217.1,230.6c0,11.5,9.4,19.1,20.4,19.1c11.2,0,19.1-8.9,19.1-19.9c0-11.3-9.4-19.1-20.3-19.1
	C225.1,210.7,217.1,219.6,217.1,230.6 M205.8,203.4c0,1.5,0.6,2.9,1.7,3.8c1.2,0.9,2.6,1.4,4.1,1.4c1.4,0,2.8-0.5,3.8-1.6
	c1-1,1.5-2.4,1.5-3.8c0.1-1.5-0.6-2.9-1.7-3.9c-1.1-0.9-2.6-1.4-4.1-1.4c-1.4,0-2.8,0.5-3.8,1.6S205.8,202,205.8,203.4 M206.6,249
	l7.6-35.9l-9.5-2l-7.6,35.9L206.6,249z M163.1,231.1c0-6.1,4.1-11.6,10.5-11.6c3.3,0,8.2,1.9,9.9,4.9l-3.3,15.4
	c-1.8,1.2-3.9,1.8-6,1.7C168,241.6,163.1,237.6,163.1,231.1 M153.3,231.1c-0.1,10.1,8,18.5,18.1,18.6c0.1,0,0.3,0,0.4,0
	c2.8,0.1,5.6-0.8,7.9-2.5l-0.6,3.3l8.3,1.8l10.3-48.6l-9.5-2l-3,14.6c-2.9-3.5-8.5-5.5-12.9-5.5
	C161.3,210.8,153.4,220.3,153.3,231.1 M112.4,235.7c-0.2,7.5,5.7,13.7,13.2,13.9c0.2,0,0.4,0,0.6,0c3,0,5.9-1,8.4-2.7l-0.7,3.5
	l8.4,1.8l7.6-35.9l-9.5-2l-5.5,25.7c-0.8,0.6-1.8,1-2.8,1.3s-2,0.4-3,0.4c-1.8,0.1-3.5-0.6-4.9-1.8c-1.3-1.3-2-3-1.9-4.8
	c0-0.7,0.1-1.5,0.2-2.2l4.6-21.5l-9.5-2l-4.6,21.8C112.6,232.6,112.4,234.1,112.4,235.7 M92.2,218.4l-3.8,17.8
	c-0.5,1.6-0.7,3.3-0.8,5c-0.1,1.8,0.5,3.5,1.7,4.9c1.2,1.2,2.6,2.2,4.1,2.8c1.7,0.7,3.5,1.2,5.3,1.4c1.9,0.3,3.6,0.4,5.1,0.5
	l1.7-7.9c-2.5,0-7.7-0.3-7.7-3.6c0-0.5,0.1-1,0.2-1.6l3.5-17.3l8.9,1.8l1.6-7.6l-8.8-1.9l2-9.4l-9.5-2l-2,9.4l-7.7-1.6l-1.6,7.5
	L92.2,218.4z M42.1,242.1c5.4,4.8,12.3,7.4,19.4,7.6c9.3,0,16.2-5.9,16.2-15.5c0-4.6-2.2-7.9-5.2-10.5c-1.5-1.3-3.1-2.5-4.7-3.5
	c-4.9-3.1-9.9-5.3-9.9-8.9c-0.2-1.5,0.5-2.9,1.8-3.7c1.3-0.7,2.7-1.1,4.2-1.1c4.6,0,10.6,2.7,13.5,6.4l0.8,0.1l1.9-9
	c-3.9-4.1-11.1-6.4-16.6-6.4c-8.3,0-15.4,4.8-15.4,13.7c0,14,19.6,14.9,19.6,23.2c0.1,1.8-0.7,3.6-2.2,4.6s-3.2,1.5-5,1.5
	c-5.4,0-12.5-3.4-15.7-7.7l-0.7-0.1L42.1,242.1z"/>
<path d="M188,253.1l-9.7-2.1l0.5-2.3c-2.1,1.1-4.5,1.7-6.9,1.6c-10.5,0.1-19.1-8.4-19.2-18.9c0-0.1,0-0.3,0-0.4
	c0-11.7,8.7-20.9,19.7-20.9c3.8,0,9.1,1.5,12.5,4.7l2.9-14l10.8,2.3L188,253.1z M179.9,249.9l7,1.6l10-47.2l-8.1-1.7l-3.2,15.3
	l-0.9-1.1c-3-3.6-8.5-5.2-12.4-5.2c-10.3,0-18.4,8.6-18.4,19.5c-0.1,9.8,7.7,17.8,17.4,17.9c0.2,0,0.3,0,0.5,0
	c2.7,0.1,5.3-0.7,7.5-2.3l1.5-1.2L179.9,249.9z M142.6,253l-9.7-2.1l0.5-2.5c-2.3,1.2-4.8,1.9-7.4,1.9c-7.8,0.2-14.3-6.1-14.5-13.9
	c0-0.2,0-0.4,0-0.6c0-1.6,0.2-3.2,0.5-4.7l4.7-22.5l10.8,2.3l-4.7,22.2c-0.1,0.7-0.2,1.4-0.2,2.1c-0.1,1.6,0.5,3.2,1.7,4.3
	s2.8,1.7,4.4,1.6c1,0,1.9-0.2,2.9-0.4c0.8-0.2,1.6-0.5,2.4-1l5.6-26.1l10.8,2.2L142.6,253z M134.5,249.9l7,1.5l7.3-34.6l-8.1-1.8
	l-5.4,25.3l-0.2,0.2c-0.9,0.7-2,1.1-3.1,1.4c-1,0.3-2.1,0.4-3.2,0.5c-2,0.1-3.9-0.7-5.4-2c-1.4-1.4-2.2-3.3-2.1-5.3
	c0-0.8,0.1-1.6,0.2-2.3l4.4-20.8l-8.1-1.7l-4.4,21.2c-0.3,1.5-0.5,3-0.5,4.4c-0.2,7.1,5.4,13,12.5,13.2c0.2,0,0.4,0,0.6,0
	c2.9,0,5.7-0.9,8-2.5l1.5-1.1L134.5,249.9z M104.2,251.6h-0.6c-1.5-0.1-3.3-0.3-5.1-0.5c-1.9-0.3-3.7-0.8-5.5-1.5
	c-1.6-0.7-3.1-1.7-4.4-3c-1.3-1.5-1.9-3.4-1.9-5.4c0.1-1.7,0.3-3.5,0.8-5.1l3.6-17.1l-7.7-1.7l1.9-8.9L93,210l2-9.4l10.8,2.3l-2,9.4
	l8.8,1.8l-1.8,8.9l-8.9-1.9l-3.5,16.7c-0.1,0.5-0.2,0.9-0.2,1.4c0,2.6,4.9,2.9,7,2.9h0.9L104.2,251.6z M85.1,216.3l7.7,1.6
	l-3.9,18.5c-0.4,1.6-0.7,3.2-0.7,4.8c-0.1,1.6,0.4,3.2,1.5,4.4c1.1,1.1,2.4,2,3.9,2.6c1.6,0.7,3.4,1.2,5.1,1.4
	c1.6,0.2,3.1,0.4,4.5,0.5l1.4-6.5c-4.9-0.1-7.6-1.7-7.6-4.3c0-0.6,0.1-1.1,0.2-1.7l3.8-18l8.9,1.8l1.3-6.2l-8.8-1.9l2-9.4l-8.1-1.7
	l-2,9.4l-7.7-1.6L85.1,216.3z M237.5,250.4c-12,0-21.1-8.5-21.1-19.9c0-11.7,8.5-20.6,19.9-20.6c11.8,0,21,8.7,21,19.9
	C257.3,241.6,248.8,250.4,237.5,250.4z M236.3,211.4c-10.5,0-18.5,8.2-18.5,19.2c0,10.5,8.5,18.4,19.7,18.4
	c10.5,0,18.4-8.2,18.4-19.2C255.9,219.5,247.3,211.4,236.3,211.4L236.3,211.4z M61.4,250.4c-7.3-0.1-14.4-2.9-19.9-7.8l-0.3-0.3
	l2.2-10.3l1.7,0.3l0.2,0.2c2.9,4,9.9,7.4,15.1,7.4c1.6,0,3.3-0.4,4.6-1.4c1.3-0.9,2-2.4,1.9-4c0-3.2-3.5-5.3-7.6-7.7
	c-5.4-3.2-12.1-7.2-12.1-15.5c0-7.2,5-14.4,16.1-14.4c5.2,0,12.8,2.1,17.1,6.6l0.2,0.3l-2.1,10.1l-1.7-0.3l-0.2-0.2
	c-2.6-3.4-8.3-6.2-12.9-6.2c-1.3,0-2.7,0.3-3.8,1c-1,0.7-1.6,1.9-1.5,3.1c0,2.5,3.3,4.5,7,6.7c0.8,0.5,1.7,1,2.6,1.6
	c1.7,1,3.3,2.2,4.8,3.5c3.6,3.2,5.4,6.8,5.4,11C78.3,243.7,71.4,250.4,61.4,250.4z M42.7,241.9c5.2,4.5,11.8,7,18.7,7.1
	c9.3,0,15.6-5.9,15.6-14.8c0-3.8-1.6-7-4.9-10c-1.4-1.3-3-2.4-4.6-3.4c-0.9-0.6-1.7-1.1-2.6-1.6c-4.1-2.5-7.6-4.6-7.7-7.9
	c0-2.6,1.2-3.8,2.2-4.3c1.4-0.8,3-1.2,4.6-1.2c5.2,0.2,10.2,2.5,13.7,6.3l1.7-7.9c-4.1-4.1-11-5.9-15.9-5.9c-7.3,0-14.7,4-14.7,13
	c0,7.5,6.1,11.1,11.4,14.3c4.2,2.5,8.2,4.9,8.2,8.9c0.1,2-0.8,4-2.5,5.2c-1.6,1.1-3.5,1.7-5.4,1.6c-5.6,0-12.6-3.4-15.9-7.6
	L42.7,241.9z M207.1,249.9l-10.9-2.3l7.9-37.3l10.8,2.3L207.1,249.9z M197.9,246.5l8.1,1.7l7.4-34.6l-8.1-1.7L197.9,246.5z
	 M174.2,242.2c-7,0-11.8-4.6-11.8-11.1c0-7,4.8-12.3,11.2-12.3c3.6,0,8.7,2.1,10.5,5.2l0.1,0.2l-3.4,15.9l-0.2,0.2
	C178.8,241.7,176.5,242.3,174.2,242.2L174.2,242.2z M173.6,220.2c-6.4,0-9.8,5.6-9.8,10.9c0,5.7,4.3,9.7,10.4,9.7
	c1.9,0.1,3.8-0.4,5.4-1.4l3.1-14.9C181.1,222,176.7,220.2,173.6,220.2L173.6,220.2z M236.8,241.8c-6.4,0-10.9-4.4-10.9-10.7
	c0-6.1,3.8-12.5,10.9-12.5c5.8-0.2,10.6,4.3,10.8,10c0,0.2,0,0.5,0,0.7C247.7,235.5,244,241.8,236.8,241.8L236.8,241.8z M236.8,220
	c-6.2,0-9.5,5.6-9.5,11.1s3.9,9.3,9.5,9.3c6.2,0,9.4-5.6,9.4-11.1S242.4,220,236.8,220L236.8,220z M211.6,209.4
	c-1.7,0-3.3-0.5-4.6-1.6c-1.3-1.1-2-2.7-2-4.4c0-1.6,0.6-3.1,1.7-4.3s2.7-1.8,4.3-1.8c1.7,0,3.3,0.5,4.5,1.6c1.3,1.1,2,2.7,2,4.4
	c0,1.6-0.6,3.1-1.6,4.3C214.8,208.8,213.2,209.4,211.6,209.4L211.6,209.4z M211.1,198.7c-1.2,0-2.4,0.5-3.2,1.4
	c-0.9,0.9-1.3,2.1-1.3,3.4c0,1.3,0.5,2.5,1.5,3.3s2.3,1.3,3.7,1.2c1.2,0,2.4-0.5,3.3-1.4c0.8-0.9,1.3-2.1,1.3-3.3
	c0.1-1.3-0.5-2.5-1.5-3.4C213.7,199.1,212.4,198.7,211.1,198.7L211.1,198.7z"/>
<path class="st1" d="M264,68.4l-3.8,17.8c-0.4,1.6-0.7,3.3-0.8,5c-0.1,1.8,0.5,3.5,1.7,4.8c1.2,1.2,2.6,2.2,4.1,2.8
	c1.7,0.7,3.5,1.2,5.3,1.5c1.9,0.3,3.6,0.4,5.1,0.6l1.7-7.9c-2.5,0-7.7-0.3-7.7-3.6c0-0.5,0.1-1,0.2-1.6l3.6-17.3l8.9,1.8l1.6-7.6
	l-8.8-1.8l2-9.4l-9.5-2l-2,9.5l-7.7-1.6l-1.6,7.5L264,68.4z M233.9,99.2l5.2-24.4c0.8-0.7,1.8-1.2,2.9-1.4c1.1-0.3,2.2-0.4,3.3-0.4
	c1.2,0,2.5,0.2,3.7,0.5s2.4,0.7,3.5,1.3l2-9.4c-2.2-1.1-4.5-1.6-6.9-1.7c-2.8,0-5.6,1-7.8,2.8l0.8-3.5l-8.5-1.8l-7.6,36L233.9,99.2z
	 M204.8,58.2L208,81l-15.5-3.2L204.8,58.2z M182,94.2l5.7-9l21.6,4.6l1.5,10.5l10.4,2.2l-9.5-52.8l-9.6-2L171.8,92L182,94.2z
	 M130.2,74.9c1-3.8,4.5-6.5,8.5-6.4c2.2-0.1,4.3,0.7,5.9,2.2c1.6,1.5,2.4,3.6,2.4,5.8c0,0.6,0,1.2-0.1,1.8L130.2,74.9z M119.7,81.4
	c0,12.6,10.6,18.8,22.1,18.8c2.5,0.1,5.1-0.4,7.4-1.3l1.7-8.2l-0.7-0.2c-2.4,1.1-5,1.7-7.7,1.7c-5.9,0-13.9-2.4-13.9-9.7V82
	l25.4,5.4c0.9-2.9,1.4-5.9,1.4-8.9c0-10.3-6.7-17.8-17.3-17.8C127.2,60.7,119.7,70.8,119.7,81.4 M85.9,96l5.5-25.7
	c1.6-1.2,3.5-1.8,5.5-1.8c3.9,0,7.6,2.1,7.6,6.5c0,0.7-0.1,1.4-0.2,2.1l-4.6,21.7l9.5,2l4.8-22.5c0.3-1.4,0.5-2.9,0.5-4.4
	c0-8.1-6.7-13.3-14.4-13.3c-3-0.1-5.8,0.8-8.3,2.5l0.7-3.3l-8.4-1.9l-7.6,36L85.9,96z M66,53.4c0,1.5,0.6,2.9,1.7,3.8
	c1.2,0.9,2.6,1.4,4.1,1.4c1.4,0,2.8-0.5,3.8-1.6c1-1,1.5-2.4,1.4-3.8c0.1-1.5-0.6-2.9-1.7-3.9c-1.2-0.9-2.6-1.4-4.1-1.4
	c-1.4,0-2.8,0.6-3.7,1.6C66.5,50.6,66,52,66,53.4 M66.8,99l7.6-36l-9.5-2l-7.6,36L66.8,99z M25.8,99l4.6-21.4l21.9,4.7l1.8-8.4
	l-21.9-4.6l2.2-10.5L58,63.9l1.8-8.5l-33.3-7L16.1,97L25.8,99z"/>
<path d="M222,103.3l-11.9-2.5l-1.5-10.5L188,85.9l-5.6,9l-11.7-2.5l31.1-45.6l10.5,2.2l0.1,0.5L222,103.3z M211.3,99.6l8.9,1.9
	L211,50.2l-8.6-1.8L173,91.5l8.7,1.8l5.6-9l22.5,4.8L211.3,99.6z M109.7,101.8l-10.9-2.3l4.7-22.4c0.1-0.7,0.2-1.3,0.2-2
	c0-4-3.5-5.8-6.9-5.8c-1.7-0.1-3.5,0.5-4.9,1.5L86.3,97l-10.8-2.4l7.9-37.3l9.8,2.1l-0.5,2.4c2.2-1.1,4.7-1.7,7.3-1.7
	c8.6,0,15.1,6,15.1,14c0,1.5-0.2,3.1-0.5,4.6L109.7,101.8z M100.5,98.4l8.1,1.7l4.7-21.9c0.3-1.4,0.5-2.8,0.5-4.3
	c0-7.2-5.9-12.6-13.8-12.6c-2.8-0.1-5.6,0.8-7.9,2.3l-1.5,1.1l1-4.4l-7.1-1.5l-7.3,34.6l8.1,1.8L90.6,70l0.2-0.2
	c1.7-1.4,3.8-2.1,6-2c4.1,0,8.3,2.2,8.3,7.2c0,0.8-0.1,1.5-0.2,2.3L100.5,98.4z M276.1,101.6h-0.6c-1.5-0.1-3.2-0.3-5.1-0.6
	c-1.9-0.3-3.7-0.8-5.5-1.5c-1.6-0.7-3.1-1.7-4.4-3c-1.3-1.5-1.9-3.4-1.9-5.4c0.1-1.8,0.3-3.5,0.8-5.2l3.6-17.1l-7.7-1.6l1.9-8.9
	l7.7,1.6l2-9.4l10.8,2.3l-2,9.4l8.8,1.9l-1.8,8.9l-8.9-1.8l-3.3,16.7c-0.1,0.5-0.2,0.9-0.2,1.4c0,2.6,4.9,2.9,7,2.9h0.9L276.1,101.6
	z M257.1,66.2l7.7,1.6l-3.9,18.5c-0.4,1.6-0.7,3.2-0.8,4.8c-0.1,1.6,0.4,3.2,1.5,4.4c1.1,1.1,2.4,2.1,3.9,2.7
	c1.6,0.7,3.4,1.2,5.1,1.4c1.6,0.2,3.1,0.4,4.5,0.5l1.4-6.5c-4.9-0.2-7.5-1.7-7.5-4.3c0-0.6,0.1-1.1,0.2-1.7l3.8-18l8.9,1.8l1.3-6.2
	l-8.8-1.8l2-9.4l-8.1-1.7l-2,9.5l-7.7-1.6L257.1,66.2z M141.8,100.8c-5.6,0.1-11.1-1.5-15.7-4.8c-4.6-3.5-7.2-8.9-7-14.7l0,0
	c0-13.4,9.8-21.4,19.3-21.4c10.6,0,18,7.6,18,18.5c0,3.1-0.5,6.2-1.4,9.1l-0.2,0.6l-25.3-5.3c0.3,6.8,8.4,8.6,13.2,8.6
	c2.6,0,5.1-0.5,7.4-1.6l0.2-0.1l1.6,0.3l-1.9,9.2l-0.3,0.1C147.1,100.4,144.5,100.9,141.8,100.8z M120.4,81.4
	c-0.2,5.3,2.3,10.4,6.5,13.6c4.3,3.1,9.5,4.6,14.9,4.5c2.4,0,4.7-0.3,6.9-1.2l1.4-7c-2.4,1-4.9,1.6-7.5,1.5
	c-7.2,0-14.6-3.2-14.6-10.4v-1.3l25.6,5.5c0.8-2.6,1.2-5.4,1.2-8.1c0-10.2-6.7-17.1-16.6-17.1C129.5,61.4,120.4,68.8,120.4,81.4
	L120.4,81.4z M234.4,100l-10.9-2.3l7.9-37.4l9.8,2l-0.5,2.5c2-1.2,4.3-1.9,6.7-1.9c2.5,0.1,5,0.7,7.2,1.8l0.5,0.2l-2.4,10.9
	l-0.8-0.5c-1-0.6-2.1-1-3.3-1.3c-1.2-0.3-2.3-0.5-3.5-0.5c-1.1,0-2.1,0.2-3.1,0.4c-0.9,0.2-1.7,0.6-2.4,1.1L234.4,100z M225.2,96.6
	l8.1,1.7l5.1-23.9l0.2-0.2c0.9-0.8,2-1.4,3.2-1.6c1.1-0.3,2.3-0.4,3.4-0.5c1.3,0,2.6,0.2,3.9,0.6c1,0.2,1.9,0.6,2.8,1l1.7-8
	c-1.9-0.9-4.1-1.4-6.2-1.4c-2.7,0-5.3,1-7.3,2.7l-1.5,1.2l1-4.8l-7.1-1.5L225.2,96.6z M26.3,99.8l-11-2.4L26,47.5l34.6,7.3l-2.1,9.8
	l-23.6-5.1L33,68.6l21.9,4.6l-2.1,9.7l-21.9-4.7L26.3,99.8z M16.9,96.4l8.3,1.8l4.6-21.4l21.9,4.7l1.5-7l-21.9-4.6l2.5-11.8
	l23.7,5.1l1.4-7.1L27,49.3L16.9,96.4z M67.3,99.8l-10.8-2.2l7.9-37.3l10.8,2.3L67.3,99.8z M58.1,96.5l8.1,1.7l7.4-34.6l-8.1-1.7
	L58.1,96.5z M208.8,81.9l-17.4-3.7l13.8-22.1L208.8,81.9z M193.6,77.3l13.5,2.8l-2.8-20L193.6,77.3z M147.4,79.3l-18.1-3.8l0.2-0.7
	c1.1-4.1,4.9-7,9.2-6.9c2.4-0.1,4.7,0.8,6.4,2.4c1.7,1.6,2.7,4,2.6,6.3c0,0.7,0,1.3-0.2,2L147.4,79.3z M131.1,74.4l15.1,3.2
	c0-0.3,0-0.6,0-1c0.1-2-0.7-3.9-2.1-5.3c-1.5-1.4-3.4-2.1-5.4-2C135.3,69.2,132.3,71.3,131.1,74.4L131.1,74.4z M71.8,59.4
	c-1.7,0-3.3-0.5-4.6-1.6s-2-2.7-2-4.4c0-1.6,0.6-3.1,1.7-4.3c1.1-1.2,2.7-1.9,4.3-1.8c1.7,0,3.3,0.5,4.5,1.6c1.3,1.1,2,2.7,1.9,4.4
	c0,1.6-0.6,3.1-1.6,4.3C75,58.8,73.4,59.4,71.8,59.4L71.8,59.4z M71.2,48.7c-1.2,0-2.4,0.5-3.3,1.4c-0.9,0.9-1.3,2.1-1.3,3.4
	c0,1.3,0.5,2.5,1.5,3.3s2.3,1.3,3.7,1.2c1.2,0,2.4-0.5,3.3-1.4c0.8-0.9,1.3-2.1,1.3-3.3c0-1.3-0.5-2.5-1.4-3.3
	C73.9,49.1,72.6,48.7,71.2,48.7L71.2,48.7z"/>
<script  xmlns=""></script>
<script  xmlns=""></script>
</svg>
