<?xml version="1.0" encoding="utf-8"?>
<!-- Generator: Adobe Illustrator 28.0.0, SVG Export Plug-In . SVG Version: 6.00 Build 0)  -->
<svg version="1.1"
	 id="Layer_1" xmlns:cc="http://creativecommons.org/ns#" xmlns:svg="http://www.w3.org/2000/svg" xmlns:sodipodi="http://sodipodi.sourceforge.net/DTD/sodipodi-0.dtd" xmlns:rdf="http://www.w3.org/1999/02/22-rdf-syntax-ns#" xmlns:inkscape="http://www.inkscape.org/namespaces/inkscape" xmlns:dc="http://purl.org/dc/elements/1.1/"
	 xmlns="http://www.w3.org/2000/svg" xmlns:xlink="http://www.w3.org/1999/xlink" x="0px" y="0px" viewBox="0 0 820 952"
	 style="enable-background:new 0 0 820 952;" xml:space="preserve">
<style type="text/css">
	.st0{fill:#333333;stroke:#000000;stroke-width:3;stroke-miterlimit:10;}
</style>
<sodipodi:namedview  bordercolor="#666666" borderopacity="1" gridtolerance="10" guidetolerance="10" id="namedview15" inkscape:current-layer="Layer_1" inkscape:cx="410" inkscape:cy="476" inkscape:pageopacity="0" inkscape:pageshadow="2" inkscape:window-height="480" inkscape:window-maximized="0" inkscape:window-width="640" inkscape:window-x="0" inkscape:window-y="0" inkscape:zoom="0.24789916" objecttolerance="10" pagecolor="#ffffff" showgrid="false">
	</sodipodi:namedview>
<g>
	<path d="M410,226.2v499.6 M160.2,476h499.6"/>
	<path class="st0" d="M659.8,867.5h-76.9V725.8H448.4v141.7h-76.9V725.8H237.1v141.7h-76.9V725.8H18.5v-76.9h141.7V514.4H18.5v-76.9
		h141.7V303.1H18.5v-76.9h141.7V84.5h76.9v141.7h134.5V84.5h76.9v141.7H583V84.5h76.9v141.7h141.7v76.9H659.8v134.5h141.7v76.9
		H659.8V649h141.7v76.9H659.8V867.5z M448.4,648.9h134.5V514.4H448.4V648.9z M237.1,648.9h134.5V514.4H237.1V648.9z M448.4,437.6
		h134.5V303.1H448.4V437.6z M237.1,437.6h134.5V303.1H237.1V437.6z"/>
</g>
<g>
	<path class="st0" d="M251.1,425.4V315.2h33.3l20,75.2l19.8-75.2h33.4v110.2h-20.7v-86.8L315,425.4h-21.4l-21.8-86.8v86.8
		L251.1,425.4L251.1,425.4z"/>
</g>
</svg>
