<svg width="73" height="74" viewBox="0 0 73 74" fill="none" xmlns="http://www.w3.org/2000/svg">
<path d="M0 19C0 8.50659 8.50659 0 19 0H54C64.4934 0 73 8.50659 73 19V55C73 65.4934 64.4934 74 54 74H19C8.50659 74 0 65.4934 0 55V19Z" fill="white"/>
<path d="M17.0591 36.6611C17.0591 46.1802 24.9717 54.0928 34.4907 54.0928C40.25 54.0928 45.3599 51.1704 48.5898 46.7954C49.1709 46.0435 48.9829 45.1035 48.2993 44.6763C47.5815 44.249 46.7612 44.4712 46.2485 45.1719C43.6167 48.7949 39.3613 51.1704 34.4907 51.1875C26.4243 51.2046 19.9644 44.7275 19.9644 36.6611C19.9644 28.5947 26.4243 22.1519 34.4907 22.1519C41.4292 22.1519 47.1714 26.9028 48.6411 33.3628H46.1802C44.9668 33.3628 44.6592 34.2002 45.3086 35.1401L49.1367 40.5918C49.6836 41.3608 50.5039 41.3779 51.0679 40.5918L54.8789 35.1572C55.5625 34.2002 55.2378 33.3628 54.0244 33.3628H51.5977C50.0425 25.3647 42.8989 19.2295 34.4907 19.2295C24.9717 19.2295 17.0591 27.125 17.0591 36.6611ZM28.3042 43.4116C28.3042 44.6934 28.8682 45.2915 30.0474 45.2915H38.8999C40.0791 45.2915 40.6431 44.6934 40.6431 43.4116V36.6099C40.6431 35.4136 40.1475 34.8154 39.1392 34.7471V32.7305C39.1392 29.5859 37.2593 27.4668 34.4736 27.4668C31.688 27.4668 29.8081 29.5859 29.8081 32.7305V34.7471C28.7998 34.8154 28.3042 35.4136 28.3042 36.6099V43.4116ZM31.5854 34.73V32.5425C31.5854 30.5259 32.7476 29.1929 34.4736 29.1929C36.1997 29.1929 37.3618 30.5259 37.3618 32.5425V34.73H31.5854Z" fill="#FF5F65"/>
</svg>
