<svg width="39" height="36" viewBox="0 0 39 36" fill="none" xmlns="http://www.w3.org/2000/svg">
<path d="M0.059082 17.6611C0.059082 27.1802 7.97168 35.0928 17.4907 35.0928C23.25 35.0928 28.3599 32.1704 31.5898 27.7954C32.1709 27.0435 31.9829 26.1035 31.2993 25.6763C30.5815 25.249 29.7612 25.4712 29.2485 26.1719C26.6167 29.7949 22.3613 32.1704 17.4907 32.1875C9.42432 32.2046 2.96436 25.7275 2.96436 17.6611C2.96436 9.59473 9.42432 3.15186 17.4907 3.15186C24.4292 3.15186 30.1714 7.90283 31.6411 14.3628H29.1802C27.9668 14.3628 27.6592 15.2002 28.3086 16.1401L32.1367 21.5918C32.6836 22.3608 33.5039 22.3779 34.0679 21.5918L37.8789 16.1572C38.5625 15.2002 38.2378 14.3628 37.0244 14.3628H34.5977C33.0425 6.36475 25.8989 0.229492 17.4907 0.229492C7.97168 0.229492 0.059082 8.125 0.059082 17.6611ZM11.3042 24.4116C11.3042 25.6934 11.8682 26.2915 13.0474 26.2915H21.8999C23.0791 26.2915 23.6431 25.6934 23.6431 24.4116V17.6099C23.6431 16.4136 23.1475 15.8154 22.1392 15.7471V13.7305C22.1392 10.5859 20.2593 8.4668 17.4736 8.4668C14.688 8.4668 12.8081 10.5859 12.8081 13.7305V15.7471C11.7998 15.8154 11.3042 16.4136 11.3042 17.6099V24.4116ZM14.5854 15.73V13.5425C14.5854 11.5259 15.7476 10.1929 17.4736 10.1929C19.1997 10.1929 20.3618 11.5259 20.3618 13.5425V15.73H14.5854Z" fill="#FF5F65"/>
</svg>
