<svg width="361" height="62" viewBox="0 0 361 62" fill="none" xmlns="http://www.w3.org/2000/svg">
<path d="M0 11C0 4.92487 4.92487 0 11 0H350C356.075 0 361 4.92487 361 11V51C361 57.0751 356.075 62 350 62H11C4.92487 62 0 57.0751 0 51V11Z" fill="white"/>
<path d="M16.9492 25V18.6836H17.9688V19.6445H18.0625C18.3438 18.9648 18.9414 18.5723 19.7676 18.5723C20.623 18.5723 21.2207 19.0234 21.5137 19.6797H21.6074C21.9473 19.0117 22.668 18.5723 23.541 18.5723C24.8301 18.5723 25.5508 19.3105 25.5508 20.6348V25H24.5312V20.8691C24.5312 19.9375 24.1035 19.4746 23.2129 19.4746C22.334 19.4746 21.7539 20.1367 21.7539 20.9395V25H20.7344V20.7109C20.7344 19.9609 20.2188 19.4746 19.4219 19.4746C18.5957 19.4746 17.9688 20.1953 17.9688 21.0859V25H16.9492Z" fill="black"/>
<path d="M29.5783 25.1113C27.7795 25.1113 26.6662 23.8691 26.6662 21.8477V21.8359C26.6662 19.8086 27.7795 18.5723 29.5783 18.5723C31.3772 18.5723 32.4904 19.8086 32.4904 21.8359V21.8477C32.4904 23.8691 31.3772 25.1113 29.5783 25.1113ZM29.5783 24.209C30.7736 24.209 31.4475 23.3359 31.4475 21.8477V21.8359C31.4475 20.3418 30.7736 19.4746 29.5783 19.4746C28.383 19.4746 27.7092 20.3418 27.7092 21.8359V21.8477C27.7092 23.3359 28.383 24.209 29.5783 24.209Z" fill="black"/>
<path d="M36.8051 25.1113C35.9262 25.1113 35.2231 24.6953 34.8363 23.9922H34.7426V25H33.7231V16.1758H34.7426V19.6797H34.8363C35.182 19.0059 35.9379 18.5723 36.8051 18.5723C38.4106 18.5723 39.4535 19.8555 39.4535 21.8359V21.8477C39.4535 23.8164 38.4047 25.1113 36.8051 25.1113ZM36.5707 24.209C37.725 24.209 38.4106 23.3184 38.4106 21.8477V21.8359C38.4106 20.3652 37.725 19.4746 36.5707 19.4746C35.4223 19.4746 34.7192 20.377 34.7192 21.8359V21.8477C34.7192 23.3066 35.4223 24.209 36.5707 24.209Z" fill="black"/>
<path d="M41.1666 17.4648C40.7799 17.4648 40.4635 17.1484 40.4635 16.7617C40.4635 16.375 40.7799 16.0586 41.1666 16.0586C41.5533 16.0586 41.8698 16.375 41.8698 16.7617C41.8698 17.1484 41.5533 17.4648 41.1666 17.4648ZM40.651 25V18.6836H41.6705V25H40.651Z" fill="black"/>
<path d="M43.243 25V16.1758H44.2625V25H43.243Z" fill="black"/>
<path d="M48.3897 25.1113C46.585 25.1113 45.4952 23.8457 45.4952 21.8652V21.8594C45.4952 19.9082 46.6084 18.5723 48.3252 18.5723C50.042 18.5723 51.085 19.8496 51.085 21.7363V22.1348H46.5381C46.5674 23.4414 47.2881 24.2031 48.4131 24.2031C49.2686 24.2031 49.7959 23.7988 49.9659 23.418L49.9893 23.3652H51.0088L50.9971 23.4121C50.7803 24.2676 49.878 25.1113 48.3897 25.1113ZM48.3194 19.4805C47.3819 19.4805 46.667 20.1191 46.5557 21.3203H50.0479C49.9424 20.0723 49.251 19.4805 48.3194 19.4805Z" fill="black"/>
<path d="M19.5957 48.4609C18.2627 46.6904 17.6543 44.626 17.6543 42.083C17.6543 39.5469 18.2559 37.4756 19.5957 35.7051H20.5938C19.6025 36.9697 18.8643 39.7109 18.8643 42.083C18.8643 44.4756 19.6025 47.1963 20.5938 48.4609H19.5957Z" fill="#007AFF"/>
<path d="M22.0383 46V45.1523L25.3742 41.543C26.632 40.1826 27.0012 39.6699 27.0012 38.8086V38.7949C27.0012 37.7559 26.2971 36.9766 25.135 36.9766C23.9524 36.9766 23.1662 37.749 23.1662 38.9111L23.1594 38.9248L21.9836 38.918L21.9699 38.9111C21.9768 37.1611 23.3303 35.9033 25.217 35.9033C26.9397 35.9033 28.259 37.0723 28.259 38.665V38.6787C28.259 39.8066 27.7736 40.627 25.9895 42.4658L23.7473 44.7832V44.8926H28.4231V46H22.0383Z" fill="#007AFF"/>
<path d="M32.4926 46V37.5029H32.3832L29.8744 39.3213V38.0225L32.4994 36.1357H33.7231V46H32.4926Z" fill="#007AFF"/>
<path d="M39.5221 46.1641C37.485 46.1641 36.1656 45.0293 36.0358 43.4707L36.0289 43.3887H37.2115L37.2184 43.457C37.3141 44.4277 38.2096 45.0977 39.5221 45.0977C40.8141 45.0977 41.6959 44.373 41.6959 43.3271V43.3135C41.6959 42.1035 40.8278 41.4268 39.4469 41.4268H38.2096V40.3877H39.3922C40.568 40.3877 41.3883 39.6631 41.3883 38.6787V38.665C41.3883 37.6328 40.7115 37.0381 39.5084 37.0381C38.3463 37.0381 37.5192 37.6533 37.4166 38.6514L37.4098 38.7197H36.2272L36.234 38.6514C36.3912 37.0449 37.6627 35.9717 39.5084 35.9717C41.3883 35.9717 42.6256 37.0176 42.6256 38.5146V38.5283C42.6256 39.7451 41.7643 40.5791 40.5338 40.8389V40.8662C41.9694 40.9893 42.9469 41.8848 42.9469 43.2861V43.2998C42.9469 44.9473 41.4977 46.1641 39.5221 46.1641Z" fill="#007AFF"/>
<path d="M45.1844 48.4609H44.1864C45.1776 47.1963 45.9159 44.4756 45.9159 42.083C45.9159 39.7109 45.1776 36.9697 44.1864 35.7051H45.1844C46.5243 37.4756 47.1258 39.5469 47.1258 42.083C47.1258 44.626 46.5174 46.6904 45.1844 48.4609Z" fill="#007AFF"/>
<path d="M56.2424 46.2324C54.4036 46.2324 53.0911 45.0498 52.9475 43.4707L52.9407 43.3955H54.1233L54.1301 43.4502C54.2463 44.3936 55.1008 45.1455 56.2561 45.1455C57.5686 45.1455 58.4709 44.209 58.4709 42.876V42.8623C58.4709 41.5498 57.5549 40.6133 56.2766 40.6133C55.6204 40.6133 55.0598 40.8115 54.636 41.2148C54.4651 41.3789 54.3079 41.5703 54.1848 41.8027H53.1184L53.6379 36.1357H59.1272V37.2363H54.6086L54.2737 40.5723H54.3831C54.8206 39.9092 55.593 39.5469 56.4885 39.5469C58.3411 39.5469 59.6741 40.9346 59.6741 42.8418V42.8555C59.6741 44.8447 58.2454 46.2324 56.2424 46.2324Z" fill="#007AFF"/>
<path d="M64.6049 46.1641C62.5678 46.1641 61.2485 45.0293 61.1186 43.4707L61.1118 43.3887H62.2944L62.3012 43.457C62.3969 44.4277 63.2924 45.0977 64.6049 45.0977C65.8969 45.0977 66.7788 44.373 66.7788 43.3271V43.3135C66.7788 42.1035 65.9106 41.4268 64.5297 41.4268H63.2924V40.3877H64.4751C65.6508 40.3877 66.4711 39.6631 66.4711 38.6787V38.665C66.4711 37.6328 65.7944 37.0381 64.5913 37.0381C63.4292 37.0381 62.602 37.6533 62.4995 38.6514L62.4926 38.7197H61.31L61.3169 38.6514C61.4741 37.0449 62.7456 35.9717 64.5913 35.9717C66.4711 35.9717 67.7085 37.0176 67.7085 38.5146V38.5283C67.7085 39.7451 66.8471 40.5791 65.6167 40.8389V40.8662C67.0522 40.9893 68.0297 41.8848 68.0297 43.2861V43.2998C68.0297 44.9473 66.5805 46.1641 64.6049 46.1641Z" fill="#007AFF"/>
<path d="M72.0309 46V37.5029H71.9215L69.4128 39.3213V38.0225L72.0378 36.1357H73.2614V46H72.0309Z" fill="#007AFF"/>
<path d="M75.6083 42.582V41.4746H80.202V42.582H75.6083Z" fill="#007AFF"/>
<path d="M82.3096 46L86.7393 37.332V37.2363H81.462V36.1357H87.9903V37.2773L83.6016 46H82.3096Z" fill="#007AFF"/>
<path d="M92.6136 46.1641C90.5765 46.1641 89.2571 45.0293 89.1272 43.4707L89.1204 43.3887H90.303L90.3099 43.457C90.4056 44.4277 91.3011 45.0977 92.6136 45.0977C93.9056 45.0977 94.7874 44.373 94.7874 43.3271V43.3135C94.7874 42.1035 93.9192 41.4268 92.5384 41.4268H91.3011V40.3877H92.4837C93.6595 40.3877 94.4798 39.6631 94.4798 38.6787V38.665C94.4798 37.6328 93.803 37.0381 92.5999 37.0381C91.4378 37.0381 90.6106 37.6533 90.5081 38.6514L90.5013 38.7197H89.3186L89.3255 38.6514C89.4827 37.0449 90.7542 35.9717 92.5999 35.9717C94.4798 35.9717 95.7171 37.0176 95.7171 38.5146V38.5283C95.7171 39.7451 94.8558 40.5791 93.6253 40.8389V40.8662C95.0608 40.9893 96.0384 41.8848 96.0384 43.2861V43.2998C96.0384 44.9473 94.5891 46.1641 92.6136 46.1641Z" fill="#007AFF"/>
<path d="M100.04 46V37.5029H99.9302L97.4214 39.3213V38.0225L100.046 36.1357H101.27V46H100.04Z" fill="#007AFF"/>
<path d="M107.199 46.2324C105.394 46.2324 103.487 44.9609 103.487 41.249V41.2354C103.487 37.8721 104.888 35.9033 107.281 35.9033C108.935 35.9033 110.166 36.874 110.501 38.3301L110.521 38.4189H109.284L109.257 38.3438C108.956 37.5166 108.265 37.0039 107.267 37.0039C105.476 37.0039 104.745 38.7539 104.67 40.8115C104.663 40.8867 104.663 40.9688 104.663 41.0439H104.793C105.155 40.2373 106.085 39.5195 107.418 39.5195C109.27 39.5195 110.651 40.9277 110.651 42.8213V42.835C110.651 44.8037 109.188 46.2324 107.199 46.2324ZM104.957 42.8213C104.957 44.1201 105.934 45.1455 107.185 45.1455C108.423 45.1455 109.414 44.1406 109.414 42.8623V42.8486C109.414 41.5361 108.484 40.5928 107.206 40.5928C105.927 40.5928 104.957 41.5293 104.957 42.8145V42.8213Z" fill="#007AFF"/>
</svg>
