<svg width="141" height="21" viewBox="0 0 141 21" fill="none" xmlns="http://www.w3.org/2000/svg">
<path d="M0.456017 20V1.68066H3.10934L9.38082 16.9658H9.58395L15.8554 1.68066H18.5088V20H16.3759V6.00977H16.2363L10.4472 20H8.51754L2.72848 6.00977H2.58883V20H0.456017ZM23.6613 3.67383C22.8234 3.67383 22.1379 2.98828 22.1379 2.15039C22.1379 1.3125 22.8234 0.626953 23.6613 0.626953C24.4992 0.626953 25.1847 1.3125 25.1847 2.15039C25.1847 2.98828 24.4992 3.67383 23.6613 3.67383ZM22.5441 20V6.31445H24.7531V20H22.5441ZM34.1078 20.2412C30.2738 20.2412 27.8236 17.4609 27.8236 13.1191V13.0938C27.8236 8.84082 30.2611 6.07324 34.0951 6.07324C37.4213 6.07324 39.4144 7.99023 39.8207 10.4277L39.8334 10.5039H37.6371L37.6244 10.4658C37.2816 9.12012 36.0629 8.02832 34.0951 8.02832C31.6322 8.02832 30.0834 10.0088 30.0834 13.0938V13.1191C30.0834 16.2676 31.6576 18.2861 34.0951 18.2861C35.9359 18.2861 37.1039 17.4736 37.6117 15.9502L37.6371 15.874L39.8207 15.8613L39.7953 16.001C39.2367 18.4766 37.3959 20.2412 34.1078 20.2412ZM42.7769 20V0.880859H44.9859V8.37109H45.189C45.8746 6.92383 47.1568 6.07324 49.1754 6.07324C52.2476 6.07324 53.9615 7.88867 53.9615 11.1387V20H51.7525V11.6719C51.7525 9.20898 50.7369 8.02832 48.5533 8.02832C46.3697 8.02832 44.9859 9.50098 44.9859 11.9004V20H42.7769ZM61.3103 20.2412C58.7078 20.2412 56.74 18.667 56.74 16.1787V16.1533C56.74 13.7158 58.5428 12.3066 61.7293 12.1162L65.6521 11.875V10.6309C65.6521 8.94238 64.6238 8.02832 62.5799 8.02832C60.9422 8.02832 59.8631 8.6377 59.5076 9.7041L59.4949 9.74219H57.2859L57.2986 9.66602C57.6541 7.52051 59.7361 6.07324 62.656 6.07324C65.9949 6.07324 67.8611 7.78711 67.8611 10.6309V20H65.6521V17.9814H65.449C64.5857 19.4414 63.1512 20.2412 61.3103 20.2412ZM58.9998 16.1279C58.9998 17.5117 60.1805 18.3242 61.7674 18.3242C64.0144 18.3242 65.6521 16.8516 65.6521 14.8965V13.6523L61.9959 13.8809C59.9139 14.0078 58.9998 14.7441 58.9998 16.1025V16.1279ZM77.0762 20.2412C73.166 20.2412 70.8047 17.499 70.8047 13.208V13.1953C70.8047 8.96777 73.2168 6.07324 76.9365 6.07324C80.6562 6.07324 82.916 8.84082 82.916 12.9287V13.792H73.0645C73.1279 16.623 74.6895 18.2734 77.127 18.2734C78.9805 18.2734 80.123 17.3975 80.4912 16.5723L80.542 16.458H82.751L82.7256 16.5596C82.2559 18.4131 80.3008 20.2412 77.0762 20.2412ZM76.9238 8.04102C74.8926 8.04102 73.3438 9.4248 73.1025 12.0273H80.6689C80.4404 9.32324 78.9424 8.04102 76.9238 8.04102ZM86.0627 20V0.880859H88.2717V20H86.0627ZM105.293 20.4316C101.281 20.4316 98.691 18.3242 98.4244 15.3408L98.4117 15.2012H100.697L100.71 15.3408C100.875 17.1689 102.779 18.3242 105.42 18.3242C107.908 18.3242 109.723 17.042 109.723 15.1758V15.1631C109.723 13.6396 108.67 12.5986 106.156 12.04L104.125 11.5957C100.456 10.7832 98.8688 9.09473 98.8688 6.44141V6.42871C98.8815 3.39453 101.535 1.24902 105.318 1.24902C108.974 1.24902 111.526 3.40723 111.716 6.13672L111.729 6.31445H109.444L109.419 6.14941C109.165 4.53711 107.641 3.34375 105.255 3.35645C102.969 3.36914 101.205 4.44824 101.205 6.36523V6.37793C101.205 7.83789 102.208 8.82812 104.696 9.37402L106.727 9.83105C110.548 10.6816 112.059 12.2178 112.059 14.8584V14.8711C112.059 18.2988 109.38 20.4316 105.293 20.4316ZM120.766 20.2412C116.856 20.2412 114.495 17.499 114.495 13.208V13.1953C114.495 8.96777 116.907 6.07324 120.627 6.07324C124.347 6.07324 126.606 8.84082 126.606 12.9287V13.792H116.755C116.818 16.623 118.38 18.2734 120.817 18.2734C122.671 18.2734 123.813 17.3975 124.181 16.5723L124.232 16.458H126.441L126.416 16.5596C125.946 18.4131 123.991 20.2412 120.766 20.2412ZM120.614 8.04102C118.583 8.04102 117.034 9.4248 116.793 12.0273H124.359C124.131 9.32324 122.633 8.04102 120.614 8.04102ZM129.753 20V0.880859H131.962V8.37109H132.165C132.851 6.92383 134.133 6.07324 136.151 6.07324C139.224 6.07324 140.938 7.88867 140.938 11.1387V20H138.729V11.6719C138.729 9.20898 137.713 8.02832 135.529 8.02832C133.346 8.02832 131.962 9.50098 131.962 11.9004V20H129.753Z" fill="black"/>
</svg>
