<svg width="65" height="58" viewBox="0 0 65 58" fill="none" xmlns="http://www.w3.org/2000/svg">
<rect width="65" height="58" rx="11" fill="white"/>
<path d="M41.9556 24.928L39.1646 22.1369C38.1678 21.1401 36.4732 21.5389 36.0745 22.8347C35.7754 23.7318 34.7786 24.2302 33.8815 24.0308C31.8879 23.5324 29.1965 20.9407 28.6981 18.8475C28.3991 17.9503 28.9971 16.9535 29.8943 16.6545C31.1901 16.2558 31.5888 14.5612 30.592 13.5644L27.801 10.7733C27.0035 10.0756 25.8074 10.0756 25.1096 10.7733L23.2157 12.6673C21.3217 14.6609 23.415 19.9439 28.1 24.6289C32.785 29.3139 38.0681 31.5069 40.0617 29.5133L41.9556 27.6193C42.6534 26.8219 42.6534 25.6257 41.9556 24.928Z" fill="#007AFF"/>
<path d="M29.5964 41.6172H28.5768C28.4909 41.2852 28.3054 41.0137 28.0202 40.8027C27.739 40.5879 27.3815 40.4805 26.9479 40.4805C26.3815 40.4805 25.9304 40.6914 25.5944 41.1133C25.2624 41.5352 25.0964 42.1035 25.0964 42.8184C25.0964 43.5449 25.2643 44.125 25.6003 44.5586C25.9362 44.9883 26.3854 45.2031 26.9479 45.2031C27.3737 45.2031 27.7272 45.1074 28.0085 44.916C28.2936 44.7246 28.4831 44.4512 28.5768 44.0957H29.5964C29.5026 44.6934 29.2233 45.1797 28.7585 45.5547C28.2936 45.9258 27.6921 46.1113 26.9538 46.1113C26.0671 46.1113 25.362 45.8145 24.8386 45.2207C24.3151 44.623 24.0534 43.8223 24.0534 42.8184C24.0534 41.834 24.3151 41.0469 24.8386 40.457C25.362 39.8672 26.0651 39.5723 26.9479 39.5723C27.6862 39.5723 28.2878 39.7656 28.7526 40.1523C29.2214 40.5391 29.5026 41.0273 29.5964 41.6172ZM32.622 45.2266C33.1415 45.2266 33.5712 45.0762 33.911 44.7754C34.2548 44.4746 34.4267 44.0977 34.4267 43.6445V43.0645L32.7274 43.1758C32.2509 43.207 31.9013 43.3066 31.6786 43.4746C31.456 43.6426 31.3446 43.8867 31.3446 44.207C31.3446 44.5234 31.4638 44.7734 31.702 44.957C31.9403 45.1367 32.247 45.2266 32.622 45.2266ZM32.4345 46.1113C31.8134 46.1113 31.3017 45.9414 30.8993 45.6016C30.5009 45.2578 30.3017 44.8008 30.3017 44.2305C30.3017 43.668 30.5009 43.2266 30.8993 42.9062C31.2977 42.5859 31.8661 42.4043 32.6044 42.3613L34.4267 42.25V41.6758C34.4267 41.2852 34.3056 40.9863 34.0634 40.7793C33.8212 40.5723 33.4657 40.4688 32.997 40.4688C32.6181 40.4688 32.3036 40.5371 32.0536 40.6738C31.8036 40.8105 31.6435 41.0039 31.5731 41.2539H30.5536C30.62 40.75 30.8798 40.3438 31.3329 40.0352C31.7899 39.7266 32.3563 39.5723 33.0321 39.5723C33.7977 39.5723 34.3895 39.7578 34.8075 40.1289C35.2255 40.5 35.4345 41.0156 35.4345 41.6758V46H34.4735V45.0684H34.3798C34.1767 45.4043 33.9071 45.6621 33.5712 45.8418C33.2352 46.0215 32.8563 46.1113 32.4345 46.1113ZM36.9483 46V37.1758H37.9562V46H36.9483ZM39.5638 46V37.1758H40.5716V46H39.5638Z" fill="#007AFF"/>
</svg>
