<svg width="65" height="58" viewBox="0 0 65 58" fill="none" xmlns="http://www.w3.org/2000/svg">
<rect width="65" height="58" rx="11" fill="white"/>
<path d="M9.40759 46V39.6836H10.3685V40.6797H10.4623C10.6068 40.3281 10.8314 40.0566 11.1361 39.8652C11.4408 39.6699 11.8041 39.5723 12.226 39.5723C12.64 39.5723 12.9955 39.6719 13.2924 39.8711C13.5931 40.0703 13.8197 40.3398 13.972 40.6797H14.0658C14.2377 40.3398 14.4955 40.0703 14.8392 39.8711C15.183 39.6719 15.5697 39.5723 15.9994 39.5723C16.6439 39.5723 17.14 39.752 17.4877 40.1113C17.8353 40.4668 18.0092 40.9746 18.0092 41.6348V46H17.0013V41.8691C17.0013 40.9434 16.558 40.4805 15.6713 40.4805C15.2416 40.4805 14.89 40.6211 14.6166 40.9023C14.3431 41.1836 14.2064 41.5293 14.2064 41.9395V46H13.1986V41.7109C13.1986 41.3359 13.0775 41.0371 12.8353 40.8145C12.597 40.5918 12.2787 40.4805 11.8802 40.4805C11.4701 40.4805 11.1224 40.6367 10.8373 40.9492C10.556 41.2617 10.4154 41.6406 10.4154 42.0859V46H9.40759ZM21.9605 40.4629C21.4566 40.4629 21.0426 40.6328 20.7183 40.9727C20.3941 41.3125 20.2125 41.7617 20.1734 42.3203H23.6539C23.6422 41.7617 23.482 41.3125 23.1734 40.9727C22.8648 40.6328 22.4605 40.4629 21.9605 40.4629ZM23.6246 44.3652H24.6324C24.4801 44.9121 24.1695 45.3398 23.7008 45.6484C23.2359 45.957 22.6597 46.1113 21.9722 46.1113C21.0972 46.1113 20.4039 45.8184 19.8922 45.2324C19.3805 44.6426 19.1246 43.8477 19.1246 42.8477C19.1246 41.8516 19.3824 41.0566 19.898 40.4629C20.4137 39.8691 21.1051 39.5723 21.9722 39.5723C22.8238 39.5723 23.4937 39.8555 23.982 40.4219C24.4703 40.9883 24.7144 41.7637 24.7144 42.748V43.1348H20.1734V43.1816C20.2008 43.8066 20.3765 44.3027 20.7008 44.6699C21.0289 45.0371 21.4605 45.2207 21.9957 45.2207C22.8121 45.2207 23.3551 44.9355 23.6246 44.3652ZM25.742 41.4121C25.742 40.8887 25.9666 40.4512 26.4158 40.0996C26.865 39.748 27.4256 39.5723 28.0975 39.5723C28.7576 39.5723 29.3025 39.7246 29.7322 40.0293C30.1619 40.334 30.41 40.7461 30.4764 41.2656H29.4803C29.41 41.0078 29.2537 40.8047 29.0115 40.6562C28.7732 40.5039 28.4666 40.4277 28.0916 40.4277C27.7127 40.4277 27.3943 40.5156 27.1365 40.6914C26.8826 40.8672 26.7557 41.0938 26.7557 41.3711C26.7557 41.5859 26.8435 41.7656 27.0193 41.9102C27.199 42.0508 27.4764 42.166 27.8514 42.2559L28.824 42.4902C29.4256 42.6348 29.8689 42.8438 30.1541 43.1172C30.4432 43.3906 30.5877 43.752 30.5877 44.2012C30.5877 44.7598 30.3475 45.2188 29.867 45.5781C29.3865 45.9336 28.783 46.1113 28.0564 46.1113C27.3533 46.1113 26.7771 45.9551 26.3279 45.6426C25.8787 45.3301 25.6267 44.9121 25.5721 44.3887H26.6092C26.6951 44.6621 26.865 44.877 27.1189 45.0332C27.3728 45.1855 27.6971 45.2617 28.0916 45.2617C28.5174 45.2617 28.867 45.1699 29.1404 44.9863C29.4139 44.8027 29.5506 44.5664 29.5506 44.2773C29.5506 43.8477 29.2166 43.5508 28.5486 43.3867L27.4646 43.123C26.867 42.9785 26.4295 42.7715 26.1521 42.502C25.8787 42.2285 25.742 41.8652 25.742 41.4121ZM31.498 41.4121C31.498 40.8887 31.7227 40.4512 32.1719 40.0996C32.6211 39.748 33.1816 39.5723 33.8535 39.5723C34.5137 39.5723 35.0586 39.7246 35.4883 40.0293C35.918 40.334 36.166 40.7461 36.2324 41.2656H35.2363C35.166 41.0078 35.0098 40.8047 34.7676 40.6562C34.5293 40.5039 34.2227 40.4277 33.8477 40.4277C33.4688 40.4277 33.1504 40.5156 32.8926 40.6914C32.6387 40.8672 32.5117 41.0938 32.5117 41.3711C32.5117 41.5859 32.5996 41.7656 32.7754 41.9102C32.9551 42.0508 33.2324 42.166 33.6074 42.2559L34.5801 42.4902C35.1816 42.6348 35.625 42.8438 35.9102 43.1172C36.1992 43.3906 36.3438 43.752 36.3438 44.2012C36.3438 44.7598 36.1035 45.2188 35.623 45.5781C35.1426 45.9336 34.5391 46.1113 33.8125 46.1113C33.1094 46.1113 32.5332 45.9551 32.084 45.6426C31.6348 45.3301 31.3828 44.9121 31.3281 44.3887H32.3652C32.4512 44.6621 32.6211 44.877 32.875 45.0332C33.1289 45.1855 33.4531 45.2617 33.8477 45.2617C34.2734 45.2617 34.623 45.1699 34.8965 44.9863C35.1699 44.8027 35.3066 44.5664 35.3066 44.2773C35.3066 43.8477 34.9727 43.5508 34.3047 43.3867L33.2207 43.123C32.623 42.9785 32.1855 42.7715 31.9082 42.502C31.6348 42.2285 31.498 41.8652 31.498 41.4121ZM39.4631 45.2266C39.9826 45.2266 40.4123 45.0762 40.7522 44.7754C41.0959 44.4746 41.2678 44.0977 41.2678 43.6445V43.0645L39.5686 43.1758C39.092 43.207 38.7424 43.3066 38.5197 43.4746C38.2971 43.6426 38.1857 43.8867 38.1857 44.207C38.1857 44.5234 38.3049 44.7734 38.5432 44.957C38.7815 45.1367 39.0881 45.2266 39.4631 45.2266ZM39.2756 46.1113C38.6545 46.1113 38.1428 45.9414 37.7404 45.6016C37.342 45.2578 37.1428 44.8008 37.1428 44.2305C37.1428 43.668 37.342 43.2266 37.7404 42.9062C38.1389 42.5859 38.7072 42.4043 39.4455 42.3613L41.2678 42.25V41.6758C41.2678 41.2852 41.1467 40.9863 40.9045 40.7793C40.6623 40.5723 40.3068 40.4688 39.8381 40.4688C39.4592 40.4688 39.1447 40.5371 38.8947 40.6738C38.6447 40.8105 38.4846 41.0039 38.4143 41.2539H37.3947C37.4611 40.75 37.7209 40.3438 38.174 40.0352C38.6311 39.7266 39.1975 39.5723 39.8732 39.5723C40.6389 39.5723 41.2307 39.7578 41.6486 40.1289C42.0666 40.5 42.2756 41.0156 42.2756 41.6758V46H41.3147V45.0684H41.2209C41.0178 45.4043 40.7482 45.6621 40.4123 45.8418C40.0764 46.0215 39.6975 46.1113 39.2756 46.1113ZM46.2856 45.0156C46.8676 45.0156 47.3246 44.8125 47.6567 44.4062C47.9926 43.9961 48.1606 43.4434 48.1606 42.748C48.1606 42.0566 47.9926 41.5059 47.6567 41.0957C47.3207 40.6855 46.8637 40.4805 46.2856 40.4805C45.7074 40.4805 45.2582 40.6836 44.9379 41.0898C44.6176 41.4961 44.4574 42.0488 44.4574 42.748C44.4574 43.4473 44.6176 44 44.9379 44.4062C45.2582 44.8125 45.7074 45.0156 46.2856 45.0156ZM46.3324 48.4258C45.5785 48.4258 44.9672 48.2695 44.4985 47.957C44.0336 47.6445 43.7621 47.2246 43.684 46.6973H44.7504C44.8051 46.959 44.9711 47.166 45.2485 47.3184C45.5258 47.4707 45.8871 47.5469 46.3324 47.5469C46.8988 47.5469 47.3402 47.4141 47.6567 47.1484C47.977 46.8867 48.1371 46.5234 48.1371 46.0586V44.8164H48.0434C47.8442 45.1641 47.5727 45.4336 47.2289 45.625C46.8852 45.8125 46.4965 45.9062 46.0629 45.9062C45.2504 45.9062 44.6059 45.6191 44.1293 45.0449C43.6527 44.4668 43.4145 43.7012 43.4145 42.748C43.4145 41.7949 43.6547 41.0273 44.1352 40.4453C44.6156 39.8633 45.2582 39.5723 46.0629 39.5723C46.5043 39.5723 46.9067 39.6738 47.2699 39.877C47.6332 40.0762 47.9067 40.3457 48.0902 40.6855H48.184V39.6836H49.1449V46.1113C49.1449 46.8184 48.891 47.3809 48.3832 47.7988C47.8754 48.2168 47.1918 48.4258 46.3324 48.4258ZM53.1549 40.4629C52.651 40.4629 52.2369 40.6328 51.9127 40.9727C51.5885 41.3125 51.4069 41.7617 51.3678 42.3203H54.8483C54.8365 41.7617 54.6764 41.3125 54.3678 40.9727C54.0592 40.6328 53.6549 40.4629 53.1549 40.4629ZM54.819 44.3652H55.8268C55.6744 44.9121 55.3639 45.3398 54.8951 45.6484C54.4303 45.957 53.8541 46.1113 53.1666 46.1113C52.2916 46.1113 51.5983 45.8184 51.0865 45.2324C50.5748 44.6426 50.319 43.8477 50.319 42.8477C50.319 41.8516 50.5768 41.0566 51.0924 40.4629C51.608 39.8691 52.2994 39.5723 53.1666 39.5723C54.0182 39.5723 54.6881 39.8555 55.1764 40.4219C55.6647 40.9883 55.9088 41.7637 55.9088 42.748V43.1348H51.3678V43.1816C51.3951 43.8066 51.5709 44.3027 51.8951 44.6699C52.2233 45.0371 52.6549 45.2207 53.1901 45.2207C54.0065 45.2207 54.5494 44.9355 54.819 44.3652Z" fill="#007AFF"/>
<path d="M32.5 10.25C25.9252 10.25 20.5952 14.3737 20.5952 19.4605C20.5952 22.3997 22.3746 25.0172 25.1454 26.7036L24.5168 30.25L28.7652 28.2081C29.9399 28.5082 31.1953 28.6711 32.5 28.6711C39.0748 28.6711 44.4047 24.5474 44.4047 19.4605C44.4047 14.3737 39.0748 10.25 32.5 10.25Z" fill="#007AFF"/>
</svg>
