<?xml version="1.0" standalone="no"?>
<!DOCTYPE svg PUBLIC "-//W3C//DTD SVG 20010904//EN"
 "http://www.w3.org/TR/2001/REC-SVG-20010904/DTD/svg10.dtd">
<svg version="1.0" xmlns="http://www.w3.org/2000/svg"
 width="72.000000pt" height="72.000000pt" viewBox="0 0 72.000000 72.000000"
 preserveAspectRatio="xMidYMid meet">
<metadata>
Created by potrace 1.14, written by Peter Selinger 2001-2017
</metadata>
<g transform="translate(0.000000,72.000000) scale(0.100000,-0.100000)"
fill="#000000" stroke="none">
<path d="M103 703 c-107 -36 -115 -180 -16 -288 10 -11 47 -54 83 -95 111
-128 123 -142 179 -202 30 -33 74 -70 97 -84 150 -88 307 38 254 203 -13 39
-53 102 -87 138 -22 23 -82 91 -162 183 -54 62 -77 75 -87 47 -6 -14 37 -68
185 -234 109 -122 136 -189 104 -254 -17 -35 -69 -67 -106 -67 -64 0 -105 34
-272 225 -38 44 -82 93 -97 110 -106 121 -128 163 -114 219 12 48 60 75 113
61 28 -7 86 -61 168 -155 26 -30 70 -81 99 -113 94 -105 111 -160 60 -194 -45
-29 -76 -9 -198 131 -32 37 -67 78 -78 91 -23 29 -58 33 -58 8 0 -10 12 -32
28 -48 15 -17 54 -62 87 -100 80 -93 89 -101 124 -119 92 -48 185 20 166 120
-5 27 -72 127 -104 154 -4 3 -50 55 -104 117 -134 153 -175 176 -264 146z"/>
</g>
</svg>
