<?xml version="1.0" standalone="no"?>
<!DOCTYPE svg PUBLIC "-//W3C//DTD SVG 20010904//EN"
 "http://www.w3.org/TR/2001/REC-SVG-20010904/DTD/svg10.dtd">
<svg version="1.0" xmlns="http://www.w3.org/2000/svg"
 width="1000.000000pt" height="1000.000000pt" viewBox="0 0 1000.000000 1000.000000"
 preserveAspectRatio="xMidYMid meet">
<metadata>
Created by potrace 1.14, written by Peter Selinger 2001-2017
</metadata>
<g transform="translate(0.000000,1000.000000) scale(0.100000,-0.100000)"
fill="#000000" stroke="none">
<path d="M0 5000 l0 -5000 5000 0 5000 0 0 5000 0 5000 -5000 0 -5000 0 0
-5000z m3714 3553 c3 -10 287 -1078 631 -2373 683 -2571 657 -2472 661 -2468
1 2 289 1088 638 2413 350 1326 639 2418 642 2428 5 16 65 17 1085 17 l1079 0
0 -3575 0 -3575 -670 0 -670 0 -2 2799 -3 2799 -706 -2797 -705 -2796 -694 0
-693 0 -701 2794 -701 2793 -5 -2793 -5 -2794 -672 -3 -673 -2 0 3575 0 3575
1079 0 c1020 0 1080 -1 1085 -17z"/>
</g>
</svg>
