<?xml version="1.0" standalone="no"?>
<!DOCTYPE svg PUBLIC "-//W3C//DTD SVG 20010904//EN"
 "http://www.w3.org/TR/2001/REC-SVG-20010904/DTD/svg10.dtd">
<svg version="1.0" xmlns="http://www.w3.org/2000/svg"
 width="128.000000pt" height="128.000000pt" viewBox="0 0 128.000000 128.000000"
 preserveAspectRatio="xMidYMid meet">
<metadata>
Created by potrace 1.14, written by Peter Selinger 2001-2017
</metadata>
<g transform="translate(0.000000,128.000000) scale(0.100000,-0.100000)"
fill="#000000" stroke="none">
<path d="M350 1205 c-37 -20 -60 -24 -127 -25 l-83 0 0 -35 c0 -30 -5 -37 -40
-55 -22 -11 -40 -22 -40 -24 0 -19 55 -116 66 -116 12 0 14 -35 14 -210 l0
-210 -24 0 c-13 0 -26 -6 -28 -12 -3 -11 -3 -206 1 -245 1 -7 11 -10 26 -7
l25 4 0 -110 c0 -76 -3 -109 -11 -107 -6 1 -13 -9 -15 -23 -2 -14 -1 -20 3
-15 5 6 19 11 33 13 20 2 22 1 10 -7 -9 -7 -10 -11 -3 -11 7 0 17 8 22 17 8
15 10 15 11 3 0 -17 36 -24 45 -9 3 5 -1 6 -9 3 -9 -3 -16 -2 -16 4 0 12 18
11 39 -2 9 -6 12 -5 8 1 -4 7 116 10 363 11 204 0 368 -3 366 -7 -3 -4 8 -6
25 -5 16 1 29 -1 29 -4 0 -4 11 -8 25 -8 14 -1 23 1 20 6 -2 4 11 6 31 5 26
-2 32 0 24 10 -5 6 -6 15 -2 20 4 4 -3 2 -15 -4 l-23 -12 0 113 0 114 33 0
c74 2 68 -9 65 132 l-3 127 -47 3 -48 3 0 255 0 255 -56 70 -56 69 -274 0
-274 0 -12 25 c-14 31 -21 31 -78 0z"/>
</g>
</svg>
