<svg width="361" height="117" viewBox="0 0 361 117" fill="none" xmlns="http://www.w3.org/2000/svg">
<path d="M0 11C0 4.92487 4.92487 0 11 0H350C356.075 0 361 4.92487 361 11V106C361 112.075 356.075 117 350 117H11C4.92487 117 0 112.075 0 106V11Z" fill="white"/>
<path d="M17.0781 24V15.5449H18.1035L22.6914 22.125H22.7852V15.5449H23.8281V24H22.8027L18.2148 17.4434H18.1211V24H17.0781Z" fill="black"/>
<path d="M28.0432 24.1113C26.2443 24.1113 25.1311 22.8691 25.1311 20.8477V20.8359C25.1311 18.8086 26.2443 17.5723 28.0432 17.5723C29.842 17.5723 30.9553 18.8086 30.9553 20.8359V20.8477C30.9553 22.8691 29.842 24.1113 28.0432 24.1113ZM28.0432 23.209C29.2385 23.209 29.9123 22.3359 29.9123 20.8477V20.8359C29.9123 19.3418 29.2385 18.4746 28.0432 18.4746C26.8479 18.4746 26.174 19.3418 26.174 20.8359V20.8477C26.174 22.3359 26.8479 23.209 28.0432 23.209Z" fill="black"/>
<path d="M34.3735 24.0469C33.0727 24.0469 32.5277 23.5664 32.5277 22.3594V18.5273H31.5317V17.6836H32.5277V16.0488H33.5824V17.6836H34.9652V18.5273H33.5824V22.1016C33.5824 22.8457 33.8402 23.1445 34.4965 23.1445C34.6781 23.1445 34.7777 23.1387 34.9652 23.1211V23.9883C34.766 24.0234 34.5727 24.0469 34.3735 24.0469Z" fill="black"/>
<path d="M38.5651 24.1113C36.7604 24.1113 35.6705 22.8457 35.6705 20.8652V20.8594C35.6705 18.9082 36.7838 17.5723 38.5006 17.5723C40.2174 17.5723 41.2604 18.8496 41.2604 20.7363V21.1348H36.7135C36.7428 22.4414 37.4635 23.2031 38.5885 23.2031C39.444 23.2031 39.9713 22.7988 40.1412 22.418L40.1647 22.3652H41.1842L41.1725 22.4121C40.9557 23.2676 40.0533 24.1113 38.5651 24.1113ZM38.4948 18.4805C37.5573 18.4805 36.8424 19.1191 36.7311 20.3203H40.2233C40.1178 19.0723 39.4264 18.4805 38.4948 18.4805Z" fill="black"/>
<path d="M44.6024 24.1113C43.1961 24.1113 42.2293 23.4316 42.1121 22.3887H43.1551C43.325 22.916 43.8289 23.2617 44.6375 23.2617C45.4871 23.2617 46.0907 22.8574 46.0907 22.2832V22.2715C46.0907 21.8438 45.7684 21.5449 44.9891 21.3574L44.0106 21.123C42.827 20.8418 42.2938 20.3262 42.2938 19.418V19.4121C42.2938 18.3633 43.3016 17.5723 44.6434 17.5723C45.9676 17.5723 46.8875 18.2344 47.0282 19.2656H46.0262C45.8914 18.7676 45.3993 18.4219 44.6375 18.4219C43.8875 18.4219 43.3368 18.8086 43.3368 19.3652V19.377C43.3368 19.8047 43.6532 20.0742 44.3973 20.2559L45.37 20.4902C46.5594 20.7773 47.1336 21.293 47.1336 22.1953V22.207C47.1336 23.332 46.0379 24.1113 44.6024 24.1113Z" fill="black"/>
<path d="M19.5752 47.1299C17.9004 47.1299 17.0391 46.1455 17.0391 44.4023V39.6309H18.2285V44.1152C18.2285 45.4414 18.707 46.0771 19.8828 46.0771C21.1816 46.0771 21.8721 45.2842 21.8721 43.9922V39.6309H23.0615V47H21.8721V45.8994H21.7627C21.4004 46.6855 20.6553 47.1299 19.5752 47.1299Z" fill="black"/>
<path d="M24.8752 47V39.6309H26.0647V40.7383H26.174C26.5432 39.959 27.2336 39.501 28.3205 39.501C29.9748 39.501 30.8977 40.4785 30.8977 42.2285V47H29.7082V42.5156C29.7082 41.1895 29.1613 40.5537 27.9856 40.5537C26.8098 40.5537 26.0647 41.3467 26.0647 42.6387V47H24.8752Z" fill="black"/>
<path d="M33.2719 38.209C32.8207 38.209 32.4516 37.8398 32.4516 37.3887C32.4516 36.9375 32.8207 36.5684 33.2719 36.5684C33.7231 36.5684 34.0922 36.9375 34.0922 37.3887C34.0922 37.8398 33.7231 38.209 33.2719 38.209ZM32.6703 47V39.6309H33.8598V47H32.6703Z" fill="black"/>
<path d="M37.7789 47L35.0514 39.6309H36.3092L38.3258 45.7012H38.4352L40.4518 39.6309H41.7096L38.9821 47H37.7789Z" fill="black"/>
<path d="M45.6082 47.1299C43.5028 47.1299 42.2313 45.6533 42.2313 43.3428V43.3359C42.2313 41.0596 43.5301 39.501 45.533 39.501C47.536 39.501 48.7528 40.9912 48.7528 43.1924V43.6572H43.4481C43.4823 45.1816 44.3231 46.0703 45.6356 46.0703C46.6336 46.0703 47.2489 45.5986 47.4471 45.1543L47.4744 45.0928H48.6639L48.6502 45.1475C48.3973 46.1455 47.3446 47.1299 45.6082 47.1299ZM45.5262 40.5605C44.4325 40.5605 43.5985 41.3057 43.4686 42.707H47.5428C47.4198 41.251 46.6131 40.5605 45.5262 40.5605Z" fill="black"/>
<path d="M50.1905 47V39.6309H51.3799V40.7246H51.4893C51.7696 39.9521 52.46 39.501 53.458 39.501C53.6836 39.501 53.9366 39.5283 54.0528 39.5488V40.7041C53.8067 40.6631 53.5811 40.6357 53.3213 40.6357C52.1866 40.6357 51.3799 41.3535 51.3799 42.4336V47H50.1905Z" fill="black"/>
<path d="M57.5071 47.1299C55.8665 47.1299 54.7385 46.3369 54.6018 45.1201H55.8186C56.0168 45.7354 56.6047 46.1387 57.5481 46.1387C58.5393 46.1387 59.2434 45.667 59.2434 44.9971V44.9834C59.2434 44.4844 58.8674 44.1357 57.9583 43.917L56.8167 43.6436C55.4358 43.3154 54.8137 42.7139 54.8137 41.6543V41.6475C54.8137 40.4238 55.9895 39.501 57.5549 39.501C59.0999 39.501 60.1731 40.2734 60.3372 41.4766H59.1682C59.011 40.8955 58.4368 40.4922 57.5481 40.4922C56.6731 40.4922 56.0305 40.9434 56.0305 41.5928V41.6064C56.0305 42.1055 56.3997 42.4199 57.2678 42.6318L58.4026 42.9053C59.7903 43.2402 60.4602 43.8418 60.4602 44.8945V44.9082C60.4602 46.2207 59.1819 47.1299 57.5071 47.1299Z" fill="black"/>
<path d="M62.5268 38.209C62.0756 38.209 61.7065 37.8398 61.7065 37.3887C61.7065 36.9375 62.0756 36.5684 62.5268 36.5684C62.978 36.5684 63.3471 36.9375 63.3471 37.3887C63.3471 37.8398 62.978 38.209 62.5268 38.209ZM61.9253 47V39.6309H63.1147V47H61.9253Z" fill="black"/>
<path d="M67.5671 47.0547C66.0495 47.0547 65.4137 46.4941 65.4137 45.0859V40.6152H64.2516V39.6309H65.4137V37.7236H66.6442V39.6309H68.2575V40.6152H66.6442V44.7852C66.6442 45.6533 66.945 46.002 67.7106 46.002C67.9225 46.002 68.0387 45.9951 68.2575 45.9746V46.9863C68.0251 47.0273 67.7995 47.0547 67.5671 47.0547Z" fill="black"/>
<path d="M70.2557 49.584C70.0985 49.584 69.8934 49.5703 69.7294 49.543V48.5654C69.8729 48.5928 70.0575 48.5996 70.2216 48.5996C70.8983 48.5996 71.3085 48.292 71.5751 47.4443L71.7118 47.0068L68.9843 39.6309H70.2557L72.2792 45.6943H72.3885L74.4052 39.6309H75.6561L72.7782 47.4512C72.1698 49.1055 71.5614 49.584 70.2557 49.584Z" fill="black"/>
<path d="M83.3782 47.1299C81.2796 47.1299 79.9808 45.6807 79.9808 43.3223V43.3086C79.9808 40.9434 81.2796 39.501 83.3782 39.501C85.4768 39.501 86.7757 40.9434 86.7757 43.3086V43.3223C86.7757 45.6807 85.4768 47.1299 83.3782 47.1299ZM83.3782 46.0771C84.7727 46.0771 85.5589 45.0586 85.5589 43.3223V43.3086C85.5589 41.5654 84.7727 40.5537 83.3782 40.5537C81.9837 40.5537 81.1975 41.5654 81.1975 43.3086V43.3223C81.1975 45.0586 81.9837 46.0771 83.3782 46.0771Z" fill="black"/>
<path d="M88.7056 47V40.6152H87.4819V39.6309H88.7056V38.8105C88.7056 37.3408 89.4438 36.6367 90.8452 36.6367C91.1323 36.6367 91.3921 36.6572 91.6382 36.7051V37.6553C91.4946 37.6279 91.2964 37.6211 91.0845 37.6211C90.2368 37.6211 89.895 38.0381 89.895 38.8447V39.6309H91.5698V40.6152H89.895V47H88.7056Z" fill="black"/>
<path d="M99.4218 47.1299C97.3573 47.1299 96.038 45.6328 96.038 43.2949V43.2812C96.038 40.9912 97.3505 39.501 99.415 39.501C101.206 39.501 102.279 40.5332 102.498 41.8457L102.505 41.8867H101.322L101.315 41.8662C101.131 41.1416 100.475 40.5537 99.415 40.5537C98.0888 40.5537 97.2548 41.6201 97.2548 43.2812V43.2949C97.2548 44.9902 98.1025 46.0771 99.415 46.0771C100.406 46.0771 101.035 45.6396 101.309 44.8193L101.322 44.7783L102.498 44.7715L102.484 44.8467C102.184 46.1797 101.192 47.1299 99.4218 47.1299Z" fill="black"/>
<path d="M105.857 47.1299C104.455 47.1299 103.396 46.2822 103.396 44.9424V44.9287C103.396 43.6162 104.366 42.8574 106.082 42.7549L108.194 42.625V41.9551C108.194 41.0459 107.641 40.5537 106.54 40.5537C105.658 40.5537 105.077 40.8818 104.886 41.4561L104.879 41.4766H103.69L103.696 41.4355C103.888 40.2803 105.009 39.501 106.581 39.501C108.379 39.501 109.384 40.4238 109.384 41.9551V47H108.194V45.9131H108.085C107.62 46.6992 106.848 47.1299 105.857 47.1299ZM104.612 44.915C104.612 45.6602 105.248 46.0977 106.103 46.0977C107.313 46.0977 108.194 45.3047 108.194 44.252V43.582L106.226 43.7051C105.105 43.7734 104.612 44.1699 104.612 44.9014V44.915Z" fill="black"/>
<path d="M111.218 47V36.7051H112.408V47H111.218Z" fill="black"/>
<path d="M114.912 38.209C114.46 38.209 114.091 37.8398 114.091 37.3887C114.091 36.9375 114.46 36.5684 114.912 36.5684C115.363 36.5684 115.732 36.9375 115.732 37.3887C115.732 37.8398 115.363 38.209 114.912 38.209ZM114.31 47V39.6309H115.5V47H114.31Z" fill="black"/>
<path d="M117.826 47V40.6152H116.602V39.6309H117.826V38.8105C117.826 37.3408 118.564 36.6367 119.966 36.6367C120.253 36.6367 120.512 36.6572 120.759 36.7051V37.6553C120.615 37.6279 120.417 37.6211 120.205 37.6211C119.357 37.6211 119.015 38.0381 119.015 38.8447V39.6309H120.69V40.6152H119.015V47H117.826Z" fill="black"/>
<path d="M124.712 47.1299C122.613 47.1299 121.314 45.6807 121.314 43.3223V43.3086C121.314 40.9434 122.613 39.501 124.712 39.501C126.811 39.501 128.109 40.9434 128.109 43.3086V43.3223C128.109 45.6807 126.811 47.1299 124.712 47.1299ZM124.712 46.0771C126.106 46.0771 126.893 45.0586 126.893 43.3223V43.3086C126.893 41.5654 126.106 40.5537 124.712 40.5537C123.317 40.5537 122.531 41.5654 122.531 43.3086V43.3223C122.531 45.0586 123.317 46.0771 124.712 46.0771Z" fill="black"/>
<path d="M129.547 47V39.6309H130.736V40.7246H130.846C131.126 39.9521 131.817 39.501 132.815 39.501C133.04 39.501 133.293 39.5283 133.409 39.5488V40.7041C133.163 40.6631 132.938 40.6357 132.678 40.6357C131.543 40.6357 130.736 41.3535 130.736 42.4336V47H129.547Z" fill="black"/>
<path d="M134.608 47V39.6309H135.797V40.7383H135.907C136.276 39.959 136.966 39.501 138.053 39.501C139.707 39.501 140.63 40.4785 140.63 42.2285V47H139.441V42.5156C139.441 41.1895 138.894 40.5537 137.718 40.5537C136.542 40.5537 135.797 41.3467 135.797 42.6387V47H134.608Z" fill="black"/>
<path d="M143.004 38.209C142.553 38.209 142.184 37.8398 142.184 37.3887C142.184 36.9375 142.553 36.5684 143.004 36.5684C143.456 36.5684 143.825 36.9375 143.825 37.3887C143.825 37.8398 143.456 38.209 143.004 38.209ZM142.403 47V39.6309H143.592V47H142.403Z" fill="black"/>
<path d="M147.45 47.1299C146.049 47.1299 144.989 46.2822 144.989 44.9424V44.9287C144.989 43.6162 145.96 42.8574 147.676 42.7549L149.788 42.625V41.9551C149.788 41.0459 149.234 40.5537 148.134 40.5537C147.252 40.5537 146.671 40.8818 146.479 41.4561L146.472 41.4766H145.283L145.29 41.4355C145.481 40.2803 146.602 39.501 148.175 39.501C149.972 39.501 150.977 40.4238 150.977 41.9551V47H149.788V45.9131H149.678C149.214 46.6992 148.441 47.1299 147.45 47.1299ZM146.206 44.915C146.206 45.6602 146.842 46.0977 147.696 46.0977C148.906 46.0977 149.788 45.3047 149.788 44.252V43.582L147.819 43.7051C146.698 43.7734 146.206 44.1699 146.206 44.9014V44.915Z" fill="black"/>
<path d="M152.442 49.5088L153.037 45.6191H154.397L153.324 49.5088H152.442Z" fill="black"/>
<path d="M160.089 47V36.7051H161.279V47H160.089Z" fill="black"/>
<path d="M166.182 47.1299C164.084 47.1299 162.785 45.6807 162.785 43.3223V43.3086C162.785 40.9434 164.084 39.501 166.182 39.501C168.281 39.501 169.58 40.9434 169.58 43.3086V43.3223C169.58 45.6807 168.281 47.1299 166.182 47.1299ZM166.182 46.0771C167.577 46.0771 168.363 45.0586 168.363 43.3223V43.3086C168.363 41.5654 167.577 40.5537 166.182 40.5537C164.788 40.5537 164.002 41.5654 164.002 43.3086V43.3223C164.002 45.0586 164.788 46.0771 166.182 46.0771Z" fill="black"/>
<path d="M173.547 47.1299C171.906 47.1299 170.778 46.3369 170.641 45.1201H171.858C172.056 45.7354 172.644 46.1387 173.588 46.1387C174.579 46.1387 175.283 45.667 175.283 44.9971V44.9834C175.283 44.4844 174.907 44.1357 173.998 43.917L172.856 43.6436C171.475 43.3154 170.853 42.7139 170.853 41.6543V41.6475C170.853 40.4238 172.029 39.501 173.595 39.501C175.139 39.501 176.213 40.2734 176.377 41.4766H175.208C175.051 40.8955 174.476 40.4922 173.588 40.4922C172.713 40.4922 172.07 40.9434 172.07 41.5928V41.6064C172.07 42.1055 172.439 42.4199 173.307 42.6318L174.442 42.9053C175.83 43.2402 176.5 43.8418 176.5 44.8945V44.9082C176.5 46.2207 175.222 47.1299 173.547 47.1299Z" fill="black"/>
<path d="M183.49 47.1299C182.089 47.1299 181.03 46.2822 181.03 44.9424V44.9287C181.03 43.6162 182 42.8574 183.716 42.7549L185.828 42.625V41.9551C185.828 41.0459 185.275 40.5537 184.174 40.5537C183.292 40.5537 182.711 40.8818 182.52 41.4561L182.513 41.4766H181.323L181.33 41.4355C181.522 40.2803 182.643 39.501 184.215 39.501C186.013 39.501 187.018 40.4238 187.018 41.9551V47H185.828V45.9131H185.719C185.254 46.6992 184.482 47.1299 183.49 47.1299ZM182.246 44.915C182.246 45.6602 182.882 46.0977 183.737 46.0977C184.947 46.0977 185.828 45.3047 185.828 44.252V43.582L183.86 43.7051C182.739 43.7734 182.246 44.1699 182.246 44.9014V44.915Z" fill="black"/>
<path d="M188.784 47V39.6309H189.973V40.7383H190.082C190.452 39.959 191.142 39.501 192.229 39.501C193.883 39.501 194.806 40.4785 194.806 42.2285V47H193.617V42.5156C193.617 41.1895 193.07 40.5537 191.894 40.5537C190.718 40.5537 189.973 41.3467 189.973 42.6387V47H188.784Z" fill="black"/>
<path d="M199.587 49.5977C197.809 49.5977 196.674 48.7979 196.49 47.5879L196.504 47.5811H197.734L197.741 47.5879C197.871 48.1484 198.527 48.5449 199.587 48.5449C200.906 48.5449 201.692 47.9229 201.692 46.8359V45.3457H201.583C201.118 46.1592 200.284 46.6172 199.272 46.6172C197.365 46.6172 196.182 45.1406 196.182 43.0762V43.0625C196.182 40.998 197.372 39.501 199.299 39.501C200.339 39.501 201.145 40.0137 201.596 40.8477H201.678V39.6309H202.868V46.8975C202.868 48.5449 201.596 49.5977 199.587 49.5977ZM199.532 45.5645C200.899 45.5645 201.719 44.5391 201.719 43.0762V43.0625C201.719 41.5996 200.892 40.5537 199.532 40.5537C198.165 40.5537 197.399 41.5996 197.399 43.0625V43.0762C197.399 44.5391 198.165 45.5645 199.532 45.5645Z" fill="black"/>
<path d="M207.682 47.1299C205.577 47.1299 204.306 45.6533 204.306 43.3428V43.3359C204.306 41.0596 205.604 39.501 207.607 39.501C209.61 39.501 210.827 40.9912 210.827 43.1924V43.6572H205.522C205.557 45.1816 206.397 46.0703 207.71 46.0703C208.708 46.0703 209.323 45.5986 209.521 45.1543L209.549 45.0928H210.738L210.724 45.1475C210.472 46.1455 209.419 47.1299 207.682 47.1299ZM207.6 40.5605C206.507 40.5605 205.673 41.3057 205.543 42.707H209.617C209.494 41.251 208.687 40.5605 207.6 40.5605Z" fill="black"/>
<path d="M212.333 47V36.7051H213.523V47H212.333Z" fill="black"/>
<path d="M218.406 47.1299C216.3 47.1299 215.029 45.6533 215.029 43.3428V43.3359C215.029 41.0596 216.327 39.501 218.33 39.501C220.333 39.501 221.55 40.9912 221.55 43.1924V43.6572H216.245C216.28 45.1816 217.12 46.0703 218.433 46.0703C219.431 46.0703 220.046 45.5986 220.244 45.1543L220.272 45.0928H221.461L221.448 45.1475C221.195 46.1455 220.142 47.1299 218.406 47.1299ZM218.324 40.5605C217.23 40.5605 216.396 41.3057 216.266 42.707H220.34C220.217 41.251 219.41 40.5605 218.324 40.5605Z" fill="black"/>
<path d="M225.517 47.1299C223.876 47.1299 222.749 46.3369 222.612 45.1201H223.829C224.027 45.7354 224.615 46.1387 225.558 46.1387C226.549 46.1387 227.253 45.667 227.253 44.9971V44.9834C227.253 44.4844 226.877 44.1357 225.968 43.917L224.827 43.6436C223.446 43.3154 222.824 42.7139 222.824 41.6543V41.6475C222.824 40.4238 223.999 39.501 225.565 39.501C227.11 39.501 228.183 40.2734 228.347 41.4766H227.178C227.021 40.8955 226.447 40.4922 225.558 40.4922C224.683 40.4922 224.041 40.9434 224.041 41.5928V41.6064C224.041 42.1055 224.41 42.4199 225.278 42.6318L226.413 42.9053C227.8 43.2402 228.47 43.8418 228.47 44.8945V44.9082C228.47 46.2207 227.192 47.1299 225.517 47.1299Z" fill="black"/>
<path d="M235.926 49.4609C234.593 47.6904 233.984 45.626 233.984 43.083C233.984 40.5469 234.586 38.4756 235.926 36.7051H236.924C235.933 37.9697 235.194 40.7109 235.194 43.083C235.194 45.4756 235.933 48.1963 236.924 49.4609H235.926Z" fill="black"/>
<path d="M238.368 47V46.1523L241.704 42.543C242.962 41.1826 243.331 40.6699 243.331 39.8086V39.7949C243.331 38.7559 242.627 37.9766 241.465 37.9766C240.282 37.9766 239.496 38.749 239.496 39.9111L239.489 39.9248L238.314 39.918L238.3 39.9111C238.307 38.1611 239.66 36.9033 241.547 36.9033C243.27 36.9033 244.589 38.0723 244.589 39.665V39.6787C244.589 40.8066 244.104 41.627 242.319 43.4658L240.077 45.7832V45.8926H244.753V47H238.368Z" fill="black"/>
<path d="M249.711 47.2324C247.531 47.2324 246.232 45.2432 246.232 42.0713V42.0576C246.232 38.8857 247.531 36.9033 249.711 36.9033C251.892 36.9033 253.204 38.8857 253.204 42.0576V42.0713C253.204 45.2432 251.892 47.2324 249.711 47.2324ZM249.711 46.1592C251.126 46.1592 251.967 44.5869 251.967 42.0713V42.0576C251.967 39.542 251.126 37.9834 249.711 37.9834C248.296 37.9834 247.469 39.542 247.469 42.0576V42.0713C247.469 44.5869 248.296 46.1592 249.711 46.1592Z" fill="black"/>
<path d="M257.233 47V38.5029H257.124L254.615 40.3213V39.0225L257.24 37.1357H258.463V47H257.233Z" fill="black"/>
<path d="M264.276 47.1641C262.184 47.1641 260.694 45.9883 260.694 44.334V44.3203C260.694 43.1035 261.549 42.0918 262.813 41.7979V41.7705C261.733 41.4355 261.05 40.6152 261.05 39.5762V39.5625C261.05 38.0723 262.41 36.9717 264.276 36.9717C266.142 36.9717 267.503 38.0723 267.503 39.5625V39.5762C267.503 40.6152 266.819 41.4355 265.739 41.7705V41.7979C267.004 42.0918 267.858 43.1035 267.858 44.3203V44.334C267.858 45.9883 266.368 47.1641 264.276 47.1641ZM264.276 41.3125C265.466 41.3125 266.279 40.6357 266.279 39.6787V39.665C266.279 38.708 265.466 38.0312 264.276 38.0312C263.087 38.0312 262.273 38.708 262.273 39.665V39.6787C262.273 40.6357 263.087 41.3125 264.276 41.3125ZM264.276 46.0908C265.636 46.0908 266.607 45.3252 266.607 44.2588V44.2451C266.607 43.165 265.643 42.3926 264.276 42.3926C262.909 42.3926 261.945 43.165 261.945 44.2451V44.2588C261.945 45.3252 262.916 46.0908 264.276 46.0908Z" fill="black"/>
<path d="M268.893 43.582V42.4746H275.954V43.582H268.893Z" fill="black"/>
<path d="M277.207 47V46.1523L280.543 42.543C281.801 41.1826 282.17 40.6699 282.17 39.8086V39.7949C282.17 38.7559 281.466 37.9766 280.304 37.9766C279.121 37.9766 278.335 38.749 278.335 39.9111L278.328 39.9248L277.152 39.918L277.139 39.9111C277.146 38.1611 278.499 36.9033 280.386 36.9033C282.109 36.9033 283.428 38.0723 283.428 39.665V39.6787C283.428 40.8066 282.943 41.627 281.158 43.4658L278.916 45.7832V45.8926H283.592V47H277.207Z" fill="black"/>
<path d="M288.55 47.2324C286.37 47.2324 285.071 45.2432 285.071 42.0713V42.0576C285.071 38.8857 286.37 36.9033 288.55 36.9033C290.731 36.9033 292.043 38.8857 292.043 42.0576V42.0713C292.043 45.2432 290.731 47.2324 288.55 47.2324ZM288.55 46.1592C289.965 46.1592 290.806 44.5869 290.806 42.0713V42.0576C290.806 39.542 289.965 37.9834 288.55 37.9834C287.135 37.9834 286.308 39.542 286.308 42.0576V42.0713C286.308 44.5869 287.135 46.1592 288.55 46.1592Z" fill="black"/>
<path d="M293.659 47V46.1523L296.995 42.543C298.253 41.1826 298.622 40.6699 298.622 39.8086V39.7949C298.622 38.7559 297.918 37.9766 296.755 37.9766C295.573 37.9766 294.787 38.749 294.787 39.9111L294.78 39.9248L293.604 39.918L293.59 39.9111C293.597 38.1611 294.951 36.9033 296.837 36.9033C298.56 36.9033 299.879 38.0723 299.879 39.665V39.6787C299.879 40.8066 299.394 41.627 297.61 43.4658L295.368 45.7832V45.8926H300.044V47H293.659Z" fill="black"/>
<path d="M301.7 47V46.1523L305.036 42.543C306.294 41.1826 306.663 40.6699 306.663 39.8086V39.7949C306.663 38.7559 305.959 37.9766 304.797 37.9766C303.614 37.9766 302.828 38.749 302.828 39.9111L302.821 39.9248L301.645 39.918L301.632 39.9111C301.638 38.1611 302.992 36.9033 304.879 36.9033C306.601 36.9033 307.921 38.0723 307.921 39.665V39.6787C307.921 40.8066 307.435 41.627 305.651 43.4658L303.409 45.7832V45.8926H308.085V47H301.7Z" fill="black"/>
<path d="M310.391 49.4609H309.393C310.384 48.1963 311.122 45.4756 311.122 43.083C311.122 40.7109 310.384 37.9697 309.393 36.7051H310.391C311.73 38.4756 312.332 40.5469 312.332 43.083C312.332 45.626 311.724 47.6904 310.391 49.4609Z" fill="black"/>
<path d="M17.1758 69V58.7051H18.3652V62.7383H18.4746C18.8438 61.959 19.5342 61.501 20.6211 61.501C22.2754 61.501 23.1982 62.4785 23.1982 64.2285V69H22.0088V64.5156C22.0088 63.1895 21.4619 62.5537 20.2861 62.5537C19.1104 62.5537 18.3652 63.3467 18.3652 64.6387V69H17.1758Z" fill="black"/>
<path d="M27.9719 69.1299C25.8732 69.1299 24.5744 67.6807 24.5744 65.3223V65.3086C24.5744 62.9434 25.8732 61.501 27.9719 61.501C30.0705 61.501 31.3693 62.9434 31.3693 65.3086V65.3223C31.3693 67.6807 30.0705 69.1299 27.9719 69.1299ZM27.9719 68.0771C29.3664 68.0771 30.1525 67.0586 30.1525 65.3223V65.3086C30.1525 63.5654 29.3664 62.5537 27.9719 62.5537C26.5774 62.5537 25.7912 63.5654 25.7912 65.3086V65.3223C25.7912 67.0586 26.5774 68.0771 27.9719 68.0771Z" fill="black"/>
<path d="M35.8217 69.1299C33.7572 69.1299 32.4379 67.6328 32.4379 65.2949V65.2812C32.4379 62.9912 33.7504 61.501 35.8149 61.501C37.6059 61.501 38.6791 62.5332 38.8979 63.8457L38.9047 63.8867H37.7221L37.7152 63.8662C37.5307 63.1416 36.8744 62.5537 35.8149 62.5537C34.4887 62.5537 33.6547 63.6201 33.6547 65.2812V65.2949C33.6547 66.9902 34.5024 68.0771 35.8149 68.0771C36.8061 68.0771 37.435 67.6396 37.7084 66.8193L37.7221 66.7783L38.8979 66.7715L38.8842 66.8467C38.5834 68.1797 37.5922 69.1299 35.8217 69.1299Z" fill="black"/>
<path d="M40.3014 69V58.7051H41.4908V62.7383H41.6002C41.9694 61.959 42.6598 61.501 43.7467 61.501C45.401 61.501 46.3239 62.4785 46.3239 64.2285V69H45.1344V64.5156C45.1344 63.1895 44.5875 62.5537 43.4117 62.5537C42.236 62.5537 41.4908 63.3467 41.4908 64.6387V69H40.3014Z" fill="black"/>
<path d="M50.5985 69.1299C48.9578 69.1299 47.8299 68.3369 47.6932 67.1201H48.91C49.1082 67.7354 49.6961 68.1387 50.6395 68.1387C51.6307 68.1387 52.3348 67.667 52.3348 66.9971V66.9834C52.3348 66.4844 51.9588 66.1357 51.0496 65.917L49.908 65.6436C48.5272 65.3154 47.9051 64.7139 47.9051 63.6543V63.6475C47.9051 62.4238 49.0809 61.501 50.6463 61.501C52.1912 61.501 53.2645 62.2734 53.4285 63.4766H52.2596C52.1024 62.8955 51.5282 62.4922 50.6395 62.4922C49.7645 62.4922 49.1219 62.9434 49.1219 63.5928V63.6064C49.1219 64.1055 49.491 64.4199 50.3592 64.6318L51.494 64.9053C52.8817 65.2402 53.5516 65.8418 53.5516 66.8945V66.9082C53.5516 68.2207 52.2733 69.1299 50.5985 69.1299Z" fill="black"/>
<path d="M58.0039 69.1299C55.9395 69.1299 54.6202 67.6328 54.6202 65.2949V65.2812C54.6202 62.9912 55.9327 61.501 57.9971 61.501C59.7881 61.501 60.8614 62.5332 61.0801 63.8457L61.087 63.8867H59.9043L59.8975 63.8662C59.7129 63.1416 59.0567 62.5537 57.9971 62.5537C56.6709 62.5537 55.837 63.6201 55.837 65.2812V65.2949C55.837 66.9902 56.6846 68.0771 57.9971 68.0771C58.9883 68.0771 59.6172 67.6396 59.8907 66.8193L59.9043 66.7783L61.0801 66.7715L61.0664 66.8467C60.7657 68.1797 59.7745 69.1299 58.0039 69.1299Z" fill="black"/>
<path d="M62.4836 69V58.7051H63.6731V62.7383H63.7825C64.1516 61.959 64.842 61.501 65.929 61.501C67.5833 61.501 68.5061 62.4785 68.5061 64.2285V69H67.3167V64.5156C67.3167 63.1895 66.7698 62.5537 65.594 62.5537C64.4182 62.5537 63.6731 63.3467 63.6731 64.6387V69H62.4836Z" fill="black"/>
<path d="M72.7192 69.1299C71.0444 69.1299 70.1831 68.1455 70.1831 66.4023V61.6309H71.3725V66.1152C71.3725 67.4414 71.851 68.0771 73.0268 68.0771C74.3256 68.0771 75.0161 67.2842 75.0161 65.9922V61.6309H76.2055V69H75.0161V67.8994H74.9067C74.5444 68.6855 73.7993 69.1299 72.7192 69.1299Z" fill="black"/>
<path d="M78.0876 69V58.7051H79.277V69H78.0876Z" fill="black"/>
<path d="M84.16 69.1299C82.0546 69.1299 80.7831 67.6533 80.7831 65.3428V65.3359C80.7831 63.0596 82.0819 61.501 84.0848 61.501C86.0878 61.501 87.3046 62.9912 87.3046 65.1924V65.6572H81.9999C82.0341 67.1816 82.8749 68.0703 84.1874 68.0703C85.1854 68.0703 85.8007 67.5986 85.9989 67.1543L86.0262 67.0928H87.2157L87.202 67.1475C86.9491 68.1455 85.8964 69.1299 84.16 69.1299ZM84.078 62.5605C82.9843 62.5605 82.1503 63.3057 82.0204 64.707H86.0946C85.9716 63.251 85.1649 62.5605 84.078 62.5605Z" fill="black"/>
<path d="M92.764 69V62.6152H91.5403V61.6309H92.764V60.8105C92.764 59.3408 93.5022 58.6367 94.9036 58.6367C95.1907 58.6367 95.4505 58.6572 95.6966 58.7051V59.6553C95.553 59.6279 95.3548 59.6211 95.1429 59.6211C94.2952 59.6211 93.9534 60.0381 93.9534 60.8447V61.6309H95.6282V62.6152H93.9534V69H92.764Z" fill="black"/>
<path d="M98.3647 60.1543C97.9478 60.1543 97.606 59.8125 97.606 59.3955C97.606 58.9854 97.9478 58.6436 98.3647 58.6436C98.7749 58.6436 99.1167 58.9854 99.1167 59.3955C99.1167 59.8125 98.7749 60.1543 98.3647 60.1543ZM101.379 60.1543C100.969 60.1543 100.627 59.8125 100.627 59.3955C100.627 58.9854 100.969 58.6436 101.379 58.6436C101.796 58.6436 102.138 58.9854 102.138 59.3955C102.138 59.8125 101.796 60.1543 101.379 60.1543ZM99.4038 69.1299C97.729 69.1299 96.8677 68.1455 96.8677 66.4023V61.6309H98.0571V66.1152C98.0571 67.4414 98.5356 68.0771 99.7114 68.0771C101.01 68.0771 101.701 67.2842 101.701 65.9922V61.6309H102.89V69H101.701V67.8994H101.591C101.229 68.6855 100.484 69.1299 99.4038 69.1299Z" fill="black"/>
<path d="M104.704 69V61.6309H105.893V62.7246H106.003C106.283 61.9521 106.973 61.501 107.971 61.501C108.197 61.501 108.45 61.5283 108.566 61.5488V62.7041C108.32 62.6631 108.094 62.6357 107.835 62.6357C106.7 62.6357 105.893 63.3535 105.893 64.4336V69H104.704Z" fill="black"/>
<path d="M116.821 69.1299C115.796 69.1299 114.976 68.6445 114.525 67.8242H114.415V69H113.226V58.7051H114.415V62.793H114.525C114.928 62.0068 115.81 61.501 116.821 61.501C118.694 61.501 119.911 62.998 119.911 65.3086V65.3223C119.911 67.6191 118.688 69.1299 116.821 69.1299ZM116.548 68.0771C117.895 68.0771 118.694 67.0381 118.694 65.3223V65.3086C118.694 63.5928 117.895 62.5537 116.548 62.5537C115.208 62.5537 114.388 63.6064 114.388 65.3086V65.3223C114.388 67.0244 115.208 68.0771 116.548 68.0771Z" fill="black"/>
<path d="M121.978 60.209C121.527 60.209 121.158 59.8398 121.158 59.3887C121.158 58.9375 121.527 58.5684 121.978 58.5684C122.429 58.5684 122.798 58.9375 122.798 59.3887C122.798 59.8398 122.429 60.209 121.978 60.209ZM121.376 69V61.6309H122.566V69H121.376Z" fill="black"/>
<path d="M124.468 69V58.7051H125.658V69H124.468Z" fill="black"/>
<path d="M130.254 69.1299C128.387 69.1299 127.164 67.6191 127.164 65.3223V65.3086C127.164 62.998 128.381 61.501 130.254 61.501C131.265 61.501 132.147 62.0068 132.551 62.793H132.66V58.7051H133.849V69H132.66V67.8242H132.551C132.099 68.6445 131.279 69.1299 130.254 69.1299ZM130.527 68.0771C131.867 68.0771 132.687 67.0244 132.687 65.3223V65.3086C132.687 63.6064 131.867 62.5537 130.527 62.5537C129.18 62.5537 128.381 63.5928 128.381 65.3086V65.3223C128.381 67.0381 129.18 68.0771 130.527 68.0771Z" fill="black"/>
<path d="M138.732 69.1299C136.627 69.1299 135.355 67.6533 135.355 65.3428V65.3359C135.355 63.0596 136.654 61.501 138.657 61.501C140.66 61.501 141.877 62.9912 141.877 65.1924V65.6572H136.572C136.606 67.1816 137.447 68.0703 138.76 68.0703C139.758 68.0703 140.373 67.5986 140.571 67.1543L140.599 67.0928H141.788L141.774 67.1475C141.521 68.1455 140.469 69.1299 138.732 69.1299ZM138.65 62.5605C137.557 62.5605 136.723 63.3057 136.593 64.707H140.667C140.544 63.251 139.737 62.5605 138.65 62.5605Z" fill="black"/>
<path d="M143.315 69V61.6309H144.504V62.7383H144.613C144.983 61.959 145.673 61.501 146.76 61.501C148.414 61.501 149.337 62.4785 149.337 64.2285V69H148.148V64.5156C148.148 63.1895 147.601 62.5537 146.425 62.5537C145.249 62.5537 144.504 63.3467 144.504 64.6387V69H143.315Z" fill="black"/>
<path d="M153.803 69.1299C151.937 69.1299 150.713 67.6191 150.713 65.3223V65.3086C150.713 62.998 151.93 61.501 153.803 61.501C154.815 61.501 155.697 62.0068 156.1 62.793H156.209V58.7051H157.399V69H156.209V67.8242H156.1C155.649 68.6445 154.828 69.1299 153.803 69.1299ZM154.077 68.0771C155.416 68.0771 156.237 67.0244 156.237 65.3223V65.3086C156.237 63.6064 155.416 62.5537 154.077 62.5537C152.73 62.5537 151.93 63.5928 151.93 65.3086V65.3223C151.93 67.0381 152.73 68.0771 154.077 68.0771Z" fill="black"/>
<path d="M162.282 69.1299C160.176 69.1299 158.905 67.6533 158.905 65.3428V65.3359C158.905 63.0596 160.204 61.501 162.207 61.501C164.21 61.501 165.426 62.9912 165.426 65.1924V65.6572H160.122C160.156 67.1816 160.997 68.0703 162.309 68.0703C163.307 68.0703 163.922 67.5986 164.121 67.1543L164.148 67.0928H165.337L165.324 67.1475C165.071 68.1455 164.018 69.1299 162.282 69.1299ZM162.2 62.5605C161.106 62.5605 160.272 63.3057 160.142 64.707H164.216C164.093 63.251 163.287 62.5605 162.2 62.5605Z" fill="black"/>
<path d="M170.462 69V58.7051H171.651V64.8506H171.761L174.946 61.6309H176.389L173.176 64.7275L176.601 69H175.104L172.342 65.5342L171.651 66.2041V69H170.462Z" fill="black"/>
<path d="M179.016 60.1543C178.599 60.1543 178.257 59.8125 178.257 59.3955C178.257 58.9854 178.599 58.6436 179.016 58.6436C179.426 58.6436 179.768 58.9854 179.768 59.3955C179.768 59.8125 179.426 60.1543 179.016 60.1543ZM182.03 60.1543C181.62 60.1543 181.279 59.8125 181.279 59.3955C181.279 58.9854 181.62 58.6436 182.03 58.6436C182.447 58.6436 182.789 58.9854 182.789 59.3955C182.789 59.8125 182.447 60.1543 182.03 60.1543ZM180.055 69.1299C178.38 69.1299 177.519 68.1455 177.519 66.4023V61.6309H178.708V66.1152C178.708 67.4414 179.187 68.0771 180.363 68.0771C181.661 68.0771 182.352 67.2842 182.352 65.9922V61.6309H183.541V69H182.352V67.8994H182.242C181.88 68.6855 181.135 69.1299 180.055 69.1299Z" fill="black"/>
<path d="M185.355 69V61.6309H186.544V62.7383H186.654C187.023 61.959 187.713 61.501 188.8 61.501C190.454 61.501 191.377 62.4785 191.377 64.2285V69H190.188V64.5156C190.188 63.1895 189.641 62.5537 188.465 62.5537C187.289 62.5537 186.544 63.3467 186.544 64.6387V69H185.355Z" fill="black"/>
<path d="M195.652 69.1299C194.011 69.1299 192.883 68.3369 192.747 67.1201H193.963C194.162 67.7354 194.75 68.1387 195.693 68.1387C196.684 68.1387 197.388 67.667 197.388 66.9971V66.9834C197.388 66.4844 197.012 66.1357 196.103 65.917L194.962 65.6436C193.581 65.3154 192.959 64.7139 192.959 63.6543V63.6475C192.959 62.4238 194.134 61.501 195.7 61.501C197.245 61.501 198.318 62.2734 198.482 63.4766H197.313C197.156 62.8955 196.582 62.4922 195.693 62.4922C194.818 62.4922 194.175 62.9434 194.175 63.5928V63.6064C194.175 64.1055 194.545 64.4199 195.413 64.6318L196.547 64.9053C197.935 65.2402 198.605 65.8418 198.605 66.8945V66.9082C198.605 68.2207 197.327 69.1299 195.652 69.1299Z" fill="black"/>
<path d="M202.593 69.0547C201.075 69.0547 200.439 68.4941 200.439 67.0859V62.6152H199.277V61.6309H200.439V59.7236H201.67V61.6309H203.283V62.6152H201.67V66.7852C201.67 67.6533 201.971 68.002 202.736 68.002C202.948 68.002 203.064 67.9951 203.283 67.9746V68.9863C203.051 69.0273 202.825 69.0547 202.593 69.0547Z" fill="black"/>
<path d="M207.551 69.1299C205.445 69.1299 204.174 67.6533 204.174 65.3428V65.3359C204.174 63.0596 205.473 61.501 207.476 61.501C209.479 61.501 210.695 62.9912 210.695 65.1924V65.6572H205.391C205.425 67.1816 206.266 68.0703 207.578 68.0703C208.576 68.0703 209.191 67.5986 209.39 67.1543L209.417 67.0928H210.606L210.593 67.1475C210.34 68.1455 209.287 69.1299 207.551 69.1299ZM207.469 62.5605C206.375 62.5605 205.541 63.3057 205.411 64.707H209.485C209.362 63.251 208.556 62.5605 207.469 62.5605Z" fill="black"/>
<path d="M215.109 65.582V64.4746H222.17V65.582H215.109Z" fill="black"/>
<path d="M229.489 69.1299C227.848 69.1299 226.721 68.3369 226.584 67.1201H227.801C227.999 67.7354 228.587 68.1387 229.53 68.1387C230.521 68.1387 231.225 67.667 231.225 66.9971V66.9834C231.225 66.4844 230.849 66.1357 229.94 65.917L228.799 65.6436C227.418 65.3154 226.796 64.7139 226.796 63.6543V63.6475C226.796 62.4238 227.972 61.501 229.537 61.501C231.082 61.501 232.155 62.2734 232.319 63.4766H231.15C230.993 62.8955 230.419 62.4922 229.53 62.4922C228.655 62.4922 228.013 62.9434 228.013 63.5928V63.6064C228.013 64.1055 228.382 64.4199 229.25 64.6318L230.385 64.9053C231.772 65.2402 232.442 65.8418 232.442 66.8945V66.9082C232.442 68.2207 231.164 69.1299 229.489 69.1299Z" fill="black"/>
<path d="M236.43 69.0547C234.912 69.0547 234.276 68.4941 234.276 67.0859V62.6152H233.114V61.6309H234.276V59.7236H235.507V61.6309H237.12V62.6152H235.507V66.7852C235.507 67.6533 235.808 68.002 236.573 68.002C236.785 68.002 236.901 67.9951 237.12 67.9746V68.9863C236.888 69.0273 236.662 69.0547 236.43 69.0547Z" fill="black"/>
<path d="M239.727 60.1543C239.31 60.1543 238.968 59.8125 238.968 59.3955C238.968 58.9854 239.31 58.6436 239.727 58.6436C240.137 58.6436 240.479 58.9854 240.479 59.3955C240.479 59.8125 240.137 60.1543 239.727 60.1543ZM242.741 60.1543C242.331 60.1543 241.99 59.8125 241.99 59.3955C241.99 58.9854 242.331 58.6436 242.741 58.6436C243.158 58.6436 243.5 58.9854 243.5 59.3955C243.5 59.8125 243.158 60.1543 242.741 60.1543ZM240.513 69.1299C239.112 69.1299 238.052 68.2822 238.052 66.9424V66.9287C238.052 65.6162 239.023 64.8574 240.739 64.7549L242.851 64.625V63.9551C242.851 63.0459 242.297 62.5537 241.197 62.5537C240.315 62.5537 239.734 62.8818 239.542 63.4561L239.535 63.4766H238.346L238.353 63.4355C238.544 62.2803 239.665 61.501 241.238 61.501C243.035 61.501 244.04 62.4238 244.04 63.9551V69H242.851V67.9131H242.741C242.277 68.6992 241.504 69.1299 240.513 69.1299ZM239.269 66.915C239.269 67.6602 239.905 68.0977 240.759 68.0977C241.969 68.0977 242.851 67.3047 242.851 66.252V65.582L240.882 65.7051C239.761 65.7734 239.269 66.1699 239.269 66.9014V66.915Z" fill="black"/>
<path d="M248.527 69.1299C246.661 69.1299 245.437 67.6191 245.437 65.3223V65.3086C245.437 62.998 246.654 61.501 248.527 61.501C249.539 61.501 250.42 62.0068 250.824 62.793H250.933V58.7051H252.123V69H250.933V67.8242H250.824C250.373 68.6445 249.552 69.1299 248.527 69.1299ZM248.8 68.0771C250.14 68.0771 250.96 67.0244 250.96 65.3223V65.3086C250.96 63.6064 250.14 62.5537 248.8 62.5537C247.454 62.5537 246.654 63.5928 246.654 65.3086V65.3223C246.654 67.0381 247.454 68.0771 248.8 68.0771Z" fill="black"/>
<path d="M257.006 69.1299C254.9 69.1299 253.629 67.6533 253.629 65.3428V65.3359C253.629 63.0596 254.927 61.501 256.93 61.501C258.933 61.501 260.15 62.9912 260.15 65.1924V65.6572H254.845C254.88 67.1816 255.72 68.0703 257.033 68.0703C258.031 68.0703 258.646 67.5986 258.844 67.1543L258.872 67.0928H260.061L260.048 67.1475C259.795 68.1455 258.742 69.1299 257.006 69.1299ZM256.924 62.5605C255.83 62.5605 254.996 63.3057 254.866 64.707H258.94C258.817 63.251 258.01 62.5605 256.924 62.5605Z" fill="black"/>
<path d="M261.656 69V58.7051H262.846V69H261.656Z" fill="black"/>
<path d="M267.25 69.1299C265.609 69.1299 264.482 68.3369 264.345 67.1201H265.562C265.76 67.7354 266.348 68.1387 267.291 68.1387C268.282 68.1387 268.986 67.667 268.986 66.9971V66.9834C268.986 66.4844 268.61 66.1357 267.701 65.917L266.56 65.6436C265.179 65.3154 264.557 64.7139 264.557 63.6543V63.6475C264.557 62.4238 265.733 61.501 267.298 61.501C268.843 61.501 269.916 62.2734 270.08 63.4766H268.911C268.754 62.8955 268.18 62.4922 267.291 62.4922C266.416 62.4922 265.774 62.9434 265.774 63.5928V63.6064C265.774 64.1055 266.143 64.4199 267.011 64.6318L268.146 64.9053C269.533 65.2402 270.203 65.8418 270.203 66.8945V66.9082C270.203 68.2207 268.925 69.1299 267.25 69.1299Z" fill="black"/>
<path d="M274.656 69.1299C272.591 69.1299 271.272 67.6328 271.272 65.2949V65.2812C271.272 62.9912 272.584 61.501 274.649 61.501C276.44 61.501 277.513 62.5332 277.732 63.8457L277.739 63.8867H276.556L276.549 63.8662C276.365 63.1416 275.708 62.5537 274.649 62.5537C273.323 62.5537 272.489 63.6201 272.489 65.2812V65.2949C272.489 66.9902 273.336 68.0771 274.649 68.0771C275.64 68.0771 276.269 67.6396 276.542 66.8193L276.556 66.7783L277.732 66.7715L277.718 66.8467C277.417 68.1797 276.426 69.1299 274.656 69.1299Z" fill="black"/>
<path d="M279.135 69V58.7051H280.325V62.7383H280.434C280.803 61.959 281.494 61.501 282.581 61.501C284.235 61.501 285.158 62.4785 285.158 64.2285V69H283.968V64.5156C283.968 63.1895 283.421 62.5537 282.246 62.5537C281.07 62.5537 280.325 63.3467 280.325 64.6387V69H279.135Z" fill="black"/>
<path d="M289.371 69.1299C287.696 69.1299 286.835 68.1455 286.835 66.4023V61.6309H288.024V66.1152C288.024 67.4414 288.503 68.0771 289.678 68.0771C290.977 68.0771 291.668 67.2842 291.668 65.9922V61.6309H292.857V69H291.668V67.8994H291.558C291.196 68.6855 290.451 69.1299 289.371 69.1299Z" fill="black"/>
<path d="M294.739 69V58.7051H295.929V69H294.739Z" fill="black"/>
<path d="M300.812 69.1299C298.706 69.1299 297.435 67.6533 297.435 65.3428V65.3359C297.435 63.0596 298.734 61.501 300.736 61.501C302.739 61.501 303.956 62.9912 303.956 65.1924V65.6572H298.652C298.686 67.1816 299.527 68.0703 300.839 68.0703C301.837 68.0703 302.452 67.5986 302.651 67.1543L302.678 67.0928H303.867L303.854 67.1475C303.601 68.1455 302.548 69.1299 300.812 69.1299ZM300.73 62.5605C299.636 62.5605 298.802 63.3057 298.672 64.707H302.746C302.623 63.251 301.817 62.5605 300.73 62.5605Z" fill="black"/>
<path d="M19.5957 93.4609C18.2627 91.6904 17.6543 89.626 17.6543 87.083C17.6543 84.5469 18.2559 82.4756 19.5957 80.7051H20.5938C19.6025 81.9697 18.8643 84.7109 18.8643 87.083C18.8643 89.4756 19.6025 92.1963 20.5938 93.4609H19.5957Z" fill="black"/>
<path d="M22.0383 91V90.1523L25.3742 86.543C26.632 85.1826 27.0012 84.6699 27.0012 83.8086V83.7949C27.0012 82.7559 26.2971 81.9766 25.135 81.9766C23.9524 81.9766 23.1662 82.749 23.1662 83.9111L23.1594 83.9248L21.9836 83.918L21.9699 83.9111C21.9768 82.1611 23.3303 80.9033 25.217 80.9033C26.9397 80.9033 28.259 82.0723 28.259 83.665V83.6787C28.259 84.8066 27.7736 85.627 25.9895 87.4658L23.7473 89.7832V89.8926H28.4231V91H22.0383Z" fill="black"/>
<path d="M33.3813 91.2324C31.2006 91.2324 29.9018 89.2432 29.9018 86.0713V86.0576C29.9018 82.8857 31.2006 80.9033 33.3813 80.9033C35.5619 80.9033 36.8744 82.8857 36.8744 86.0576V86.0713C36.8744 89.2432 35.5619 91.2324 33.3813 91.2324ZM33.3813 90.1592C34.7963 90.1592 35.6371 88.5869 35.6371 86.0713V86.0576C35.6371 83.542 34.7963 81.9834 33.3813 81.9834C31.9662 81.9834 31.1391 83.542 31.1391 86.0576V86.0713C31.1391 88.5869 31.9662 90.1592 33.3813 90.1592Z" fill="black"/>
<path d="M38.4899 91V90.1523L41.8258 86.543C43.0836 85.1826 43.4528 84.6699 43.4528 83.8086V83.7949C43.4528 82.7559 42.7487 81.9766 41.5865 81.9766C40.4039 81.9766 39.6178 82.749 39.6178 83.9111L39.611 83.9248L38.4352 83.918L38.4215 83.9111C38.4283 82.1611 39.7819 80.9033 41.6686 80.9033C43.3912 80.9033 44.7106 82.0723 44.7106 83.665V83.6787C44.7106 84.8066 44.2252 85.627 42.441 87.4658L40.1989 89.7832V89.8926H44.8746V91H38.4899Z" fill="black"/>
<path d="M46.5311 91V90.1523L49.867 86.543C51.1248 85.1826 51.494 84.6699 51.494 83.8086V83.7949C51.494 82.7559 50.7899 81.9766 49.6278 81.9766C48.4451 81.9766 47.659 82.749 47.659 83.9111L47.6522 83.9248L46.4764 83.918L46.4627 83.9111C46.4696 82.1611 47.8231 80.9033 49.7098 80.9033C51.4325 80.9033 52.7518 82.0723 52.7518 83.665V83.6787C52.7518 84.8066 52.2664 85.627 50.4823 87.4658L48.2401 89.7832V89.8926H52.9159V91H46.5311Z" fill="black"/>
<path d="M54.0254 87.582V86.4746H61.087V87.582H54.0254Z" fill="black"/>
<path d="M62.3401 91V90.1523L65.676 86.543C66.9338 85.1826 67.303 84.6699 67.303 83.8086V83.7949C67.303 82.7559 66.5989 81.9766 65.4368 81.9766C64.2542 81.9766 63.468 82.749 63.468 83.9111L63.4612 83.9248L62.2854 83.918L62.2717 83.9111C62.2786 82.1611 63.6321 80.9033 65.5188 80.9033C67.2415 80.9033 68.5608 82.0723 68.5608 83.665V83.6787C68.5608 84.8066 68.0754 85.627 66.2913 87.4658L64.0491 89.7832V89.8926H68.7249V91H62.3401Z" fill="black"/>
<path d="M73.6831 91.2324C71.5024 91.2324 70.2036 89.2432 70.2036 86.0713V86.0576C70.2036 82.8857 71.5024 80.9033 73.6831 80.9033C75.8637 80.9033 77.1762 82.8857 77.1762 86.0576V86.0713C77.1762 89.2432 75.8637 91.2324 73.6831 91.2324ZM73.6831 90.1592C75.0981 90.1592 75.9389 88.5869 75.9389 86.0713V86.0576C75.9389 83.542 75.0981 81.9834 73.6831 81.9834C72.268 81.9834 71.4409 83.542 71.4409 86.0576V86.0713C71.4409 88.5869 72.268 90.1592 73.6831 90.1592Z" fill="black"/>
<path d="M78.7917 91V90.1523L82.1276 86.543C83.3854 85.1826 83.7546 84.6699 83.7546 83.8086V83.7949C83.7546 82.7559 83.0505 81.9766 81.8883 81.9766C80.7057 81.9766 79.9196 82.749 79.9196 83.9111L79.9128 83.9248L78.737 83.918L78.7233 83.9111C78.7301 82.1611 80.0837 80.9033 81.9704 80.9033C83.693 80.9033 85.0124 82.0723 85.0124 83.665V83.6787C85.0124 84.8066 84.527 85.627 82.7428 87.4658L80.5006 89.7832V89.8926H85.1764V91H78.7917Z" fill="black"/>
<path d="M90.1893 91.1641C88.1522 91.1641 86.8329 90.0293 86.703 88.4707L86.6962 88.3887H87.8788L87.8856 88.457C87.9813 89.4277 88.8768 90.0977 90.1893 90.0977C91.4813 90.0977 92.3632 89.373 92.3632 88.3271V88.3135C92.3632 87.1035 91.495 86.4268 90.1141 86.4268H88.8768V85.3877H90.0594C91.2352 85.3877 92.0555 84.6631 92.0555 83.6787V83.665C92.0555 82.6328 91.3788 82.0381 90.1757 82.0381C89.0135 82.0381 88.1864 82.6533 88.0839 83.6514L88.077 83.7197H86.8944L86.9012 83.6514C87.0585 82.0449 88.33 80.9717 90.1757 80.9717C92.0555 80.9717 93.2928 82.0176 93.2928 83.5146V83.5283C93.2928 84.7451 92.4315 85.5791 91.201 85.8389V85.8662C92.6366 85.9893 93.6141 86.8848 93.6141 88.2861V88.2998C93.6141 89.9473 92.1649 91.1641 90.1893 91.1641Z" fill="black"/>
<path d="M95.8516 93.4609H94.8536C95.8448 92.1963 96.5831 89.4756 96.5831 87.083C96.5831 84.7109 95.8448 81.9697 94.8536 80.7051H95.8516C97.1915 82.4756 97.793 84.5469 97.793 87.083C97.793 89.626 97.1846 91.6904 95.8516 93.4609Z" fill="black"/>
</svg>
