<svg width="65" height="58" viewBox="0 0 65 58" fill="none" xmlns="http://www.w3.org/2000/svg">
<rect width="65" height="58" rx="11" fill="white"/>
<path d="M22.5417 46V39.6836H23.5026V40.6797H23.5964C23.7409 40.3281 23.9655 40.0566 24.2702 39.8652C24.5749 39.6699 24.9382 39.5723 25.36 39.5723C25.7741 39.5723 26.1296 39.6719 26.4265 39.8711C26.7272 40.0703 26.9538 40.3398 27.1061 40.6797H27.1999C27.3718 40.3398 27.6296 40.0703 27.9733 39.8711C28.3171 39.6719 28.7038 39.5723 29.1335 39.5723C29.778 39.5723 30.2741 39.752 30.6218 40.1113C30.9694 40.4668 31.1432 40.9746 31.1432 41.6348V46H30.1354V41.8691C30.1354 40.9434 29.6921 40.4805 28.8054 40.4805C28.3757 40.4805 28.0241 40.6211 27.7507 40.9023C27.4772 41.1836 27.3405 41.5293 27.3405 41.9395V46H26.3327V41.7109C26.3327 41.3359 26.2116 41.0371 25.9694 40.8145C25.7311 40.5918 25.4128 40.4805 25.0143 40.4805C24.6042 40.4805 24.2565 40.6367 23.9714 40.9492C23.6901 41.2617 23.5495 41.6406 23.5495 42.0859V46H22.5417ZM34.5204 45.2266C35.0399 45.2266 35.4696 45.0762 35.8095 44.7754C36.1532 44.4746 36.3251 44.0977 36.3251 43.6445V43.0645L34.6259 43.1758C34.1493 43.207 33.7997 43.3066 33.577 43.4746C33.3544 43.6426 33.2431 43.8867 33.2431 44.207C33.2431 44.5234 33.3622 44.7734 33.6005 44.957C33.8388 45.1367 34.1454 45.2266 34.5204 45.2266ZM34.3329 46.1113C33.7118 46.1113 33.2001 45.9414 32.7977 45.6016C32.3993 45.2578 32.2001 44.8008 32.2001 44.2305C32.2001 43.668 32.3993 43.2266 32.7977 42.9062C33.1962 42.5859 33.7645 42.4043 34.5028 42.3613L36.3251 42.25V41.6758C36.3251 41.2852 36.204 40.9863 35.9618 40.7793C35.7196 40.5723 35.3642 40.4688 34.8954 40.4688C34.5165 40.4688 34.202 40.5371 33.952 40.6738C33.702 40.8105 33.5419 41.0039 33.4716 41.2539H32.452C32.5185 40.75 32.7782 40.3438 33.2313 40.0352C33.6884 39.7266 34.2548 39.5723 34.9306 39.5723C35.6962 39.5723 36.288 39.7578 36.706 40.1289C37.1239 40.5 37.3329 41.0156 37.3329 41.6758V46H36.372V45.0684H36.2782C36.0751 45.4043 35.8056 45.6621 35.4696 45.8418C35.1337 46.0215 34.7548 46.1113 34.3329 46.1113ZM38.8116 46V39.6836H39.8194V46H38.8116ZM39.8136 38.1953C39.6769 38.332 39.5108 38.4004 39.3155 38.4004C39.1202 38.4004 38.9542 38.332 38.8175 38.1953C38.6808 38.0547 38.6124 37.8887 38.6124 37.6973C38.6124 37.5059 38.6808 37.3418 38.8175 37.2051C38.9542 37.0645 39.1202 36.9941 39.3155 36.9941C39.5108 36.9941 39.6769 37.0645 39.8136 37.2051C39.9503 37.3418 40.0187 37.5059 40.0187 37.6973C40.0187 37.8887 39.9503 38.0547 39.8136 38.1953ZM41.3919 46V37.1758H42.3997V46H41.3919Z" fill="#007AFF"/>
<path d="M45 12.4061V27.9276C45 28.1597 45 28.5245 45 28.75L36.3932 20.6922L45 11.75C45 11.9534 45 12.1719 45 12.4061Z" fill="#007AFF"/>
<path d="M20 27.9225V12.401C20 12.1689 20.0001 11.9314 20 11.7633L28.5947 20.6923L20 28.7456C20.0004 28.5334 20 28.1546 20 27.9225Z" fill="#007AFF"/>
<path d="M33.3311 22.2262C32.9378 22.6347 32.2838 22.6347 31.8905 22.2262L21.8116 11.7589H43.41L33.3311 22.2262Z" fill="#007AFF"/>
<path d="M29.26 21.6475L31.9071 24.149C32.2993 24.5197 32.915 24.5122 33.2982 24.1321L35.8383 21.6121L43.4176 28.7421H21.8116L29.26 21.6475Z" fill="#007AFF"/>
</svg>
