<?xml version="1.0" encoding="utf-8"?>
<!-- Generator: Adobe Illustrator 28.1.0, SVG Export Plug-In . SVG Version: 6.00 Build 0)  -->
<svg version="1.1" id="logo" xmlns="http://www.w3.org/2000/svg" xmlns:xlink="http://www.w3.org/1999/xlink" x="0px" y="0px"
	 viewBox="0 0 4000 1500" style="enable-background:new 0 0 4000 1500;" xml:space="preserve">
<style type="text/css">
	.st0{fill:#FFFFFF;}
</style>
<g>
	<rect y="750" width="4000" height="750"/>
	<g>
		<path class="st0" d="M2886.4,1308.7c-101.3,0-183.7-82.4-183.7-183.7s82.4-183.7,183.7-183.7s183.7,82.4,183.7,183.7
			S2987.7,1308.7,2886.4,1308.7z M2886.4,963c-89.3,0-162,72.7-162,162s72.7,162,162,162s162-72.7,162-162S2975.7,963,2886.4,963z"
			/>
		<polygon class="st0" points="2969,1125 2841.6,1051.4 2841.6,1198.6 		"/>
	</g>
	<g>
		<g>
			<path class="st0" d="M3672,1241.2c-2.3,0-4.7-0.7-6.6-2.3c-4.8-3.7-5.6-10.5-1.9-15.2c22-28.4,33.6-62.6,33.6-98.7
				s-11.6-70.3-33.6-98.7c-3.7-4.8-2.8-11.6,1.9-15.2s11.6-2.8,15.2,2c25,32.2,38.1,71,38.1,112s-13.2,79.8-38.1,112
				C3678.4,1239.8,3675.2,1241.2,3672,1241.2L3672,1241.2z"/>
			<path class="st0" d="M3398,1241.2c-3.2,0-6.5-1.4-8.6-4.2c-25-32.2-38.1-71-38.1-111.9s13.2-79.7,38.1-112
				c3.7-4.7,10.5-5.6,15.2-2c4.8,3.7,5.6,10.5,1.9,15.2c-22,28.4-33.6,62.5-33.6,98.7s11.6,70.2,33.6,98.7
				c3.7,4.8,2.8,11.6-1.9,15.2C3402.7,1240.4,3400.3,1241.2,3398,1241.2L3398,1241.2z"/>
			<path class="st0" d="M3631.3,1210c-2.3,0-4.7-0.7-6.6-2.3c-4.8-3.7-5.6-10.5-1.9-15.2c15.1-19.5,23-42.8,23-67.5s-8-48-23-67.4
				c-3.7-4.8-2.8-11.6,1.9-15.2c4.7-3.7,11.6-2.8,15.2,1.9c18,23.3,27.6,51.2,27.6,80.7s-9.5,57.5-27.6,80.8
				C3637.8,1208.6,3634.6,1210,3631.3,1210L3631.3,1210z"/>
			<path class="st0" d="M3438.6,1210c-3.3,0-6.5-1.5-8.6-4.2c-18-23.3-27.5-51.3-27.5-80.8s9.5-57.4,27.5-80.7
				c3.7-4.8,10.5-5.6,15.2-2c4.8,3.7,5.6,10.5,2,15.2c-15,19.5-23,42.8-23,67.4s7.9,48,23,67.5c3.7,4.8,2.8,11.6-2,15.2
				C3443.3,1209.3,3440.9,1210,3438.6,1210L3438.6,1210z"/>
			<path class="st0" d="M3590.7,1178.7c-2.3,0-4.7-0.7-6.6-2.3c-4.8-3.7-5.6-10.5-1.9-15.2c7.9-10.3,12.3-23.1,12.3-36.2
				s-4.4-25.9-12.3-36.2c-3.7-4.8-2.8-11.6,1.9-15.2c4.8-3.7,11.6-2.8,15.2,1.9c10.9,14,16.8,31.6,16.8,49.5s-6,35.4-16.8,49.5
				C3597.2,1177.2,3594,1178.7,3590.7,1178.7L3590.7,1178.7z"/>
			<path class="st0" d="M3479.3,1178.7c-3.2,0-6.5-1.4-8.6-4.2c-10.9-14-16.8-31.6-16.8-49.5s6-35.4,16.8-49.5
				c3.7-4.8,10.5-5.6,15.2-1.9s5.6,10.5,1.9,15.2c-7.9,10.3-12.3,23.1-12.3,36.2s4.4,25.9,12.3,36.2c3.7,4.8,2.8,11.6-1.9,15.2
				C3483.9,1178,3481.6,1178.7,3479.3,1178.7L3479.3,1178.7z"/>
		</g>
		
			<ellipse transform="matrix(0.1602 -0.9871 0.9871 0.1602 1858.1606 4434.2764)" class="st0" cx="3535.1" cy="1125.1" rx="30.1" ry="30.1"/>
	</g>
	<rect class="st0" width="4000" height="750"/>
	<g>
		<path d="M2886.4,558.7c-101.3,0-183.7-82.4-183.7-183.7s82.4-183.7,183.7-183.7s183.7,82.4,183.7,183.7S2987.7,558.7,2886.4,558.7
			z M2886.4,213c-89.3,0-162,72.7-162,162s72.7,162,162,162s162-72.7,162-162S2975.7,213,2886.4,213z"/>
		<polygon points="2969,375 2841.6,301.4 2841.6,448.6 		"/>
	</g>
	<g>
		<g>
			<path d="M3672,491.2c-2.3,0-4.7-0.7-6.6-2.3c-4.8-3.7-5.6-10.5-1.9-15.2c22-28.4,33.6-62.6,33.6-98.7s-11.6-70.3-33.6-98.7
				c-3.7-4.8-2.8-11.6,1.9-15.2s11.6-2.8,15.2,2c25,32.2,38.1,71,38.1,112s-13.2,79.8-38.1,112
				C3678.4,489.8,3675.2,491.2,3672,491.2L3672,491.2z"/>
			<path d="M3398,491.2c-3.2,0-6.5-1.5-8.6-4.2c-25-32.2-38.1-71-38.1-112s13.2-79.7,38.1-112c3.7-4.7,10.5-5.6,15.2-2
				c4.8,3.7,5.6,10.5,1.9,15.2c-22,28.4-33.6,62.5-33.6,98.7s11.6,70.2,33.6,98.6c3.7,4.8,2.8,11.6-1.9,15.2
				C3402.7,490.4,3400.3,491.2,3398,491.2L3398,491.2z"/>
			<path d="M3631.3,460c-2.3,0-4.7-0.7-6.6-2.3c-4.8-3.7-5.6-10.5-1.9-15.2c15.1-19.5,23-42.8,23-67.5s-8-48-23-67.4
				c-3.7-4.8-2.8-11.6,1.9-15.2c4.7-3.7,11.6-2.8,15.2,2c18,23.3,27.6,51.2,27.6,80.7s-9.5,57.5-27.6,80.8
				C3637.8,458.6,3634.6,460,3631.3,460L3631.3,460z"/>
			<path d="M3438.6,460c-3.3,0-6.5-1.5-8.6-4.2c-18-23.3-27.5-51.3-27.5-80.8s9.5-57.4,27.5-80.7c3.7-4.8,10.5-5.6,15.2-2
				c4.8,3.7,5.6,10.5,2,15.2c-15,19.5-23,42.8-23,67.4s7.9,48,23,67.5c3.7,4.8,2.8,11.6-2,15.2C3443.3,459.3,3440.9,460,3438.6,460
				L3438.6,460z"/>
			<path d="M3590.7,428.7c-2.3,0-4.7-0.7-6.6-2.3c-4.8-3.7-5.6-10.5-1.9-15.2c7.9-10.3,12.3-23.1,12.3-36.2s-4.4-25.9-12.3-36.2
				c-3.7-4.8-2.8-11.6,1.9-15.2c4.8-3.7,11.6-2.8,15.2,2c10.9,14,16.8,31.6,16.8,49.5s-6,35.4-16.8,49.5
				C3597.2,427.2,3594,428.7,3590.7,428.7L3590.7,428.7z"/>
			<path d="M3479.3,428.7c-3.2,0-6.5-1.5-8.6-4.2c-10.9-14-16.8-31.6-16.8-49.5s6-35.4,16.8-49.5c3.7-4.8,10.5-5.6,15.2-2
				c4.8,3.7,5.6,10.5,1.9,15.2c-7.9,10.3-12.3,23.1-12.3,36.2s4.4,25.9,12.3,36.2c3.7,4.8,2.8,11.6-1.9,15.2
				C3483.9,428,3481.6,428.7,3479.3,428.7L3479.3,428.7z"/>
		</g>
		<ellipse transform="matrix(0.1602 -0.9871 0.9871 0.1602 2598.5083 3804.4304)" cx="3535.1" cy="375.1" rx="30.1" ry="30.1"/>
	</g>
	<g>
		<path d="M892.7,550.4v-246h-1.8l-98.4,246h-38.3l-98.4-246H654v246h-45.6V216.9h58.3l105.7,266.1h1.8L880,216.9h60.1v333.5
			L892.7,550.4L892.7,550.4z M1197.1,550.4h-47.4v-41.9h-1.8c-12.8,29.2-38.3,45.6-74.7,45.6c-52.8,0-83.8-34.6-83.8-91.1V306.2
			h49.2v147.6c0,36.5,18.2,56.5,51,56.5c36.4,0,56.5-25.5,56.5-63.8V306.2h49.2L1197.1,550.4L1197.1,550.4L1197.1,550.4z
			 M1331.9,302.5c56.5,0,91.1,31,92.9,76.5h-45.6c-3.6-23.7-20.1-38.3-47.4-38.3s-45.6,12.8-45.6,32.8c0,14.6,10.9,25.5,36.4,31
			l38.3,9.1c49.2,10.9,67.4,31,67.4,65.6c0,43.7-40.1,74.7-96.6,74.7c-60.1,0-96.6-29.2-100.2-76.5h49.2c3.6,25.5,21.9,38.3,51,38.3
			s47.4-12.8,47.4-32.8c0-16.4-9.1-25.5-34.6-31l-38.3-9.1c-45.6-10.9-67.4-32.8-67.4-69.2C1239,331.7,1275.5,302.5,1331.9,302.5
			L1331.9,302.5z M1465,242.4c0-16.4,12.8-29.2,29.2-29.2s29.2,12.8,29.2,29.2s-12.8,29.2-29.2,29.2S1465,258.8,1465,242.4
			L1465,242.4z M1468.6,306.2h49.2v244.2h-49.2V306.2L1468.6,306.2z M1725.6,390c-5.5-25.5-23.7-47.4-56.5-47.4
			c-38.3,0-63.8,32.8-63.8,83.8s25.5,83.8,63.8,83.8c31,0,49.2-16.4,56.5-45.6h47.4c-5.5,51-45.6,87.5-103.9,87.5
			c-69.2,0-113-47.4-113-125.8s43.7-125.8,113-125.8c62,0,98.4,40.1,103.9,87.5L1725.6,390L1725.6,390L1725.6,390z"/>
		<path d="M273.1,333.5h-10.9v-47.4h10.9v14.6H284v16.4h21.9v16.4h45.6v14.6h34.6v-45.6h-10.9v-47.4h-10.9v-14.6
			c-3.6-1.8-7.3-1.8-10.9-3.6v-14.6h21.9v-31h10.9v14.6H408v16.4h10.9v16.4h10.9v31c3.6,0,7.3,0,10.9,1.8v31h10.9v16.4h-21.9v-14.6
			h-10.9v31h21.9v16.4h10.9v-14.6h23.7v-16.4h23.7v-16.4h21.9v-14.6h21.9v31c-3.6,0-7.3,0-10.9,1.8v14.6c-3.6,0-7.3,0-10.9,1.8v14.6
			H510v14.6h-10.9v14.6c-3.6,0-7.3,0-10.9,1.8v14.6h-10.9v14.6h-10.9v14.6h-21.9v14.6h-10.9v14.6h-10.9V472c-3.6,0-7.3,0-10.9,1.8
			v14.6h-10.9V503H377v31h-10.9v14.6h-10.9v-14.6h-34.6v-16.4h10.9V503h23.7v-14.6c3.6,0,7.3,0,10.9-1.8V472c3.6,0,7.3,0,10.9-1.8
			v-31h-10.9v-14.6h-34.6v-16.4h-21.9v-16.4h-10.9v-14.6c-3.6,0-7.3,0-10.9-1.8v-14.6h-10.9C273.2,353.5,273.2,344.4,273.1,333.5
			L273.1,333.5z M422.5,255.1h-10.9v14.6h10.9V255.1L422.5,255.1z"/>
	</g>
	<g>
		<path class="st0" d="M892.7,1303.3v-246h-1.8l-98.4,246h-38.3l-98.4-246H654v246h-45.6V969.8h58.3l105.7,266.1h1.8L880,969.8h60.1
			v333.5H892.7L892.7,1303.3z M1197.1,1303.3h-47.4v-41.9h-1.8c-12.8,29.2-38.3,45.6-74.7,45.6c-52.8,0-83.8-34.6-83.8-91.1v-156.7
			h49.2v147.6c0,36.4,18.2,56.5,51,56.5c36.4,0,56.5-25.5,56.5-63.8v-140.3h49.2L1197.1,1303.3L1197.1,1303.3L1197.1,1303.3z
			 M1331.9,1055.4c56.5,0,91.1,31,92.9,76.5h-45.6c-3.6-23.7-20.1-38.3-47.4-38.3s-45.6,12.8-45.6,32.8c0,14.6,10.9,25.5,36.4,31
			l38.3,9.1c49.2,10.9,67.4,31,67.4,65.6c0,43.7-40.1,74.7-96.6,74.7c-60.1,0-96.6-29.2-100.2-76.5h49.2c3.6,25.5,21.9,38.3,51,38.3
			s47.4-12.8,47.4-32.8c0-16.4-9.1-25.5-34.6-31l-38.3-9.1c-45.6-10.9-67.4-32.8-67.4-69.2C1239,1084.6,1275.5,1055.4,1331.9,1055.4
			L1331.9,1055.4z M1465,995.3c0-16.4,12.8-29.2,29.2-29.2s29.2,12.8,29.2,29.2s-12.8,29.2-29.2,29.2S1465,1011.7,1465,995.3
			L1465,995.3z M1468.6,1059.1h49.2v244.2h-49.2V1059.1z M1725.6,1142.9c-5.5-25.5-23.7-47.4-56.5-47.4c-38.3,0-63.8,32.8-63.8,83.8
			s25.5,83.8,63.8,83.8c31,0,49.2-16.4,56.5-45.6h47.4c-5.5,51-45.6,87.5-103.9,87.5c-69.2,0-113-47.4-113-125.8
			s43.7-125.8,113-125.8c62,0,98.4,40.1,103.9,87.5L1725.6,1142.9L1725.6,1142.9L1725.6,1142.9z"/>
		<path class="st0" d="M273.1,1086.4h-10.9V1039h10.9v14.6H284v16.4h21.9v16.4h45.6v14.6h34.6v-45.6h-10.9v-47.4h-10.9v-14.6
			c-3.6-1.8-7.3-1.8-10.9-3.6v-14.6h21.9v-31h10.9v14.6H408v16.4h10.9v16.4h10.9v31c3.6,0,7.3,0,10.9,1.8v31h10.9v16.4h-21.9v-14.6
			h-10.9v31h21.9v16.4h10.9v-14.6h23.7v-16.4h23.7v-16.4h21.9v-14.6h21.9v31c-3.6,0-7.3,0-10.9,1.8v14.6c-3.6,0-7.3,0-10.9,1.8v14.6
			H510v14.6h-10.9v14.6c-3.6,0-7.3,0-10.9,1.8v14.6h-10.9v14.6h-10.9v14.6h-21.9v14.6h-10.9v14.6h-10.9v14.6c-3.6,0-7.3,0-10.9,1.8
			v14.6h-10.9v14.6H377v31h-10.9v14.6h-10.9v-14.6h-34.6v-16.4h10.9v-14.6h23.7v-14.6c3.6,0,7.3,0,10.9-1.8v-14.6
			c3.6,0,7.3,0,10.9-1.8v-31h-10.9v-14.6h-34.6v-16.4h-21.9v-16.4h-10.9v-14.6c-3.6,0-7.3,0-10.9-1.8v-14.6h-10.9
			C273.2,1106.5,273.2,1097.4,273.1,1086.4L273.1,1086.4z M422.5,1008h-10.9v14.6h10.9V1008z"/>
	</g>
</g>
</svg>
