<?xml version="1.0" encoding="utf-8"?>
<!-- Generator: Adobe Illustrator 28.1.0, SVG Export Plug-In . SVG Version: 6.00 Build 0)  -->
<svg version="1.1" id="Layer_1" xmlns="http://www.w3.org/2000/svg" xmlns:xlink="http://www.w3.org/1999/xlink" x="0px" y="0px"
	 viewBox="0 0 84.3 20.7" style="enable-background:new 0 0 84.3 20.7;" xml:space="preserve">
<script  xmlns=""></script>
<g>
	<path d="M35.4,20.1V6.6h-0.1l-5.4,13.5h-2.1L22.4,6.6h-0.1v13.5h-2.5V1.8H23l5.8,14.6h0.1l5.8-14.6H38v18.3L35.4,20.1L35.4,20.1z
		 M52.1,20.1h-2.6v-2.3h-0.1c-0.7,1.6-2.1,2.5-4.1,2.5c-2.9,0-4.6-1.9-4.6-5V6.7h2.7v8.1c0,2,1,3.1,2.8,3.1c2,0,3.1-1.4,3.1-3.5V6.7
		H52L52.1,20.1L52.1,20.1z M59.5,6.5c3.1,0,5,1.7,5.1,4.2h-2.5c-0.2-1.3-1.1-2.1-2.6-2.1S57,9.3,57,10.4c0,0.8,0.6,1.4,2,1.7
		l2.1,0.5c2.7,0.6,3.7,1.7,3.7,3.6c0,2.4-2.2,4.1-5.3,4.1c-3.3,0-5.3-1.6-5.5-4.2h2.7c0.2,1.4,1.2,2.1,2.8,2.1s2.6-0.7,2.6-1.8
		c0-0.9-0.5-1.4-1.9-1.7l-2.1-0.5c-2.5-0.6-3.7-1.8-3.7-3.8C54.4,8.1,56.4,6.5,59.5,6.5z M66.8,3.2c0-0.9,0.7-1.6,1.6-1.6
		S70,2.3,70,3.2s-0.7,1.6-1.6,1.6S66.8,4.1,66.8,3.2L66.8,3.2z M67,6.7h2.7v13.4H67V6.7z M81.1,11.3c-0.3-1.4-1.3-2.6-3.1-2.6
		c-2.1,0-3.5,1.8-3.5,4.6c0,2.9,1.4,4.6,3.5,4.6c1.7,0,2.7-0.9,3.1-2.5h2.6c-0.3,2.8-2.5,4.8-5.7,4.8c-3.8,0-6.2-2.6-6.2-6.9
		c0-4.2,2.4-6.9,6.2-6.9c3.4,0,5.4,2.2,5.7,4.8L81.1,11.3L81.1,11.3z"/>
	<path d="M1.4,8.2c-0.2,0-0.4,0-0.6,0c0-0.9,0-1.7,0-2.6c0.2,0,0.4,0,0.6,0c0,0.3,0,0.5,0,0.8c0.2,0,0.4,0,0.6,0C2,6.7,2,7,2,7.3
		c0.4,0,0.8,0,1.2,0c0,0.3,0,0.6,0,0.9c0.8,0,1.7,0,2.5,0c0,0.3,0,0.5,0,0.8C6.3,9,7,9,7.6,9c0-0.8,0-1.7,0-2.5c-0.2,0-0.4,0-0.6,0
		c0-0.9,0-1.7,0-2.6c-0.2,0-0.4,0-0.6,0c0-0.3,0-0.5,0-0.8C6.2,3,6,3,5.8,2.9c0-0.3,0-0.5,0-0.8c0.4,0,0.8,0,1.2,0C7,1.5,7,1,7,0.4
		c0.2,0,0.4,0,0.6,0c0,0.2,0,0.5,0,0.8c0.4,0,0.8,0,1.2,0c0,0.3,0,0.5,0,0.9c0.2,0,0.4,0,0.6,0c0,0.3,0,0.6,0,0.9C9.6,3,9.8,3,10,3
		c0,0.5,0,1.1,0,1.7c0.2,0,0.4,0,0.6,0.1c0,0.5,0,1.1,0,1.7c0.2,0,0.4,0,0.6,0c0,0.3,0,0.6,0,0.9c-0.4,0-0.8,0-1.2,0
		c0-0.2,0-0.5,0-0.8c-0.2,0-0.4,0-0.6,0c0,0.5,0,1.1,0,1.7c0.4,0,0.8,0,1.2,0c0,0.3,0,0.6,0,0.9c0.2,0,0.4,0,0.6,0
		c0-0.3,0-0.5,0-0.8c0.4,0,0.8,0,1.3,0c0-0.3,0-0.5,0-0.9c0.4,0,0.8,0,1.3,0c0-0.3,0-0.6,0-0.9c0.4,0,0.8,0,1.2,0c0-0.3,0-0.6,0-0.8
		c0.4,0,0.8,0,1.2,0c0,0.5,0,1.1,0,1.7c-0.2,0-0.4,0-0.6,0.1c0,0.3,0,0.5,0,0.8c-0.2,0-0.4,0-0.6,0.1c0,0.3,0,0.5,0,0.8
		c-0.2,0-0.4,0-0.6,0c0,0.3,0,0.5,0,0.8c-0.2,0-0.4,0-0.6,0c0,0.3,0,0.5,0,0.8c-0.2,0-0.4,0-0.6,0.1c0,0.3,0,0.5,0,0.8
		c-0.2,0-0.4,0-0.6,0c0,0.3,0,0.5,0,0.8c-0.2,0-0.4,0-0.6,0c0,0.3,0,0.5,0,0.8c-0.4,0-0.8,0-1.2,0c0,0.3,0,0.6,0,0.8
		c-0.2,0-0.4,0-0.6,0c0,0.3,0,0.5,0,0.8c-0.2,0-0.4,0-0.6,0c0,0.3,0,0.5,0,0.8c-0.2,0-0.4,0-0.6,0.1c0,0.3,0,0.5,0,0.8
		c-0.2,0-0.4,0-0.6,0c0,0.3,0,0.5,0,0.8c-0.4,0-0.8,0-1.3,0c0,0.6,0,1.2,0,1.7c-0.2,0-0.4,0-0.6,0c0,0.3,0,0.6,0,0.8
		c-0.2,0-0.4,0-0.6,0c0-0.2,0-0.5,0-0.8c-0.6,0-1.2,0-1.9,0c0-0.3,0-0.5,0-0.9c0.2,0,0.4,0,0.6,0c0-0.3,0-0.5,0-0.8
		c0.4,0,0.8,0,1.3,0c0-0.3,0-0.5,0-0.8c0.2,0,0.4,0,0.6-0.1c0-0.3,0-0.5,0-0.8c0.2,0,0.4,0,0.6-0.1c0-0.6,0-1.1,0-1.7
		c-0.2,0-0.4,0-0.6,0c0-0.3,0-0.5,0-0.8c-0.6,0-1.2,0-1.9,0c0-0.3,0-0.5,0-0.9c-0.4,0-0.8,0-1.2,0c0-0.3,0-0.6,0-0.9
		c-0.2,0-0.4,0-0.6,0c0-0.3,0-0.6,0-0.8c-0.2,0-0.4,0-0.6-0.1c0-0.3,0-0.5,0-0.8c-0.2,0-0.4,0-0.6,0C1.4,9.3,1.4,8.8,1.4,8.2z
		 M9.6,3.9c-0.2,0-0.4,0-0.6,0c0,0.3,0,0.5,0,0.8c0.2,0,0.4,0,0.6,0C9.6,4.4,9.6,4.1,9.6,3.9z"/>
</g>
</svg>
